G75*
%MOIN*%
%OFA0B0*%
%FSLAX25Y25*%
%IPPOS*%
%LPD*%
%AMOC8*
5,1,8,0,0,1.08239X$1,22.5*
%
%ADD10C,0.00600*%
%ADD11R,0.04337X0.18510*%
%ADD12R,0.06699X0.13786*%
%ADD13C,0.05943*%
%ADD14C,0.04369*%
%ADD15C,0.05550*%
%ADD16C,0.00000*%
%ADD17C,0.03943*%
D10*
X0001300Y0203937D02*
X0001359Y0208768D01*
X0001537Y0213596D01*
X0001833Y0218418D01*
X0002248Y0223232D01*
X0002780Y0228034D01*
X0003431Y0232821D01*
X0004198Y0237591D01*
X0005082Y0242341D01*
X0006083Y0247067D01*
X0007199Y0251768D01*
X0008431Y0256439D01*
X0009776Y0261080D01*
X0011235Y0265685D01*
X0012807Y0270254D01*
X0014490Y0274782D01*
X0016284Y0279268D01*
X0018188Y0283709D01*
X0020200Y0288101D01*
X0022319Y0292443D01*
X0024544Y0296731D01*
X0026873Y0300964D01*
X0029306Y0305138D01*
X0031841Y0309251D01*
X0034475Y0313301D01*
X0037208Y0317285D01*
X0040039Y0321200D01*
X0042964Y0325045D01*
X0045983Y0328817D01*
X0049093Y0332514D01*
X0052294Y0336133D01*
X0055582Y0339673D01*
X0058956Y0343131D01*
X0062414Y0346505D01*
X0065954Y0349793D01*
X0069573Y0352994D01*
X0073270Y0356104D01*
X0077042Y0359123D01*
X0080887Y0362048D01*
X0084802Y0364879D01*
X0088786Y0367612D01*
X0092836Y0370246D01*
X0096949Y0372781D01*
X0101123Y0375214D01*
X0105356Y0377543D01*
X0109644Y0379768D01*
X0113986Y0381887D01*
X0118378Y0383899D01*
X0122819Y0385803D01*
X0127305Y0387597D01*
X0131833Y0389280D01*
X0136402Y0390852D01*
X0141007Y0392311D01*
X0145648Y0393656D01*
X0150319Y0394888D01*
X0155020Y0396004D01*
X0159746Y0397005D01*
X0164496Y0397889D01*
X0169266Y0398656D01*
X0174053Y0399307D01*
X0178855Y0399839D01*
X0183669Y0400254D01*
X0188491Y0400550D01*
X0193319Y0400728D01*
X0198150Y0400787D01*
X0202981Y0400728D01*
X0207809Y0400550D01*
X0212631Y0400254D01*
X0217445Y0399839D01*
X0222247Y0399307D01*
X0227034Y0398656D01*
X0231804Y0397889D01*
X0236554Y0397005D01*
X0241280Y0396004D01*
X0245981Y0394888D01*
X0250652Y0393656D01*
X0255293Y0392311D01*
X0259898Y0390852D01*
X0264467Y0389280D01*
X0268995Y0387597D01*
X0273481Y0385803D01*
X0277922Y0383899D01*
X0282314Y0381887D01*
X0286656Y0379768D01*
X0290944Y0377543D01*
X0295177Y0375214D01*
X0299351Y0372781D01*
X0303464Y0370246D01*
X0307514Y0367612D01*
X0311498Y0364879D01*
X0315413Y0362048D01*
X0319258Y0359123D01*
X0323030Y0356104D01*
X0326727Y0352994D01*
X0330346Y0349793D01*
X0333886Y0346505D01*
X0337344Y0343131D01*
X0340718Y0339673D01*
X0344006Y0336133D01*
X0347207Y0332514D01*
X0350317Y0328817D01*
X0353336Y0325045D01*
X0356261Y0321200D01*
X0359092Y0317285D01*
X0361825Y0313301D01*
X0364459Y0309251D01*
X0366994Y0305138D01*
X0369427Y0300964D01*
X0371756Y0296731D01*
X0373981Y0292443D01*
X0376100Y0288101D01*
X0378112Y0283709D01*
X0380016Y0279268D01*
X0381810Y0274782D01*
X0383493Y0270254D01*
X0385065Y0265685D01*
X0386524Y0261080D01*
X0387869Y0256439D01*
X0389101Y0251768D01*
X0390217Y0247067D01*
X0391218Y0242341D01*
X0392102Y0237591D01*
X0392869Y0232821D01*
X0393520Y0228034D01*
X0394052Y0223232D01*
X0394467Y0218418D01*
X0394763Y0213596D01*
X0394941Y0208768D01*
X0395000Y0203937D01*
X0394941Y0199106D01*
X0394763Y0194278D01*
X0394467Y0189456D01*
X0394052Y0184642D01*
X0393520Y0179840D01*
X0392869Y0175053D01*
X0392102Y0170283D01*
X0391218Y0165533D01*
X0390217Y0160807D01*
X0389101Y0156106D01*
X0387869Y0151435D01*
X0386524Y0146794D01*
X0385065Y0142189D01*
X0383493Y0137620D01*
X0381810Y0133092D01*
X0380016Y0128606D01*
X0378112Y0124165D01*
X0376100Y0119773D01*
X0373981Y0115431D01*
X0371756Y0111143D01*
X0369427Y0106910D01*
X0366994Y0102736D01*
X0364459Y0098623D01*
X0361825Y0094573D01*
X0359092Y0090589D01*
X0356261Y0086674D01*
X0353336Y0082829D01*
X0350317Y0079057D01*
X0347207Y0075360D01*
X0344006Y0071741D01*
X0340718Y0068201D01*
X0337344Y0064743D01*
X0333886Y0061369D01*
X0330346Y0058081D01*
X0326727Y0054880D01*
X0323030Y0051770D01*
X0319258Y0048751D01*
X0315413Y0045826D01*
X0311498Y0042995D01*
X0307514Y0040262D01*
X0303464Y0037628D01*
X0299351Y0035093D01*
X0295177Y0032660D01*
X0290944Y0030331D01*
X0286656Y0028106D01*
X0282314Y0025987D01*
X0277922Y0023975D01*
X0273481Y0022071D01*
X0268995Y0020277D01*
X0264467Y0018594D01*
X0259898Y0017022D01*
X0255293Y0015563D01*
X0250652Y0014218D01*
X0245981Y0012986D01*
X0241280Y0011870D01*
X0236554Y0010869D01*
X0231804Y0009985D01*
X0227034Y0009218D01*
X0222247Y0008567D01*
X0217445Y0008035D01*
X0212631Y0007620D01*
X0207809Y0007324D01*
X0202981Y0007146D01*
X0198150Y0007087D01*
X0193319Y0007146D01*
X0188491Y0007324D01*
X0183669Y0007620D01*
X0178855Y0008035D01*
X0174053Y0008567D01*
X0169266Y0009218D01*
X0164496Y0009985D01*
X0159746Y0010869D01*
X0155020Y0011870D01*
X0150319Y0012986D01*
X0145648Y0014218D01*
X0141007Y0015563D01*
X0136402Y0017022D01*
X0131833Y0018594D01*
X0127305Y0020277D01*
X0122819Y0022071D01*
X0118378Y0023975D01*
X0113986Y0025987D01*
X0109644Y0028106D01*
X0105356Y0030331D01*
X0101123Y0032660D01*
X0096949Y0035093D01*
X0092836Y0037628D01*
X0088786Y0040262D01*
X0084802Y0042995D01*
X0080887Y0045826D01*
X0077042Y0048751D01*
X0073270Y0051770D01*
X0069573Y0054880D01*
X0065954Y0058081D01*
X0062414Y0061369D01*
X0058956Y0064743D01*
X0055582Y0068201D01*
X0052294Y0071741D01*
X0049093Y0075360D01*
X0045983Y0079057D01*
X0042964Y0082829D01*
X0040039Y0086674D01*
X0037208Y0090589D01*
X0034475Y0094573D01*
X0031841Y0098623D01*
X0029306Y0102736D01*
X0026873Y0106910D01*
X0024544Y0111143D01*
X0022319Y0115431D01*
X0020200Y0119773D01*
X0018188Y0124165D01*
X0016284Y0128606D01*
X0014490Y0133092D01*
X0012807Y0137620D01*
X0011235Y0142189D01*
X0009776Y0146794D01*
X0008431Y0151435D01*
X0007199Y0156106D01*
X0006083Y0160807D01*
X0005082Y0165533D01*
X0004198Y0170283D01*
X0003431Y0175053D01*
X0002780Y0179840D01*
X0002248Y0184642D01*
X0001833Y0189456D01*
X0001537Y0194278D01*
X0001359Y0199106D01*
X0001300Y0203937D01*
X0186339Y0373228D02*
X0186343Y0373518D01*
X0186353Y0373808D01*
X0186371Y0374097D01*
X0186396Y0374386D01*
X0186428Y0374674D01*
X0186467Y0374961D01*
X0186513Y0375247D01*
X0186566Y0375532D01*
X0186626Y0375816D01*
X0186693Y0376098D01*
X0186767Y0376378D01*
X0186848Y0376657D01*
X0186935Y0376933D01*
X0187029Y0377207D01*
X0187130Y0377479D01*
X0187238Y0377748D01*
X0187352Y0378014D01*
X0187473Y0378278D01*
X0187600Y0378538D01*
X0187734Y0378796D01*
X0187873Y0379050D01*
X0188019Y0379300D01*
X0188171Y0379547D01*
X0188330Y0379790D01*
X0188494Y0380029D01*
X0188663Y0380264D01*
X0188839Y0380495D01*
X0189020Y0380721D01*
X0189207Y0380943D01*
X0189399Y0381160D01*
X0189596Y0381372D01*
X0189798Y0381580D01*
X0190006Y0381782D01*
X0190218Y0381979D01*
X0190435Y0382171D01*
X0190657Y0382358D01*
X0190883Y0382539D01*
X0191114Y0382715D01*
X0191349Y0382884D01*
X0191588Y0383048D01*
X0191831Y0383207D01*
X0192078Y0383359D01*
X0192328Y0383505D01*
X0192582Y0383644D01*
X0192840Y0383778D01*
X0193100Y0383905D01*
X0193364Y0384026D01*
X0193630Y0384140D01*
X0193899Y0384248D01*
X0194171Y0384349D01*
X0194445Y0384443D01*
X0194721Y0384530D01*
X0195000Y0384611D01*
X0195280Y0384685D01*
X0195562Y0384752D01*
X0195846Y0384812D01*
X0196131Y0384865D01*
X0196417Y0384911D01*
X0196704Y0384950D01*
X0196992Y0384982D01*
X0197281Y0385007D01*
X0197570Y0385025D01*
X0197860Y0385035D01*
X0198150Y0385039D01*
X0198440Y0385035D01*
X0198730Y0385025D01*
X0199019Y0385007D01*
X0199308Y0384982D01*
X0199596Y0384950D01*
X0199883Y0384911D01*
X0200169Y0384865D01*
X0200454Y0384812D01*
X0200738Y0384752D01*
X0201020Y0384685D01*
X0201300Y0384611D01*
X0201579Y0384530D01*
X0201855Y0384443D01*
X0202129Y0384349D01*
X0202401Y0384248D01*
X0202670Y0384140D01*
X0202936Y0384026D01*
X0203200Y0383905D01*
X0203460Y0383778D01*
X0203718Y0383644D01*
X0203972Y0383505D01*
X0204222Y0383359D01*
X0204469Y0383207D01*
X0204712Y0383048D01*
X0204951Y0382884D01*
X0205186Y0382715D01*
X0205417Y0382539D01*
X0205643Y0382358D01*
X0205865Y0382171D01*
X0206082Y0381979D01*
X0206294Y0381782D01*
X0206502Y0381580D01*
X0206704Y0381372D01*
X0206901Y0381160D01*
X0207093Y0380943D01*
X0207280Y0380721D01*
X0207461Y0380495D01*
X0207637Y0380264D01*
X0207806Y0380029D01*
X0207970Y0379790D01*
X0208129Y0379547D01*
X0208281Y0379300D01*
X0208427Y0379050D01*
X0208566Y0378796D01*
X0208700Y0378538D01*
X0208827Y0378278D01*
X0208948Y0378014D01*
X0209062Y0377748D01*
X0209170Y0377479D01*
X0209271Y0377207D01*
X0209365Y0376933D01*
X0209452Y0376657D01*
X0209533Y0376378D01*
X0209607Y0376098D01*
X0209674Y0375816D01*
X0209734Y0375532D01*
X0209787Y0375247D01*
X0209833Y0374961D01*
X0209872Y0374674D01*
X0209904Y0374386D01*
X0209929Y0374097D01*
X0209947Y0373808D01*
X0209957Y0373518D01*
X0209961Y0373228D01*
X0209957Y0372938D01*
X0209947Y0372648D01*
X0209929Y0372359D01*
X0209904Y0372070D01*
X0209872Y0371782D01*
X0209833Y0371495D01*
X0209787Y0371209D01*
X0209734Y0370924D01*
X0209674Y0370640D01*
X0209607Y0370358D01*
X0209533Y0370078D01*
X0209452Y0369799D01*
X0209365Y0369523D01*
X0209271Y0369249D01*
X0209170Y0368977D01*
X0209062Y0368708D01*
X0208948Y0368442D01*
X0208827Y0368178D01*
X0208700Y0367918D01*
X0208566Y0367660D01*
X0208427Y0367406D01*
X0208281Y0367156D01*
X0208129Y0366909D01*
X0207970Y0366666D01*
X0207806Y0366427D01*
X0207637Y0366192D01*
X0207461Y0365961D01*
X0207280Y0365735D01*
X0207093Y0365513D01*
X0206901Y0365296D01*
X0206704Y0365084D01*
X0206502Y0364876D01*
X0206294Y0364674D01*
X0206082Y0364477D01*
X0205865Y0364285D01*
X0205643Y0364098D01*
X0205417Y0363917D01*
X0205186Y0363741D01*
X0204951Y0363572D01*
X0204712Y0363408D01*
X0204469Y0363249D01*
X0204222Y0363097D01*
X0203972Y0362951D01*
X0203718Y0362812D01*
X0203460Y0362678D01*
X0203200Y0362551D01*
X0202936Y0362430D01*
X0202670Y0362316D01*
X0202401Y0362208D01*
X0202129Y0362107D01*
X0201855Y0362013D01*
X0201579Y0361926D01*
X0201300Y0361845D01*
X0201020Y0361771D01*
X0200738Y0361704D01*
X0200454Y0361644D01*
X0200169Y0361591D01*
X0199883Y0361545D01*
X0199596Y0361506D01*
X0199308Y0361474D01*
X0199019Y0361449D01*
X0198730Y0361431D01*
X0198440Y0361421D01*
X0198150Y0361417D01*
X0197860Y0361421D01*
X0197570Y0361431D01*
X0197281Y0361449D01*
X0196992Y0361474D01*
X0196704Y0361506D01*
X0196417Y0361545D01*
X0196131Y0361591D01*
X0195846Y0361644D01*
X0195562Y0361704D01*
X0195280Y0361771D01*
X0195000Y0361845D01*
X0194721Y0361926D01*
X0194445Y0362013D01*
X0194171Y0362107D01*
X0193899Y0362208D01*
X0193630Y0362316D01*
X0193364Y0362430D01*
X0193100Y0362551D01*
X0192840Y0362678D01*
X0192582Y0362812D01*
X0192328Y0362951D01*
X0192078Y0363097D01*
X0191831Y0363249D01*
X0191588Y0363408D01*
X0191349Y0363572D01*
X0191114Y0363741D01*
X0190883Y0363917D01*
X0190657Y0364098D01*
X0190435Y0364285D01*
X0190218Y0364477D01*
X0190006Y0364674D01*
X0189798Y0364876D01*
X0189596Y0365084D01*
X0189399Y0365296D01*
X0189207Y0365513D01*
X0189020Y0365735D01*
X0188839Y0365961D01*
X0188663Y0366192D01*
X0188494Y0366427D01*
X0188330Y0366666D01*
X0188171Y0366909D01*
X0188019Y0367156D01*
X0187873Y0367406D01*
X0187734Y0367660D01*
X0187600Y0367918D01*
X0187473Y0368178D01*
X0187352Y0368442D01*
X0187238Y0368708D01*
X0187130Y0368977D01*
X0187029Y0369249D01*
X0186935Y0369523D01*
X0186848Y0369799D01*
X0186767Y0370078D01*
X0186693Y0370358D01*
X0186626Y0370640D01*
X0186566Y0370924D01*
X0186513Y0371209D01*
X0186467Y0371495D01*
X0186428Y0371782D01*
X0186396Y0372070D01*
X0186371Y0372359D01*
X0186353Y0372648D01*
X0186343Y0372938D01*
X0186339Y0373228D01*
D11*
X0297048Y0190748D03*
X0304922Y0190748D03*
D12*
X0314371Y0211220D03*
X0287599Y0211220D03*
D13*
X0376182Y0210709D03*
X0376182Y0200866D03*
X0376182Y0191024D03*
X0389174Y0191024D03*
X0389174Y0200866D03*
X0389174Y0210709D03*
D14*
X0209095Y0297756D03*
X0199095Y0297756D03*
X0199095Y0307756D03*
X0209095Y0307756D03*
X0189095Y0307756D03*
X0189095Y0297756D03*
D15*
X0186339Y0019780D02*
X0186339Y0014630D01*
X0186339Y0035496D02*
X0186339Y0040646D01*
X0215080Y0040646D02*
X0215080Y0035496D01*
X0215080Y0019780D02*
X0215080Y0014630D01*
D16*
X0205827Y0030197D02*
X0205829Y0030281D01*
X0205835Y0030364D01*
X0205845Y0030447D01*
X0205859Y0030530D01*
X0205876Y0030612D01*
X0205898Y0030693D01*
X0205923Y0030772D01*
X0205952Y0030851D01*
X0205985Y0030928D01*
X0206021Y0031003D01*
X0206061Y0031077D01*
X0206104Y0031149D01*
X0206151Y0031218D01*
X0206201Y0031285D01*
X0206254Y0031350D01*
X0206310Y0031412D01*
X0206368Y0031472D01*
X0206430Y0031529D01*
X0206494Y0031582D01*
X0206561Y0031633D01*
X0206630Y0031680D01*
X0206701Y0031725D01*
X0206774Y0031765D01*
X0206849Y0031802D01*
X0206926Y0031836D01*
X0207004Y0031866D01*
X0207083Y0031892D01*
X0207164Y0031915D01*
X0207246Y0031933D01*
X0207328Y0031948D01*
X0207411Y0031959D01*
X0207494Y0031966D01*
X0207578Y0031969D01*
X0207662Y0031968D01*
X0207745Y0031963D01*
X0207829Y0031954D01*
X0207911Y0031941D01*
X0207993Y0031925D01*
X0208074Y0031904D01*
X0208155Y0031880D01*
X0208233Y0031852D01*
X0208311Y0031820D01*
X0208387Y0031784D01*
X0208461Y0031745D01*
X0208533Y0031703D01*
X0208603Y0031657D01*
X0208671Y0031608D01*
X0208736Y0031556D01*
X0208799Y0031501D01*
X0208859Y0031443D01*
X0208917Y0031382D01*
X0208971Y0031318D01*
X0209023Y0031252D01*
X0209071Y0031184D01*
X0209116Y0031113D01*
X0209157Y0031040D01*
X0209196Y0030966D01*
X0209230Y0030890D01*
X0209261Y0030812D01*
X0209288Y0030733D01*
X0209312Y0030652D01*
X0209331Y0030571D01*
X0209347Y0030489D01*
X0209359Y0030406D01*
X0209367Y0030322D01*
X0209371Y0030239D01*
X0209371Y0030155D01*
X0209367Y0030072D01*
X0209359Y0029988D01*
X0209347Y0029905D01*
X0209331Y0029823D01*
X0209312Y0029742D01*
X0209288Y0029661D01*
X0209261Y0029582D01*
X0209230Y0029504D01*
X0209196Y0029428D01*
X0209157Y0029354D01*
X0209116Y0029281D01*
X0209071Y0029210D01*
X0209023Y0029142D01*
X0208971Y0029076D01*
X0208917Y0029012D01*
X0208859Y0028951D01*
X0208799Y0028893D01*
X0208736Y0028838D01*
X0208671Y0028786D01*
X0208603Y0028737D01*
X0208533Y0028691D01*
X0208461Y0028649D01*
X0208387Y0028610D01*
X0208311Y0028574D01*
X0208233Y0028542D01*
X0208155Y0028514D01*
X0208074Y0028490D01*
X0207993Y0028469D01*
X0207911Y0028453D01*
X0207829Y0028440D01*
X0207745Y0028431D01*
X0207662Y0028426D01*
X0207578Y0028425D01*
X0207494Y0028428D01*
X0207411Y0028435D01*
X0207328Y0028446D01*
X0207246Y0028461D01*
X0207164Y0028479D01*
X0207083Y0028502D01*
X0207004Y0028528D01*
X0206926Y0028558D01*
X0206849Y0028592D01*
X0206774Y0028629D01*
X0206701Y0028669D01*
X0206630Y0028714D01*
X0206561Y0028761D01*
X0206494Y0028812D01*
X0206430Y0028865D01*
X0206368Y0028922D01*
X0206310Y0028982D01*
X0206254Y0029044D01*
X0206201Y0029109D01*
X0206151Y0029176D01*
X0206104Y0029245D01*
X0206061Y0029317D01*
X0206021Y0029391D01*
X0205985Y0029466D01*
X0205952Y0029543D01*
X0205923Y0029622D01*
X0205898Y0029701D01*
X0205876Y0029782D01*
X0205859Y0029864D01*
X0205845Y0029947D01*
X0205835Y0030030D01*
X0205829Y0030113D01*
X0205827Y0030197D01*
X0192048Y0030197D02*
X0192050Y0030281D01*
X0192056Y0030364D01*
X0192066Y0030447D01*
X0192080Y0030530D01*
X0192097Y0030612D01*
X0192119Y0030693D01*
X0192144Y0030772D01*
X0192173Y0030851D01*
X0192206Y0030928D01*
X0192242Y0031003D01*
X0192282Y0031077D01*
X0192325Y0031149D01*
X0192372Y0031218D01*
X0192422Y0031285D01*
X0192475Y0031350D01*
X0192531Y0031412D01*
X0192589Y0031472D01*
X0192651Y0031529D01*
X0192715Y0031582D01*
X0192782Y0031633D01*
X0192851Y0031680D01*
X0192922Y0031725D01*
X0192995Y0031765D01*
X0193070Y0031802D01*
X0193147Y0031836D01*
X0193225Y0031866D01*
X0193304Y0031892D01*
X0193385Y0031915D01*
X0193467Y0031933D01*
X0193549Y0031948D01*
X0193632Y0031959D01*
X0193715Y0031966D01*
X0193799Y0031969D01*
X0193883Y0031968D01*
X0193966Y0031963D01*
X0194050Y0031954D01*
X0194132Y0031941D01*
X0194214Y0031925D01*
X0194295Y0031904D01*
X0194376Y0031880D01*
X0194454Y0031852D01*
X0194532Y0031820D01*
X0194608Y0031784D01*
X0194682Y0031745D01*
X0194754Y0031703D01*
X0194824Y0031657D01*
X0194892Y0031608D01*
X0194957Y0031556D01*
X0195020Y0031501D01*
X0195080Y0031443D01*
X0195138Y0031382D01*
X0195192Y0031318D01*
X0195244Y0031252D01*
X0195292Y0031184D01*
X0195337Y0031113D01*
X0195378Y0031040D01*
X0195417Y0030966D01*
X0195451Y0030890D01*
X0195482Y0030812D01*
X0195509Y0030733D01*
X0195533Y0030652D01*
X0195552Y0030571D01*
X0195568Y0030489D01*
X0195580Y0030406D01*
X0195588Y0030322D01*
X0195592Y0030239D01*
X0195592Y0030155D01*
X0195588Y0030072D01*
X0195580Y0029988D01*
X0195568Y0029905D01*
X0195552Y0029823D01*
X0195533Y0029742D01*
X0195509Y0029661D01*
X0195482Y0029582D01*
X0195451Y0029504D01*
X0195417Y0029428D01*
X0195378Y0029354D01*
X0195337Y0029281D01*
X0195292Y0029210D01*
X0195244Y0029142D01*
X0195192Y0029076D01*
X0195138Y0029012D01*
X0195080Y0028951D01*
X0195020Y0028893D01*
X0194957Y0028838D01*
X0194892Y0028786D01*
X0194824Y0028737D01*
X0194754Y0028691D01*
X0194682Y0028649D01*
X0194608Y0028610D01*
X0194532Y0028574D01*
X0194454Y0028542D01*
X0194376Y0028514D01*
X0194295Y0028490D01*
X0194214Y0028469D01*
X0194132Y0028453D01*
X0194050Y0028440D01*
X0193966Y0028431D01*
X0193883Y0028426D01*
X0193799Y0028425D01*
X0193715Y0028428D01*
X0193632Y0028435D01*
X0193549Y0028446D01*
X0193467Y0028461D01*
X0193385Y0028479D01*
X0193304Y0028502D01*
X0193225Y0028528D01*
X0193147Y0028558D01*
X0193070Y0028592D01*
X0192995Y0028629D01*
X0192922Y0028669D01*
X0192851Y0028714D01*
X0192782Y0028761D01*
X0192715Y0028812D01*
X0192651Y0028865D01*
X0192589Y0028922D01*
X0192531Y0028982D01*
X0192475Y0029044D01*
X0192422Y0029109D01*
X0192372Y0029176D01*
X0192325Y0029245D01*
X0192282Y0029317D01*
X0192242Y0029391D01*
X0192206Y0029466D01*
X0192173Y0029543D01*
X0192144Y0029622D01*
X0192119Y0029701D01*
X0192097Y0029782D01*
X0192080Y0029864D01*
X0192066Y0029947D01*
X0192056Y0030030D01*
X0192050Y0030113D01*
X0192048Y0030197D01*
D17*
X0193820Y0030197D03*
X0207599Y0030197D03*
M02*
