G75*
%MOIN*%
%OFA0B0*%
%FSLAX25Y25*%
%IPPOS*%
%LPD*%
%AMOC8*
5,1,8,0,0,1.08239X$1,22.5*
%
%ADD10C,0.00600*%
%ADD11R,0.03937X0.18110*%
%ADD12R,0.06299X0.13386*%
%ADD13C,0.05543*%
%ADD14C,0.03969*%
%ADD15C,0.05150*%
%ADD16C,0.00000*%
%ADD17C,0.02578*%
D10*
X0062373Y0066938D02*
X0131152Y0066938D01*
X0130553Y0067536D02*
X0061731Y0067536D01*
X0061740Y0067527D02*
X0052356Y0077606D01*
X0043715Y0088328D01*
X0035861Y0099640D01*
X0028834Y0111483D01*
X0022670Y0123798D01*
X0017400Y0136521D01*
X0013051Y0149587D01*
X0009646Y0162930D01*
X0007201Y0176483D01*
X0005729Y0190175D01*
X0005237Y0203937D01*
X0005729Y0217699D01*
X0007201Y0231391D01*
X0009646Y0244944D01*
X0013051Y0258287D01*
X0017400Y0271353D01*
X0022670Y0284076D01*
X0028834Y0296391D01*
X0035861Y0308234D01*
X0043715Y0319546D01*
X0052356Y0330268D01*
X0061740Y0340347D01*
X0071819Y0349731D01*
X0082542Y0358372D01*
X0093854Y0366226D01*
X0105697Y0373253D01*
X0118011Y0379417D01*
X0130734Y0384687D01*
X0143800Y0389036D01*
X0157144Y0392442D01*
X0170696Y0394887D01*
X0184388Y0396359D01*
X0198150Y0396850D01*
X0211913Y0396359D01*
X0225605Y0394887D01*
X0239157Y0392442D01*
X0252500Y0389036D01*
X0265567Y0384687D01*
X0278290Y0379417D01*
X0290604Y0373253D01*
X0302447Y0366226D01*
X0313759Y0358372D01*
X0324482Y0349731D01*
X0334561Y0340347D01*
X0343945Y0330268D01*
X0352586Y0319546D01*
X0360439Y0308234D01*
X0367466Y0296391D01*
X0373631Y0284076D01*
X0378901Y0271353D01*
X0383249Y0258287D01*
X0386655Y0244944D01*
X0389100Y0231391D01*
X0390572Y0217699D01*
X0390703Y0214050D01*
X0389904Y0214380D01*
X0388444Y0214380D01*
X0387094Y0213821D01*
X0386061Y0212788D01*
X0385853Y0212287D01*
X0379502Y0212287D01*
X0379295Y0212788D01*
X0378262Y0213821D01*
X0376912Y0214380D01*
X0375452Y0214380D01*
X0374102Y0213821D01*
X0373069Y0212788D01*
X0372613Y0211687D01*
X0324803Y0211687D01*
X0318420Y0205304D01*
X0318420Y0218286D01*
X0317893Y0218813D01*
X0310848Y0218813D01*
X0310321Y0218286D01*
X0310321Y0204155D01*
X0310848Y0203628D01*
X0316744Y0203628D01*
X0315203Y0202087D01*
X0302003Y0202087D01*
X0299917Y0200000D01*
X0299917Y0200176D01*
X0299389Y0200703D01*
X0294707Y0200703D01*
X0294180Y0200176D01*
X0294180Y0181320D01*
X0294707Y0180793D01*
X0298109Y0180793D01*
X0263603Y0146287D01*
X0250996Y0146287D01*
X0251289Y0146580D01*
X0251289Y0148393D01*
X0250007Y0149676D01*
X0248608Y0149676D01*
X0233397Y0164887D01*
X0235804Y0164887D01*
X0236793Y0163898D01*
X0238607Y0163898D01*
X0239889Y0165180D01*
X0239889Y0166993D01*
X0238607Y0168276D01*
X0236793Y0168276D01*
X0235804Y0167287D01*
X0232797Y0167287D01*
X0214586Y0185498D01*
X0215207Y0185498D01*
X0216489Y0186780D01*
X0216489Y0188593D01*
X0215500Y0189582D01*
X0215500Y0278784D01*
X0199412Y0294872D01*
X0199669Y0294872D01*
X0200729Y0295311D01*
X0201540Y0296122D01*
X0201980Y0297182D01*
X0201980Y0298330D01*
X0201852Y0298638D01*
X0220300Y0280190D01*
X0220300Y0197382D01*
X0219311Y0196393D01*
X0219311Y0194580D01*
X0220593Y0193298D01*
X0222407Y0193298D01*
X0223689Y0194580D01*
X0223689Y0196393D01*
X0222700Y0197382D01*
X0222700Y0199591D01*
X0222993Y0199298D01*
X0224807Y0199298D01*
X0226089Y0200580D01*
X0226089Y0202393D01*
X0225100Y0203382D01*
X0225100Y0283584D01*
X0211839Y0296844D01*
X0211980Y0297182D01*
X0211980Y0298330D01*
X0211822Y0298711D01*
X0252100Y0338990D01*
X0252100Y0344191D01*
X0253089Y0345180D01*
X0253089Y0346993D01*
X0251807Y0348276D01*
X0249993Y0348276D01*
X0248711Y0346993D01*
X0248711Y0345180D01*
X0249700Y0344191D01*
X0249700Y0339984D01*
X0210155Y0300439D01*
X0209669Y0300640D01*
X0208522Y0300640D01*
X0207461Y0300201D01*
X0206650Y0299390D01*
X0206211Y0298330D01*
X0206211Y0297673D01*
X0200500Y0303384D01*
X0200500Y0305216D01*
X0200729Y0305311D01*
X0201540Y0306122D01*
X0201980Y0307182D01*
X0201980Y0308330D01*
X0201540Y0309390D01*
X0201443Y0309487D01*
X0206003Y0309487D01*
X0206489Y0309001D01*
X0206211Y0308330D01*
X0206211Y0307182D01*
X0206650Y0306122D01*
X0207461Y0305311D01*
X0208522Y0304872D01*
X0209669Y0304872D01*
X0210729Y0305311D01*
X0211540Y0306122D01*
X0211980Y0307182D01*
X0211980Y0308330D01*
X0211540Y0309390D01*
X0210729Y0310201D01*
X0209669Y0310640D01*
X0208522Y0310640D01*
X0208325Y0310559D01*
X0206997Y0311887D01*
X0197003Y0311887D01*
X0196300Y0311184D01*
X0194500Y0309384D01*
X0194500Y0296390D01*
X0195203Y0295687D01*
X0213100Y0277790D01*
X0213100Y0189582D01*
X0212111Y0188593D01*
X0212111Y0187973D01*
X0211900Y0188184D01*
X0211900Y0207384D01*
X0203289Y0215995D01*
X0203289Y0217393D01*
X0202007Y0218676D01*
X0200193Y0218676D01*
X0198911Y0217393D01*
X0198911Y0215580D01*
X0200193Y0214298D01*
X0201592Y0214298D01*
X0209500Y0206390D01*
X0209500Y0203784D01*
X0197289Y0215995D01*
X0197289Y0217393D01*
X0196007Y0218676D01*
X0194193Y0218676D01*
X0192911Y0217393D01*
X0192911Y0215580D01*
X0194193Y0214298D01*
X0195592Y0214298D01*
X0206814Y0203076D01*
X0206193Y0203076D01*
X0204911Y0201793D01*
X0204911Y0201487D01*
X0179596Y0201487D01*
X0178607Y0202476D01*
X0176793Y0202476D01*
X0175511Y0201193D01*
X0175511Y0199380D01*
X0176793Y0198098D01*
X0178607Y0198098D01*
X0179596Y0199087D01*
X0205804Y0199087D01*
X0206193Y0198698D01*
X0208007Y0198698D01*
X0208300Y0198991D01*
X0208300Y0186590D01*
X0246911Y0147979D01*
X0246911Y0146580D01*
X0247204Y0146287D01*
X0206603Y0146287D01*
X0206392Y0146076D01*
X0204993Y0146076D01*
X0204004Y0145087D01*
X0202996Y0145087D01*
X0202007Y0146076D01*
X0200193Y0146076D01*
X0198911Y0144793D01*
X0198911Y0142980D01*
X0199204Y0142687D01*
X0197997Y0142687D01*
X0161289Y0179395D01*
X0161289Y0180793D01*
X0160007Y0182076D01*
X0158193Y0182076D01*
X0156911Y0180793D01*
X0156911Y0178980D01*
X0158193Y0177698D01*
X0159592Y0177698D01*
X0196300Y0140990D01*
X0196300Y0140990D01*
X0197003Y0140287D01*
X0212397Y0140287D01*
X0213311Y0141201D01*
X0213311Y0140995D01*
X0210203Y0137887D01*
X0204196Y0137887D01*
X0203207Y0138876D01*
X0201393Y0138876D01*
X0200111Y0137593D01*
X0200111Y0136973D01*
X0190797Y0146287D01*
X0187996Y0146287D01*
X0187007Y0147276D01*
X0185193Y0147276D01*
X0183911Y0145993D01*
X0183911Y0144595D01*
X0180803Y0141487D01*
X0127996Y0141487D01*
X0127007Y0142476D01*
X0125193Y0142476D01*
X0123911Y0141193D01*
X0123911Y0139380D01*
X0125193Y0138098D01*
X0127007Y0138098D01*
X0127996Y0139087D01*
X0180803Y0139087D01*
X0181797Y0139087D01*
X0185608Y0142898D01*
X0187007Y0142898D01*
X0187996Y0143887D01*
X0189803Y0143887D01*
X0203500Y0130190D01*
X0204203Y0129487D01*
X0248404Y0129487D01*
X0249393Y0128498D01*
X0250792Y0128498D01*
X0254003Y0125287D01*
X0269397Y0125287D01*
X0270100Y0125990D01*
X0343197Y0199087D01*
X0372945Y0199087D01*
X0373069Y0198786D01*
X0374102Y0197753D01*
X0375452Y0197194D01*
X0376912Y0197194D01*
X0378262Y0197753D01*
X0379295Y0198786D01*
X0379667Y0199687D01*
X0385688Y0199687D01*
X0386061Y0198786D01*
X0387094Y0197753D01*
X0388444Y0197194D01*
X0389904Y0197194D01*
X0390837Y0197581D01*
X0390722Y0194357D01*
X0389904Y0194695D01*
X0388444Y0194695D01*
X0387094Y0194136D01*
X0386061Y0193103D01*
X0385806Y0192487D01*
X0379550Y0192487D01*
X0379295Y0193103D01*
X0378262Y0194136D01*
X0376912Y0194695D01*
X0375452Y0194695D01*
X0374102Y0194136D01*
X0373069Y0193103D01*
X0372510Y0191754D01*
X0372510Y0190293D01*
X0372832Y0189516D01*
X0230003Y0046687D01*
X0196396Y0046687D01*
X0195407Y0047676D01*
X0193593Y0047676D01*
X0192311Y0046393D01*
X0192311Y0044580D01*
X0193593Y0043298D01*
X0195407Y0043298D01*
X0196396Y0044287D01*
X0230997Y0044287D01*
X0374469Y0187759D01*
X0375452Y0187352D01*
X0376912Y0187352D01*
X0378262Y0187911D01*
X0379295Y0188944D01*
X0379768Y0190087D01*
X0385588Y0190087D01*
X0386061Y0188944D01*
X0387094Y0187911D01*
X0388444Y0187352D01*
X0389904Y0187352D01*
X0390286Y0187510D01*
X0389100Y0176483D01*
X0386655Y0162930D01*
X0383249Y0149587D01*
X0378901Y0136521D01*
X0373631Y0123798D01*
X0367466Y0111483D01*
X0360439Y0099640D01*
X0352586Y0088328D01*
X0343945Y0077606D01*
X0334561Y0067527D01*
X0324482Y0058143D01*
X0313759Y0049502D01*
X0302447Y0041648D01*
X0290604Y0034621D01*
X0278290Y0028457D01*
X0265567Y0023187D01*
X0252500Y0018838D01*
X0239157Y0015432D01*
X0225605Y0012987D01*
X0217477Y0012113D01*
X0218025Y0012662D01*
X0218554Y0013939D01*
X0218554Y0020471D01*
X0218025Y0021748D01*
X0217048Y0022725D01*
X0215771Y0023254D01*
X0214388Y0023254D01*
X0213111Y0022725D01*
X0212134Y0021748D01*
X0211605Y0020471D01*
X0211605Y0013939D01*
X0212134Y0012662D01*
X0213111Y0011684D01*
X0213188Y0011652D01*
X0211913Y0011515D01*
X0198150Y0011024D01*
X0187621Y0011400D01*
X0188308Y0011684D01*
X0189285Y0012662D01*
X0189814Y0013939D01*
X0189814Y0020471D01*
X0189285Y0021748D01*
X0188308Y0022725D01*
X0187031Y0023254D01*
X0185648Y0023254D01*
X0184371Y0022725D01*
X0183394Y0021748D01*
X0182865Y0020471D01*
X0182865Y0013939D01*
X0183394Y0012662D01*
X0184371Y0011684D01*
X0184816Y0011500D01*
X0184388Y0011515D01*
X0170696Y0012987D01*
X0157144Y0015432D01*
X0143800Y0018838D01*
X0130734Y0023187D01*
X0118011Y0028457D01*
X0105697Y0034621D01*
X0093854Y0041648D01*
X0082542Y0049502D01*
X0071819Y0058143D01*
X0061740Y0067527D01*
X0061174Y0068135D02*
X0129955Y0068135D01*
X0129356Y0068733D02*
X0060617Y0068733D01*
X0060059Y0069332D02*
X0128758Y0069332D01*
X0128159Y0069930D02*
X0059502Y0069930D01*
X0058945Y0070529D02*
X0127561Y0070529D01*
X0126962Y0071127D02*
X0058388Y0071127D01*
X0057830Y0071726D02*
X0126364Y0071726D01*
X0125765Y0072324D02*
X0057273Y0072324D01*
X0056716Y0072923D02*
X0125167Y0072923D01*
X0124568Y0073521D02*
X0056159Y0073521D01*
X0055602Y0074120D02*
X0123970Y0074120D01*
X0123371Y0074718D02*
X0055044Y0074718D01*
X0054487Y0075317D02*
X0122773Y0075317D01*
X0122174Y0075915D02*
X0053930Y0075915D01*
X0053373Y0076514D02*
X0121576Y0076514D01*
X0120977Y0077112D02*
X0052815Y0077112D01*
X0052271Y0077711D02*
X0120379Y0077711D01*
X0119780Y0078309D02*
X0051789Y0078309D01*
X0051307Y0078908D02*
X0119182Y0078908D01*
X0118583Y0079506D02*
X0050824Y0079506D01*
X0050342Y0080105D02*
X0117985Y0080105D01*
X0117386Y0080704D02*
X0049860Y0080704D01*
X0049377Y0081302D02*
X0116788Y0081302D01*
X0116189Y0081901D02*
X0048895Y0081901D01*
X0048413Y0082499D02*
X0115591Y0082499D01*
X0114992Y0083098D02*
X0047930Y0083098D01*
X0047448Y0083696D02*
X0114393Y0083696D01*
X0113795Y0084295D02*
X0046966Y0084295D01*
X0046484Y0084893D02*
X0113196Y0084893D01*
X0112598Y0085492D02*
X0046001Y0085492D01*
X0045519Y0086090D02*
X0111999Y0086090D01*
X0111401Y0086689D02*
X0045037Y0086689D01*
X0044554Y0087287D02*
X0110802Y0087287D01*
X0110204Y0087886D02*
X0044072Y0087886D01*
X0043607Y0088484D02*
X0109605Y0088484D01*
X0109007Y0089083D02*
X0043192Y0089083D01*
X0042776Y0089681D02*
X0108408Y0089681D01*
X0107810Y0090280D02*
X0042360Y0090280D01*
X0041945Y0090878D02*
X0107211Y0090878D01*
X0106613Y0091477D02*
X0041529Y0091477D01*
X0041114Y0092075D02*
X0106014Y0092075D01*
X0105416Y0092674D02*
X0040698Y0092674D01*
X0040283Y0093272D02*
X0104817Y0093272D01*
X0104219Y0093871D02*
X0039867Y0093871D01*
X0039452Y0094469D02*
X0103620Y0094469D01*
X0103022Y0095068D02*
X0039036Y0095068D01*
X0038620Y0095666D02*
X0102423Y0095666D01*
X0101825Y0096265D02*
X0038205Y0096265D01*
X0037789Y0096863D02*
X0101226Y0096863D01*
X0100900Y0097190D02*
X0132311Y0065779D01*
X0132311Y0064380D01*
X0133593Y0063098D01*
X0135407Y0063098D01*
X0136689Y0064380D01*
X0136689Y0066193D01*
X0135407Y0067476D01*
X0134008Y0067476D01*
X0103300Y0098184D01*
X0103300Y0144590D01*
X0144597Y0185887D01*
X0183604Y0185887D01*
X0184593Y0184898D01*
X0186407Y0184898D01*
X0187689Y0186180D01*
X0187689Y0187993D01*
X0186407Y0189276D01*
X0184593Y0189276D01*
X0183604Y0188287D01*
X0144597Y0188287D01*
X0143603Y0188287D01*
X0101603Y0146287D01*
X0100900Y0145584D01*
X0100900Y0097190D01*
X0100900Y0097462D02*
X0037374Y0097462D01*
X0036958Y0098060D02*
X0100900Y0098060D01*
X0100900Y0098659D02*
X0036543Y0098659D01*
X0036127Y0099257D02*
X0100900Y0099257D01*
X0100900Y0099856D02*
X0035733Y0099856D01*
X0035378Y0100454D02*
X0100900Y0100454D01*
X0100900Y0101053D02*
X0035023Y0101053D01*
X0034668Y0101651D02*
X0100900Y0101651D01*
X0100900Y0102250D02*
X0034313Y0102250D01*
X0033958Y0102848D02*
X0100900Y0102848D01*
X0100900Y0103447D02*
X0033603Y0103447D01*
X0033248Y0104045D02*
X0100900Y0104045D01*
X0100900Y0104644D02*
X0032892Y0104644D01*
X0032537Y0105242D02*
X0100900Y0105242D01*
X0100900Y0105841D02*
X0032182Y0105841D01*
X0031827Y0106439D02*
X0100900Y0106439D01*
X0100900Y0107038D02*
X0031472Y0107038D01*
X0031117Y0107637D02*
X0100900Y0107637D01*
X0100900Y0108235D02*
X0030762Y0108235D01*
X0030407Y0108834D02*
X0100900Y0108834D01*
X0100900Y0109432D02*
X0030052Y0109432D01*
X0029696Y0110031D02*
X0100900Y0110031D01*
X0100900Y0110629D02*
X0029341Y0110629D01*
X0028986Y0111228D02*
X0100900Y0111228D01*
X0100900Y0111826D02*
X0028663Y0111826D01*
X0028363Y0112425D02*
X0100900Y0112425D01*
X0100900Y0113023D02*
X0028064Y0113023D01*
X0027764Y0113622D02*
X0100900Y0113622D01*
X0100900Y0114220D02*
X0027464Y0114220D01*
X0027165Y0114819D02*
X0100900Y0114819D01*
X0100900Y0115417D02*
X0026865Y0115417D01*
X0026566Y0116016D02*
X0100900Y0116016D01*
X0100900Y0116614D02*
X0026266Y0116614D01*
X0025967Y0117213D02*
X0100900Y0117213D01*
X0100900Y0117811D02*
X0025667Y0117811D01*
X0025367Y0118410D02*
X0100900Y0118410D01*
X0100900Y0119008D02*
X0025068Y0119008D01*
X0024768Y0119607D02*
X0100900Y0119607D01*
X0100900Y0120205D02*
X0024469Y0120205D01*
X0024169Y0120804D02*
X0100900Y0120804D01*
X0100900Y0121402D02*
X0023869Y0121402D01*
X0023570Y0122001D02*
X0100900Y0122001D01*
X0100900Y0122599D02*
X0023270Y0122599D01*
X0022971Y0123198D02*
X0100900Y0123198D01*
X0100900Y0123796D02*
X0022671Y0123796D01*
X0022423Y0124395D02*
X0100900Y0124395D01*
X0100900Y0124993D02*
X0022175Y0124993D01*
X0021927Y0125592D02*
X0100900Y0125592D01*
X0100900Y0126190D02*
X0021679Y0126190D01*
X0021431Y0126789D02*
X0100900Y0126789D01*
X0100900Y0127387D02*
X0021183Y0127387D01*
X0020935Y0127986D02*
X0100900Y0127986D01*
X0100900Y0128584D02*
X0020688Y0128584D01*
X0020440Y0129183D02*
X0100900Y0129183D01*
X0100900Y0129781D02*
X0020192Y0129781D01*
X0019944Y0130380D02*
X0100900Y0130380D01*
X0100900Y0130978D02*
X0019696Y0130978D01*
X0019448Y0131577D02*
X0100900Y0131577D01*
X0100900Y0132175D02*
X0019200Y0132175D01*
X0018952Y0132774D02*
X0100900Y0132774D01*
X0100900Y0133373D02*
X0018704Y0133373D01*
X0018456Y0133971D02*
X0100900Y0133971D01*
X0100900Y0134570D02*
X0018208Y0134570D01*
X0017961Y0135168D02*
X0100900Y0135168D01*
X0100900Y0135767D02*
X0017713Y0135767D01*
X0017465Y0136365D02*
X0100900Y0136365D01*
X0100900Y0136964D02*
X0017253Y0136964D01*
X0017054Y0137562D02*
X0100900Y0137562D01*
X0100900Y0138161D02*
X0016854Y0138161D01*
X0016655Y0138759D02*
X0100900Y0138759D01*
X0100900Y0139358D02*
X0016456Y0139358D01*
X0016257Y0139956D02*
X0100900Y0139956D01*
X0100900Y0140555D02*
X0016058Y0140555D01*
X0015858Y0141153D02*
X0100900Y0141153D01*
X0100900Y0141752D02*
X0015659Y0141752D01*
X0015460Y0142350D02*
X0100900Y0142350D01*
X0100900Y0142949D02*
X0015261Y0142949D01*
X0015062Y0143547D02*
X0100900Y0143547D01*
X0100900Y0144146D02*
X0014862Y0144146D01*
X0014663Y0144744D02*
X0100900Y0144744D01*
X0100900Y0145343D02*
X0014464Y0145343D01*
X0014265Y0145941D02*
X0101258Y0145941D01*
X0101856Y0146540D02*
X0014066Y0146540D01*
X0013866Y0147138D02*
X0102455Y0147138D01*
X0103053Y0147737D02*
X0013667Y0147737D01*
X0013468Y0148335D02*
X0103652Y0148335D01*
X0104250Y0148934D02*
X0013269Y0148934D01*
X0013070Y0149532D02*
X0104849Y0149532D01*
X0105447Y0150131D02*
X0012913Y0150131D01*
X0012760Y0150729D02*
X0106046Y0150729D01*
X0106644Y0151328D02*
X0012607Y0151328D01*
X0012454Y0151926D02*
X0107243Y0151926D01*
X0107841Y0152525D02*
X0012302Y0152525D01*
X0012149Y0153123D02*
X0108440Y0153123D01*
X0109038Y0153722D02*
X0011996Y0153722D01*
X0011843Y0154320D02*
X0109637Y0154320D01*
X0110235Y0154919D02*
X0011690Y0154919D01*
X0011538Y0155517D02*
X0110834Y0155517D01*
X0111432Y0156116D02*
X0011385Y0156116D01*
X0011232Y0156714D02*
X0112031Y0156714D01*
X0112629Y0157313D02*
X0011079Y0157313D01*
X0010927Y0157911D02*
X0113228Y0157911D01*
X0113826Y0158510D02*
X0010774Y0158510D01*
X0010621Y0159108D02*
X0114425Y0159108D01*
X0115023Y0159707D02*
X0010468Y0159707D01*
X0010316Y0160306D02*
X0115622Y0160306D01*
X0116220Y0160904D02*
X0010163Y0160904D01*
X0010010Y0161503D02*
X0116819Y0161503D01*
X0117417Y0162101D02*
X0009857Y0162101D01*
X0009705Y0162700D02*
X0118016Y0162700D01*
X0118614Y0163298D02*
X0009579Y0163298D01*
X0009471Y0163897D02*
X0119213Y0163897D01*
X0119811Y0164495D02*
X0009363Y0164495D01*
X0009255Y0165094D02*
X0120410Y0165094D01*
X0121008Y0165692D02*
X0009147Y0165692D01*
X0009039Y0166291D02*
X0121607Y0166291D01*
X0122205Y0166889D02*
X0008931Y0166889D01*
X0008823Y0167488D02*
X0122804Y0167488D01*
X0123402Y0168086D02*
X0008715Y0168086D01*
X0008607Y0168685D02*
X0124001Y0168685D01*
X0124600Y0169283D02*
X0008500Y0169283D01*
X0008392Y0169882D02*
X0125198Y0169882D01*
X0125797Y0170480D02*
X0008284Y0170480D01*
X0008176Y0171079D02*
X0126395Y0171079D01*
X0126994Y0171677D02*
X0008068Y0171677D01*
X0007960Y0172276D02*
X0127592Y0172276D01*
X0128191Y0172874D02*
X0007852Y0172874D01*
X0007744Y0173473D02*
X0128789Y0173473D01*
X0129388Y0174071D02*
X0007636Y0174071D01*
X0007528Y0174670D02*
X0129986Y0174670D01*
X0130585Y0175268D02*
X0007420Y0175268D01*
X0007312Y0175867D02*
X0131183Y0175867D01*
X0131782Y0176465D02*
X0007204Y0176465D01*
X0007138Y0177064D02*
X0132380Y0177064D01*
X0132979Y0177662D02*
X0007074Y0177662D01*
X0007009Y0178261D02*
X0133577Y0178261D01*
X0134176Y0178859D02*
X0006945Y0178859D01*
X0006881Y0179458D02*
X0134774Y0179458D01*
X0135373Y0180056D02*
X0006816Y0180056D01*
X0006752Y0180655D02*
X0135971Y0180655D01*
X0136570Y0181253D02*
X0006688Y0181253D01*
X0006623Y0181852D02*
X0137168Y0181852D01*
X0137767Y0182450D02*
X0006559Y0182450D01*
X0006495Y0183049D02*
X0138365Y0183049D01*
X0138964Y0183647D02*
X0006430Y0183647D01*
X0006366Y0184246D02*
X0139562Y0184246D01*
X0140161Y0184844D02*
X0006302Y0184844D01*
X0006237Y0185443D02*
X0140759Y0185443D01*
X0141358Y0186041D02*
X0006173Y0186041D01*
X0006109Y0186640D02*
X0141956Y0186640D01*
X0142555Y0187239D02*
X0006044Y0187239D01*
X0005980Y0187837D02*
X0143153Y0187837D01*
X0144100Y0187087D02*
X0102100Y0145087D01*
X0102100Y0097687D01*
X0134500Y0065287D01*
X0135945Y0066938D02*
X0250254Y0066938D01*
X0250853Y0067536D02*
X0133947Y0067536D01*
X0133349Y0068135D02*
X0251451Y0068135D01*
X0252050Y0068733D02*
X0132750Y0068733D01*
X0132152Y0069332D02*
X0252648Y0069332D01*
X0253247Y0069930D02*
X0131553Y0069930D01*
X0130955Y0070529D02*
X0253845Y0070529D01*
X0254444Y0071127D02*
X0130356Y0071127D01*
X0129758Y0071726D02*
X0255042Y0071726D01*
X0255641Y0072324D02*
X0129159Y0072324D01*
X0128561Y0072923D02*
X0256239Y0072923D01*
X0256838Y0073521D02*
X0127962Y0073521D01*
X0127364Y0074120D02*
X0257436Y0074120D01*
X0258035Y0074718D02*
X0126765Y0074718D01*
X0126167Y0075317D02*
X0258633Y0075317D01*
X0259232Y0075915D02*
X0125568Y0075915D01*
X0124970Y0076514D02*
X0259830Y0076514D01*
X0260429Y0077112D02*
X0124371Y0077112D01*
X0123773Y0077711D02*
X0261027Y0077711D01*
X0261626Y0078309D02*
X0123174Y0078309D01*
X0122576Y0078908D02*
X0262224Y0078908D01*
X0262823Y0079506D02*
X0121977Y0079506D01*
X0121379Y0080105D02*
X0263421Y0080105D01*
X0264020Y0080704D02*
X0120780Y0080704D01*
X0120182Y0081302D02*
X0264618Y0081302D01*
X0265217Y0081901D02*
X0119583Y0081901D01*
X0118985Y0082499D02*
X0265815Y0082499D01*
X0266414Y0083098D02*
X0118386Y0083098D01*
X0117788Y0083696D02*
X0267012Y0083696D01*
X0267611Y0084295D02*
X0117189Y0084295D01*
X0116591Y0084893D02*
X0268209Y0084893D01*
X0268808Y0085492D02*
X0115992Y0085492D01*
X0115394Y0086090D02*
X0269406Y0086090D01*
X0270005Y0086689D02*
X0114795Y0086689D01*
X0114197Y0087287D02*
X0270603Y0087287D01*
X0271202Y0087886D02*
X0113598Y0087886D01*
X0112999Y0088484D02*
X0271800Y0088484D01*
X0272399Y0089083D02*
X0112401Y0089083D01*
X0111802Y0089681D02*
X0272998Y0089681D01*
X0273596Y0090280D02*
X0111204Y0090280D01*
X0110605Y0090878D02*
X0274195Y0090878D01*
X0274793Y0091477D02*
X0110007Y0091477D01*
X0109408Y0092075D02*
X0275392Y0092075D01*
X0275990Y0092674D02*
X0108810Y0092674D01*
X0108211Y0093272D02*
X0276589Y0093272D01*
X0277187Y0093871D02*
X0107613Y0093871D01*
X0107014Y0094469D02*
X0277786Y0094469D01*
X0278384Y0095068D02*
X0106416Y0095068D01*
X0105817Y0095666D02*
X0278983Y0095666D01*
X0279581Y0096265D02*
X0105219Y0096265D01*
X0104620Y0096863D02*
X0280180Y0096863D01*
X0280778Y0097462D02*
X0104022Y0097462D01*
X0103423Y0098060D02*
X0281377Y0098060D01*
X0281975Y0098659D02*
X0103300Y0098659D01*
X0103300Y0099257D02*
X0282574Y0099257D01*
X0283172Y0099856D02*
X0103300Y0099856D01*
X0103300Y0100454D02*
X0283771Y0100454D01*
X0284369Y0101053D02*
X0103300Y0101053D01*
X0103300Y0101651D02*
X0284968Y0101651D01*
X0285566Y0102250D02*
X0103300Y0102250D01*
X0103300Y0102848D02*
X0286165Y0102848D01*
X0286763Y0103447D02*
X0103300Y0103447D01*
X0103300Y0104045D02*
X0287362Y0104045D01*
X0287960Y0104644D02*
X0103300Y0104644D01*
X0103300Y0105242D02*
X0288559Y0105242D01*
X0289157Y0105841D02*
X0103300Y0105841D01*
X0103300Y0106439D02*
X0289756Y0106439D01*
X0290354Y0107038D02*
X0103300Y0107038D01*
X0103300Y0107637D02*
X0290953Y0107637D01*
X0291551Y0108235D02*
X0103300Y0108235D01*
X0103300Y0108834D02*
X0292150Y0108834D01*
X0292748Y0109432D02*
X0103300Y0109432D01*
X0103300Y0110031D02*
X0293347Y0110031D01*
X0293945Y0110629D02*
X0103300Y0110629D01*
X0103300Y0111228D02*
X0294544Y0111228D01*
X0295142Y0111826D02*
X0103300Y0111826D01*
X0103300Y0112425D02*
X0295741Y0112425D01*
X0296339Y0113023D02*
X0103300Y0113023D01*
X0103300Y0113622D02*
X0296938Y0113622D01*
X0297536Y0114220D02*
X0103300Y0114220D01*
X0103300Y0114819D02*
X0298135Y0114819D01*
X0298734Y0115417D02*
X0103300Y0115417D01*
X0103300Y0116016D02*
X0299332Y0116016D01*
X0299931Y0116614D02*
X0103300Y0116614D01*
X0103300Y0117213D02*
X0300529Y0117213D01*
X0301128Y0117811D02*
X0103300Y0117811D01*
X0103300Y0118410D02*
X0301726Y0118410D01*
X0302325Y0119008D02*
X0103300Y0119008D01*
X0103300Y0119607D02*
X0302923Y0119607D01*
X0303522Y0120205D02*
X0103300Y0120205D01*
X0103300Y0120804D02*
X0304120Y0120804D01*
X0304719Y0121402D02*
X0103300Y0121402D01*
X0103300Y0122001D02*
X0305317Y0122001D01*
X0305916Y0122599D02*
X0103300Y0122599D01*
X0103300Y0123198D02*
X0306514Y0123198D01*
X0307113Y0123796D02*
X0103300Y0123796D01*
X0103300Y0124395D02*
X0307711Y0124395D01*
X0308310Y0124993D02*
X0103300Y0124993D01*
X0103300Y0125592D02*
X0253698Y0125592D01*
X0253099Y0126190D02*
X0103300Y0126190D01*
X0103300Y0126789D02*
X0252501Y0126789D01*
X0251902Y0127387D02*
X0103300Y0127387D01*
X0103300Y0127986D02*
X0251304Y0127986D01*
X0249307Y0128584D02*
X0103300Y0128584D01*
X0103300Y0129183D02*
X0248708Y0129183D01*
X0250300Y0130687D02*
X0254500Y0126487D01*
X0268900Y0126487D01*
X0342700Y0200287D01*
X0375700Y0200287D01*
X0376182Y0200866D01*
X0376300Y0200887D01*
X0388900Y0200887D01*
X0389174Y0200866D01*
X0385753Y0202201D02*
X0379603Y0202201D01*
X0379651Y0202087D02*
X0379295Y0202946D01*
X0378262Y0203979D01*
X0376912Y0204538D01*
X0375452Y0204538D01*
X0374102Y0203979D01*
X0373069Y0202946D01*
X0372510Y0201596D01*
X0372510Y0201487D01*
X0342203Y0201487D01*
X0269889Y0129173D01*
X0269889Y0129793D01*
X0268607Y0131076D01*
X0266793Y0131076D01*
X0265804Y0130087D01*
X0264597Y0130087D01*
X0263186Y0131498D01*
X0263807Y0131498D01*
X0265089Y0132780D01*
X0265089Y0134593D01*
X0264100Y0135582D01*
X0264100Y0143887D01*
X0264597Y0143887D01*
X0265300Y0144590D01*
X0302054Y0181343D01*
X0302054Y0181320D01*
X0302581Y0180793D01*
X0307263Y0180793D01*
X0307791Y0181320D01*
X0307791Y0199687D01*
X0316197Y0199687D01*
X0316900Y0200390D01*
X0325797Y0209287D01*
X0372797Y0209287D01*
X0373069Y0208629D01*
X0374102Y0207596D01*
X0375452Y0207037D01*
X0376912Y0207037D01*
X0378262Y0207596D01*
X0379295Y0208629D01*
X0379816Y0209887D01*
X0385540Y0209887D01*
X0386061Y0208629D01*
X0387094Y0207596D01*
X0388444Y0207037D01*
X0389904Y0207037D01*
X0390938Y0207465D01*
X0391059Y0204059D01*
X0389904Y0204538D01*
X0388444Y0204538D01*
X0387094Y0203979D01*
X0386061Y0202946D01*
X0385705Y0202087D01*
X0379651Y0202087D01*
X0379355Y0202800D02*
X0386001Y0202800D01*
X0386514Y0203398D02*
X0378842Y0203398D01*
X0378218Y0203997D02*
X0387138Y0203997D01*
X0387114Y0207588D02*
X0378242Y0207588D01*
X0378852Y0208186D02*
X0386504Y0208186D01*
X0385997Y0208785D02*
X0379359Y0208785D01*
X0379607Y0209383D02*
X0385749Y0209383D01*
X0385890Y0212376D02*
X0379465Y0212376D01*
X0379109Y0212975D02*
X0386247Y0212975D01*
X0386846Y0213573D02*
X0378510Y0213573D01*
X0377416Y0214172D02*
X0387940Y0214172D01*
X0390408Y0214172D02*
X0390698Y0214172D01*
X0390677Y0214770D02*
X0318420Y0214770D01*
X0318420Y0214172D02*
X0374948Y0214172D01*
X0373854Y0213573D02*
X0318420Y0213573D01*
X0318420Y0212975D02*
X0373255Y0212975D01*
X0372898Y0212376D02*
X0318420Y0212376D01*
X0318420Y0211777D02*
X0372650Y0211777D01*
X0373005Y0208785D02*
X0325295Y0208785D01*
X0324697Y0208186D02*
X0373512Y0208186D01*
X0374122Y0207588D02*
X0324098Y0207588D01*
X0323500Y0206989D02*
X0390955Y0206989D01*
X0390976Y0206391D02*
X0322901Y0206391D01*
X0322303Y0205792D02*
X0390998Y0205792D01*
X0391019Y0205194D02*
X0321704Y0205194D01*
X0321106Y0204595D02*
X0391040Y0204595D01*
X0390831Y0197413D02*
X0390432Y0197413D01*
X0390809Y0196815D02*
X0340925Y0196815D01*
X0341524Y0197413D02*
X0374923Y0197413D01*
X0373844Y0198012D02*
X0342122Y0198012D01*
X0342721Y0198610D02*
X0373245Y0198610D01*
X0372513Y0201603D02*
X0318113Y0201603D01*
X0317515Y0201004D02*
X0341721Y0201004D01*
X0341122Y0200406D02*
X0316916Y0200406D01*
X0316318Y0199807D02*
X0340524Y0199807D01*
X0339925Y0199209D02*
X0307791Y0199209D01*
X0307791Y0198610D02*
X0339327Y0198610D01*
X0338728Y0198012D02*
X0307791Y0198012D01*
X0307791Y0197413D02*
X0338130Y0197413D01*
X0337531Y0196815D02*
X0307791Y0196815D01*
X0307791Y0196216D02*
X0336933Y0196216D01*
X0336334Y0195618D02*
X0307791Y0195618D01*
X0307791Y0195019D02*
X0335736Y0195019D01*
X0335137Y0194421D02*
X0307791Y0194421D01*
X0307791Y0193822D02*
X0334538Y0193822D01*
X0333940Y0193224D02*
X0307791Y0193224D01*
X0307791Y0192625D02*
X0333341Y0192625D01*
X0332743Y0192027D02*
X0307791Y0192027D01*
X0307791Y0191428D02*
X0332144Y0191428D01*
X0331546Y0190830D02*
X0307791Y0190830D01*
X0307791Y0190231D02*
X0330947Y0190231D01*
X0330349Y0189633D02*
X0307791Y0189633D01*
X0307791Y0189034D02*
X0329750Y0189034D01*
X0329152Y0188436D02*
X0307791Y0188436D01*
X0307791Y0187837D02*
X0328553Y0187837D01*
X0327955Y0187239D02*
X0307791Y0187239D01*
X0307791Y0186640D02*
X0327356Y0186640D01*
X0326758Y0186041D02*
X0307791Y0186041D01*
X0307791Y0185443D02*
X0326159Y0185443D01*
X0325561Y0184844D02*
X0307791Y0184844D01*
X0307791Y0184246D02*
X0324962Y0184246D01*
X0324364Y0183647D02*
X0307791Y0183647D01*
X0307791Y0183049D02*
X0323765Y0183049D01*
X0323167Y0182450D02*
X0307791Y0182450D01*
X0307791Y0181852D02*
X0322568Y0181852D01*
X0321970Y0181253D02*
X0307724Y0181253D01*
X0304900Y0185887D02*
X0264100Y0145087D01*
X0262900Y0145087D01*
X0262900Y0133687D01*
X0264485Y0132175D02*
X0272892Y0132175D01*
X0272293Y0131577D02*
X0263886Y0131577D01*
X0263705Y0130978D02*
X0266696Y0130978D01*
X0266098Y0130380D02*
X0264304Y0130380D01*
X0264100Y0128887D02*
X0267700Y0128887D01*
X0269302Y0130380D02*
X0271096Y0130380D01*
X0270498Y0129781D02*
X0269889Y0129781D01*
X0269889Y0129183D02*
X0269899Y0129183D01*
X0268704Y0130978D02*
X0271695Y0130978D01*
X0273293Y0129183D02*
X0312499Y0129183D01*
X0311901Y0128584D02*
X0272695Y0128584D01*
X0272096Y0127986D02*
X0311302Y0127986D01*
X0310704Y0127387D02*
X0271498Y0127387D01*
X0270899Y0126789D02*
X0310105Y0126789D01*
X0309507Y0126190D02*
X0270301Y0126190D01*
X0269702Y0125592D02*
X0308908Y0125592D01*
X0310507Y0123796D02*
X0373630Y0123796D01*
X0373878Y0124395D02*
X0311105Y0124395D01*
X0311704Y0124993D02*
X0374126Y0124993D01*
X0374374Y0125592D02*
X0312302Y0125592D01*
X0312901Y0126190D02*
X0374622Y0126190D01*
X0374870Y0126789D02*
X0313499Y0126789D01*
X0314098Y0127387D02*
X0375117Y0127387D01*
X0375365Y0127986D02*
X0314696Y0127986D01*
X0315295Y0128584D02*
X0375613Y0128584D01*
X0375861Y0129183D02*
X0315893Y0129183D01*
X0316492Y0129781D02*
X0376109Y0129781D01*
X0376357Y0130380D02*
X0317090Y0130380D01*
X0317689Y0130978D02*
X0376605Y0130978D01*
X0376853Y0131577D02*
X0318287Y0131577D01*
X0318886Y0132175D02*
X0377101Y0132175D01*
X0377349Y0132774D02*
X0319484Y0132774D01*
X0320083Y0133373D02*
X0377597Y0133373D01*
X0377844Y0133971D02*
X0320681Y0133971D01*
X0321280Y0134570D02*
X0378092Y0134570D01*
X0378340Y0135168D02*
X0321878Y0135168D01*
X0322477Y0135767D02*
X0378588Y0135767D01*
X0378836Y0136365D02*
X0323075Y0136365D01*
X0323674Y0136964D02*
X0379048Y0136964D01*
X0379247Y0137562D02*
X0324273Y0137562D01*
X0324871Y0138161D02*
X0379446Y0138161D01*
X0379646Y0138759D02*
X0325470Y0138759D01*
X0326068Y0139358D02*
X0379845Y0139358D01*
X0380044Y0139956D02*
X0326667Y0139956D01*
X0327265Y0140555D02*
X0380243Y0140555D01*
X0380442Y0141153D02*
X0327864Y0141153D01*
X0328462Y0141752D02*
X0380642Y0141752D01*
X0380841Y0142350D02*
X0329061Y0142350D01*
X0329659Y0142949D02*
X0381040Y0142949D01*
X0381239Y0143547D02*
X0330258Y0143547D01*
X0330856Y0144146D02*
X0381438Y0144146D01*
X0381638Y0144744D02*
X0331455Y0144744D01*
X0332053Y0145343D02*
X0381837Y0145343D01*
X0382036Y0145941D02*
X0332652Y0145941D01*
X0333250Y0146540D02*
X0382235Y0146540D01*
X0382434Y0147138D02*
X0333849Y0147138D01*
X0334447Y0147737D02*
X0382634Y0147737D01*
X0382833Y0148335D02*
X0335046Y0148335D01*
X0335644Y0148934D02*
X0383032Y0148934D01*
X0383231Y0149532D02*
X0336243Y0149532D01*
X0336841Y0150131D02*
X0383388Y0150131D01*
X0383541Y0150729D02*
X0337440Y0150729D01*
X0338038Y0151328D02*
X0383694Y0151328D01*
X0383847Y0151926D02*
X0338637Y0151926D01*
X0339235Y0152525D02*
X0383999Y0152525D01*
X0384152Y0153123D02*
X0339834Y0153123D01*
X0340432Y0153722D02*
X0384305Y0153722D01*
X0384458Y0154320D02*
X0341031Y0154320D01*
X0341629Y0154919D02*
X0384610Y0154919D01*
X0384763Y0155517D02*
X0342228Y0155517D01*
X0342826Y0156116D02*
X0384916Y0156116D01*
X0385069Y0156714D02*
X0343425Y0156714D01*
X0344023Y0157313D02*
X0385221Y0157313D01*
X0385374Y0157911D02*
X0344622Y0157911D01*
X0345220Y0158510D02*
X0385527Y0158510D01*
X0385680Y0159108D02*
X0345819Y0159108D01*
X0346417Y0159707D02*
X0385832Y0159707D01*
X0385985Y0160306D02*
X0347016Y0160306D01*
X0347614Y0160904D02*
X0386138Y0160904D01*
X0386291Y0161503D02*
X0348213Y0161503D01*
X0348811Y0162101D02*
X0386443Y0162101D01*
X0386596Y0162700D02*
X0349410Y0162700D01*
X0350008Y0163298D02*
X0386721Y0163298D01*
X0386829Y0163897D02*
X0350607Y0163897D01*
X0351206Y0164495D02*
X0386937Y0164495D01*
X0387045Y0165094D02*
X0351804Y0165094D01*
X0352403Y0165692D02*
X0387153Y0165692D01*
X0387261Y0166291D02*
X0353001Y0166291D01*
X0353600Y0166889D02*
X0387369Y0166889D01*
X0387477Y0167488D02*
X0354198Y0167488D01*
X0354797Y0168086D02*
X0387585Y0168086D01*
X0387693Y0168685D02*
X0355395Y0168685D01*
X0355994Y0169283D02*
X0387801Y0169283D01*
X0387909Y0169882D02*
X0356592Y0169882D01*
X0357191Y0170480D02*
X0388017Y0170480D01*
X0388125Y0171079D02*
X0357789Y0171079D01*
X0358388Y0171677D02*
X0388233Y0171677D01*
X0388341Y0172276D02*
X0358986Y0172276D01*
X0359585Y0172874D02*
X0388449Y0172874D01*
X0388557Y0173473D02*
X0360183Y0173473D01*
X0360782Y0174071D02*
X0388665Y0174071D01*
X0388773Y0174670D02*
X0361380Y0174670D01*
X0361979Y0175268D02*
X0388881Y0175268D01*
X0388989Y0175867D02*
X0362577Y0175867D01*
X0363176Y0176465D02*
X0389097Y0176465D01*
X0389163Y0177064D02*
X0363774Y0177064D01*
X0364373Y0177662D02*
X0389227Y0177662D01*
X0389291Y0178261D02*
X0364971Y0178261D01*
X0365570Y0178859D02*
X0389356Y0178859D01*
X0389420Y0179458D02*
X0366168Y0179458D01*
X0366767Y0180056D02*
X0389484Y0180056D01*
X0389549Y0180655D02*
X0367365Y0180655D01*
X0367964Y0181253D02*
X0389613Y0181253D01*
X0389677Y0181852D02*
X0368562Y0181852D01*
X0369161Y0182450D02*
X0389742Y0182450D01*
X0389806Y0183049D02*
X0369759Y0183049D01*
X0370358Y0183647D02*
X0389870Y0183647D01*
X0389935Y0184246D02*
X0370956Y0184246D01*
X0371555Y0184844D02*
X0389999Y0184844D01*
X0390064Y0185443D02*
X0372153Y0185443D01*
X0372752Y0186041D02*
X0390128Y0186041D01*
X0390192Y0186640D02*
X0373350Y0186640D01*
X0373949Y0187239D02*
X0390257Y0187239D01*
X0387273Y0187837D02*
X0378083Y0187837D01*
X0378786Y0188436D02*
X0386570Y0188436D01*
X0386024Y0189034D02*
X0379332Y0189034D01*
X0379580Y0189633D02*
X0385776Y0189633D01*
X0385863Y0192625D02*
X0379493Y0192625D01*
X0379174Y0193224D02*
X0386182Y0193224D01*
X0386780Y0193822D02*
X0378576Y0193822D01*
X0377575Y0194421D02*
X0387781Y0194421D01*
X0390567Y0194421D02*
X0390724Y0194421D01*
X0390745Y0195019D02*
X0339130Y0195019D01*
X0339728Y0195618D02*
X0390767Y0195618D01*
X0390788Y0196216D02*
X0340327Y0196216D01*
X0338531Y0194421D02*
X0374789Y0194421D01*
X0373788Y0193822D02*
X0337933Y0193822D01*
X0337334Y0193224D02*
X0373189Y0193224D01*
X0372871Y0192625D02*
X0336736Y0192625D01*
X0336137Y0192027D02*
X0372623Y0192027D01*
X0372510Y0191428D02*
X0335539Y0191428D01*
X0334940Y0190830D02*
X0372510Y0190830D01*
X0372536Y0190231D02*
X0334342Y0190231D01*
X0333743Y0189633D02*
X0372784Y0189633D01*
X0372350Y0189034D02*
X0333144Y0189034D01*
X0332546Y0188436D02*
X0371752Y0188436D01*
X0371153Y0187837D02*
X0331947Y0187837D01*
X0331349Y0187239D02*
X0370555Y0187239D01*
X0369956Y0186640D02*
X0330750Y0186640D01*
X0330152Y0186041D02*
X0369358Y0186041D01*
X0368759Y0185443D02*
X0329553Y0185443D01*
X0328955Y0184844D02*
X0368161Y0184844D01*
X0367562Y0184246D02*
X0328356Y0184246D01*
X0327758Y0183647D02*
X0366964Y0183647D01*
X0366365Y0183049D02*
X0327159Y0183049D01*
X0326561Y0182450D02*
X0365767Y0182450D01*
X0365168Y0181852D02*
X0325962Y0181852D01*
X0325364Y0181253D02*
X0364570Y0181253D01*
X0363971Y0180655D02*
X0324765Y0180655D01*
X0324167Y0180056D02*
X0363373Y0180056D01*
X0362774Y0179458D02*
X0323568Y0179458D01*
X0322970Y0178859D02*
X0362176Y0178859D01*
X0361577Y0178261D02*
X0322371Y0178261D01*
X0321773Y0177662D02*
X0360979Y0177662D01*
X0360380Y0177064D02*
X0321174Y0177064D01*
X0320576Y0176465D02*
X0359782Y0176465D01*
X0359183Y0175867D02*
X0319977Y0175867D01*
X0319379Y0175268D02*
X0358585Y0175268D01*
X0357986Y0174670D02*
X0318780Y0174670D01*
X0318182Y0174071D02*
X0357388Y0174071D01*
X0356789Y0173473D02*
X0317583Y0173473D01*
X0316985Y0172874D02*
X0356191Y0172874D01*
X0355592Y0172276D02*
X0316386Y0172276D01*
X0315788Y0171677D02*
X0354994Y0171677D01*
X0354395Y0171079D02*
X0315189Y0171079D01*
X0314591Y0170480D02*
X0353797Y0170480D01*
X0353198Y0169882D02*
X0313992Y0169882D01*
X0313394Y0169283D02*
X0352600Y0169283D01*
X0352001Y0168685D02*
X0312795Y0168685D01*
X0312197Y0168086D02*
X0351402Y0168086D01*
X0350804Y0167488D02*
X0311598Y0167488D01*
X0311000Y0166889D02*
X0350205Y0166889D01*
X0349607Y0166291D02*
X0310401Y0166291D01*
X0309803Y0165692D02*
X0349008Y0165692D01*
X0348410Y0165094D02*
X0309204Y0165094D01*
X0308606Y0164495D02*
X0347811Y0164495D01*
X0347213Y0163897D02*
X0308007Y0163897D01*
X0307409Y0163298D02*
X0346614Y0163298D01*
X0346016Y0162700D02*
X0306810Y0162700D01*
X0306211Y0162101D02*
X0345417Y0162101D01*
X0344819Y0161503D02*
X0305613Y0161503D01*
X0305014Y0160904D02*
X0344220Y0160904D01*
X0343622Y0160306D02*
X0304416Y0160306D01*
X0303817Y0159707D02*
X0343023Y0159707D01*
X0342425Y0159108D02*
X0303219Y0159108D01*
X0302620Y0158510D02*
X0341826Y0158510D01*
X0341228Y0157911D02*
X0302022Y0157911D01*
X0301423Y0157313D02*
X0340629Y0157313D01*
X0340031Y0156714D02*
X0300825Y0156714D01*
X0300226Y0156116D02*
X0339432Y0156116D01*
X0338834Y0155517D02*
X0299628Y0155517D01*
X0299029Y0154919D02*
X0338235Y0154919D01*
X0337637Y0154320D02*
X0298431Y0154320D01*
X0297832Y0153722D02*
X0337038Y0153722D01*
X0336440Y0153123D02*
X0297234Y0153123D01*
X0296635Y0152525D02*
X0335841Y0152525D01*
X0335243Y0151926D02*
X0296037Y0151926D01*
X0295438Y0151328D02*
X0334644Y0151328D01*
X0334046Y0150729D02*
X0294840Y0150729D01*
X0294241Y0150131D02*
X0333447Y0150131D01*
X0332849Y0149532D02*
X0293643Y0149532D01*
X0293044Y0148934D02*
X0332250Y0148934D01*
X0331652Y0148335D02*
X0292446Y0148335D01*
X0291847Y0147737D02*
X0331053Y0147737D01*
X0330455Y0147138D02*
X0291249Y0147138D01*
X0290650Y0146540D02*
X0329856Y0146540D01*
X0329258Y0145941D02*
X0290052Y0145941D01*
X0289453Y0145343D02*
X0328659Y0145343D01*
X0328061Y0144744D02*
X0288855Y0144744D01*
X0288256Y0144146D02*
X0327462Y0144146D01*
X0326864Y0143547D02*
X0287658Y0143547D01*
X0287059Y0142949D02*
X0326265Y0142949D01*
X0325667Y0142350D02*
X0286461Y0142350D01*
X0285862Y0141752D02*
X0325068Y0141752D01*
X0324469Y0141153D02*
X0285264Y0141153D01*
X0284665Y0140555D02*
X0323871Y0140555D01*
X0323272Y0139956D02*
X0284067Y0139956D01*
X0283468Y0139358D02*
X0322674Y0139358D01*
X0322075Y0138759D02*
X0282870Y0138759D01*
X0282271Y0138161D02*
X0321477Y0138161D01*
X0320878Y0137562D02*
X0281673Y0137562D01*
X0281074Y0136964D02*
X0320280Y0136964D01*
X0319681Y0136365D02*
X0280475Y0136365D01*
X0279877Y0135767D02*
X0319083Y0135767D01*
X0318484Y0135168D02*
X0279278Y0135168D01*
X0278680Y0134570D02*
X0317886Y0134570D01*
X0317287Y0133971D02*
X0278081Y0133971D01*
X0277483Y0133373D02*
X0316689Y0133373D01*
X0316090Y0132774D02*
X0276884Y0132774D01*
X0276286Y0132175D02*
X0315492Y0132175D01*
X0314893Y0131577D02*
X0275687Y0131577D01*
X0275089Y0130978D02*
X0314295Y0130978D01*
X0313696Y0130380D02*
X0274490Y0130380D01*
X0273892Y0129781D02*
X0313098Y0129781D01*
X0309908Y0123198D02*
X0373330Y0123198D01*
X0373031Y0122599D02*
X0309310Y0122599D01*
X0308711Y0122001D02*
X0372731Y0122001D01*
X0372431Y0121402D02*
X0308113Y0121402D01*
X0307514Y0120804D02*
X0372132Y0120804D01*
X0371832Y0120205D02*
X0306916Y0120205D01*
X0306317Y0119607D02*
X0371533Y0119607D01*
X0371233Y0119008D02*
X0305719Y0119008D01*
X0305120Y0118410D02*
X0370933Y0118410D01*
X0370634Y0117811D02*
X0304522Y0117811D01*
X0303923Y0117213D02*
X0370334Y0117213D01*
X0370035Y0116614D02*
X0303325Y0116614D01*
X0302726Y0116016D02*
X0369735Y0116016D01*
X0369435Y0115417D02*
X0302128Y0115417D01*
X0301529Y0114819D02*
X0369136Y0114819D01*
X0368836Y0114220D02*
X0300931Y0114220D01*
X0300332Y0113622D02*
X0368537Y0113622D01*
X0368237Y0113023D02*
X0299734Y0113023D01*
X0299135Y0112425D02*
X0367938Y0112425D01*
X0367638Y0111826D02*
X0298537Y0111826D01*
X0297938Y0111228D02*
X0367315Y0111228D01*
X0366959Y0110629D02*
X0297339Y0110629D01*
X0296741Y0110031D02*
X0366604Y0110031D01*
X0366249Y0109432D02*
X0296142Y0109432D01*
X0295544Y0108834D02*
X0365894Y0108834D01*
X0365539Y0108235D02*
X0294945Y0108235D01*
X0294347Y0107637D02*
X0365184Y0107637D01*
X0364829Y0107038D02*
X0293748Y0107038D01*
X0293150Y0106439D02*
X0364474Y0106439D01*
X0364119Y0105841D02*
X0292551Y0105841D01*
X0291953Y0105242D02*
X0363763Y0105242D01*
X0363408Y0104644D02*
X0291354Y0104644D01*
X0290756Y0104045D02*
X0363053Y0104045D01*
X0362698Y0103447D02*
X0290157Y0103447D01*
X0289559Y0102848D02*
X0362343Y0102848D01*
X0361988Y0102250D02*
X0288960Y0102250D01*
X0288362Y0101651D02*
X0361633Y0101651D01*
X0361278Y0101053D02*
X0287763Y0101053D01*
X0287165Y0100454D02*
X0360923Y0100454D01*
X0360567Y0099856D02*
X0286566Y0099856D01*
X0285968Y0099257D02*
X0360174Y0099257D01*
X0359758Y0098659D02*
X0285369Y0098659D01*
X0284771Y0098060D02*
X0359343Y0098060D01*
X0358927Y0097462D02*
X0284172Y0097462D01*
X0283574Y0096863D02*
X0358511Y0096863D01*
X0358096Y0096265D02*
X0282975Y0096265D01*
X0282377Y0095666D02*
X0357680Y0095666D01*
X0357265Y0095068D02*
X0281778Y0095068D01*
X0281180Y0094469D02*
X0356849Y0094469D01*
X0356434Y0093871D02*
X0280581Y0093871D01*
X0279983Y0093272D02*
X0356018Y0093272D01*
X0355603Y0092674D02*
X0279384Y0092674D01*
X0278786Y0092075D02*
X0355187Y0092075D01*
X0354771Y0091477D02*
X0278187Y0091477D01*
X0277589Y0090878D02*
X0354356Y0090878D01*
X0353940Y0090280D02*
X0276990Y0090280D01*
X0276392Y0089681D02*
X0353525Y0089681D01*
X0353109Y0089083D02*
X0275793Y0089083D01*
X0275195Y0088484D02*
X0352694Y0088484D01*
X0352229Y0087886D02*
X0274596Y0087886D01*
X0273998Y0087287D02*
X0351746Y0087287D01*
X0351264Y0086689D02*
X0273399Y0086689D01*
X0272801Y0086090D02*
X0350782Y0086090D01*
X0350300Y0085492D02*
X0272202Y0085492D01*
X0271604Y0084893D02*
X0349817Y0084893D01*
X0349335Y0084295D02*
X0271005Y0084295D01*
X0270406Y0083696D02*
X0348853Y0083696D01*
X0348370Y0083098D02*
X0269808Y0083098D01*
X0269209Y0082499D02*
X0347888Y0082499D01*
X0347406Y0081901D02*
X0268611Y0081901D01*
X0268012Y0081302D02*
X0346923Y0081302D01*
X0346441Y0080704D02*
X0267414Y0080704D01*
X0266815Y0080105D02*
X0345959Y0080105D01*
X0345476Y0079506D02*
X0266217Y0079506D01*
X0265618Y0078908D02*
X0344994Y0078908D01*
X0344512Y0078309D02*
X0265020Y0078309D01*
X0264421Y0077711D02*
X0344029Y0077711D01*
X0343485Y0077112D02*
X0263823Y0077112D01*
X0263224Y0076514D02*
X0342928Y0076514D01*
X0342371Y0075915D02*
X0262626Y0075915D01*
X0262027Y0075317D02*
X0341814Y0075317D01*
X0341257Y0074718D02*
X0261429Y0074718D01*
X0260830Y0074120D02*
X0340699Y0074120D01*
X0340142Y0073521D02*
X0260232Y0073521D01*
X0259633Y0072923D02*
X0339585Y0072923D01*
X0339028Y0072324D02*
X0259035Y0072324D01*
X0258436Y0071726D02*
X0338470Y0071726D01*
X0337913Y0071127D02*
X0257838Y0071127D01*
X0257239Y0070529D02*
X0337356Y0070529D01*
X0336799Y0069930D02*
X0256641Y0069930D01*
X0256042Y0069332D02*
X0336241Y0069332D01*
X0335684Y0068733D02*
X0255444Y0068733D01*
X0254845Y0068135D02*
X0335127Y0068135D01*
X0334570Y0067536D02*
X0254247Y0067536D01*
X0253648Y0066938D02*
X0333928Y0066938D01*
X0333285Y0066339D02*
X0253050Y0066339D01*
X0252451Y0065741D02*
X0332643Y0065741D01*
X0332000Y0065142D02*
X0251853Y0065142D01*
X0251254Y0064544D02*
X0331357Y0064544D01*
X0330714Y0063945D02*
X0250656Y0063945D01*
X0250057Y0063347D02*
X0330071Y0063347D01*
X0329428Y0062748D02*
X0249459Y0062748D01*
X0248860Y0062150D02*
X0328785Y0062150D01*
X0328143Y0061551D02*
X0248262Y0061551D01*
X0247663Y0060953D02*
X0327500Y0060953D01*
X0326857Y0060354D02*
X0247065Y0060354D01*
X0246466Y0059756D02*
X0326214Y0059756D01*
X0325571Y0059157D02*
X0245868Y0059157D01*
X0245269Y0058559D02*
X0324928Y0058559D01*
X0324255Y0057960D02*
X0244670Y0057960D01*
X0244072Y0057362D02*
X0323512Y0057362D01*
X0322770Y0056763D02*
X0243473Y0056763D01*
X0242875Y0056165D02*
X0322027Y0056165D01*
X0321284Y0055566D02*
X0242276Y0055566D01*
X0241678Y0054968D02*
X0320542Y0054968D01*
X0319799Y0054369D02*
X0241079Y0054369D01*
X0240481Y0053770D02*
X0319056Y0053770D01*
X0318313Y0053172D02*
X0239882Y0053172D01*
X0239284Y0052573D02*
X0317571Y0052573D01*
X0316828Y0051975D02*
X0238685Y0051975D01*
X0238087Y0051376D02*
X0316085Y0051376D01*
X0315343Y0050778D02*
X0237488Y0050778D01*
X0236890Y0050179D02*
X0314600Y0050179D01*
X0313857Y0049581D02*
X0236291Y0049581D01*
X0235693Y0048982D02*
X0313011Y0048982D01*
X0312149Y0048384D02*
X0235094Y0048384D01*
X0234496Y0047785D02*
X0311287Y0047785D01*
X0310425Y0047187D02*
X0233897Y0047187D01*
X0233299Y0046588D02*
X0309563Y0046588D01*
X0308701Y0045990D02*
X0232700Y0045990D01*
X0232102Y0045391D02*
X0307839Y0045391D01*
X0306977Y0044793D02*
X0231503Y0044793D01*
X0230500Y0045487D02*
X0375700Y0190687D01*
X0376182Y0191024D01*
X0376300Y0191287D01*
X0388900Y0191287D01*
X0389174Y0191024D01*
X0387916Y0197413D02*
X0377440Y0197413D01*
X0378520Y0198012D02*
X0386836Y0198012D01*
X0386237Y0198610D02*
X0379118Y0198610D01*
X0379470Y0199209D02*
X0385886Y0199209D01*
X0389174Y0210709D02*
X0388900Y0211087D01*
X0376300Y0211087D01*
X0376182Y0210709D01*
X0375700Y0210487D01*
X0325300Y0210487D01*
X0315700Y0200887D01*
X0302500Y0200887D01*
X0297100Y0195487D01*
X0297100Y0191287D01*
X0297048Y0190748D01*
X0294180Y0190830D02*
X0215500Y0190830D01*
X0215500Y0191428D02*
X0294180Y0191428D01*
X0294180Y0192027D02*
X0215500Y0192027D01*
X0215500Y0192625D02*
X0294180Y0192625D01*
X0294180Y0193224D02*
X0215500Y0193224D01*
X0215500Y0193822D02*
X0220069Y0193822D01*
X0219470Y0194421D02*
X0215500Y0194421D01*
X0215500Y0195019D02*
X0219311Y0195019D01*
X0219311Y0195618D02*
X0215500Y0195618D01*
X0215500Y0196216D02*
X0219311Y0196216D01*
X0219732Y0196815D02*
X0215500Y0196815D01*
X0215500Y0197413D02*
X0220300Y0197413D01*
X0220300Y0198012D02*
X0215500Y0198012D01*
X0215500Y0198610D02*
X0220300Y0198610D01*
X0220300Y0199209D02*
X0215500Y0199209D01*
X0215500Y0199807D02*
X0220300Y0199807D01*
X0220300Y0200406D02*
X0215500Y0200406D01*
X0215500Y0201004D02*
X0220300Y0201004D01*
X0220300Y0201603D02*
X0215500Y0201603D01*
X0215500Y0202201D02*
X0220300Y0202201D01*
X0220300Y0202800D02*
X0215500Y0202800D01*
X0215500Y0203398D02*
X0220300Y0203398D01*
X0220300Y0203997D02*
X0215500Y0203997D01*
X0215500Y0204595D02*
X0220300Y0204595D01*
X0220300Y0205194D02*
X0215500Y0205194D01*
X0215500Y0205792D02*
X0220300Y0205792D01*
X0220300Y0206391D02*
X0215500Y0206391D01*
X0215500Y0206989D02*
X0220300Y0206989D01*
X0220300Y0207588D02*
X0215500Y0207588D01*
X0215500Y0208186D02*
X0220300Y0208186D01*
X0220300Y0208785D02*
X0215500Y0208785D01*
X0215500Y0209383D02*
X0220300Y0209383D01*
X0220300Y0209982D02*
X0215500Y0209982D01*
X0215500Y0210580D02*
X0220300Y0210580D01*
X0220300Y0211179D02*
X0215500Y0211179D01*
X0215500Y0211777D02*
X0220300Y0211777D01*
X0220300Y0212376D02*
X0215500Y0212376D01*
X0215500Y0212975D02*
X0220300Y0212975D01*
X0220300Y0213573D02*
X0215500Y0213573D01*
X0215500Y0214172D02*
X0220300Y0214172D01*
X0220300Y0214770D02*
X0215500Y0214770D01*
X0215500Y0215369D02*
X0220300Y0215369D01*
X0220300Y0215967D02*
X0215500Y0215967D01*
X0215500Y0216566D02*
X0220300Y0216566D01*
X0220300Y0217164D02*
X0215500Y0217164D01*
X0215500Y0217763D02*
X0220300Y0217763D01*
X0220300Y0218361D02*
X0215500Y0218361D01*
X0215500Y0218960D02*
X0220300Y0218960D01*
X0220300Y0219558D02*
X0215500Y0219558D01*
X0215500Y0220157D02*
X0220300Y0220157D01*
X0220300Y0220755D02*
X0215500Y0220755D01*
X0215500Y0221354D02*
X0220300Y0221354D01*
X0220300Y0221952D02*
X0215500Y0221952D01*
X0215500Y0222551D02*
X0220300Y0222551D01*
X0220300Y0223149D02*
X0215500Y0223149D01*
X0215500Y0223748D02*
X0220300Y0223748D01*
X0220300Y0224346D02*
X0215500Y0224346D01*
X0215500Y0224945D02*
X0220300Y0224945D01*
X0220300Y0225543D02*
X0215500Y0225543D01*
X0215500Y0226142D02*
X0220300Y0226142D01*
X0220300Y0226740D02*
X0215500Y0226740D01*
X0215500Y0227339D02*
X0220300Y0227339D01*
X0220300Y0227937D02*
X0215500Y0227937D01*
X0215500Y0228536D02*
X0220300Y0228536D01*
X0220300Y0229134D02*
X0215500Y0229134D01*
X0215500Y0229733D02*
X0220300Y0229733D01*
X0220300Y0230331D02*
X0215500Y0230331D01*
X0215500Y0230930D02*
X0220300Y0230930D01*
X0220300Y0231528D02*
X0215500Y0231528D01*
X0215500Y0232127D02*
X0220300Y0232127D01*
X0220300Y0232725D02*
X0215500Y0232725D01*
X0215500Y0233324D02*
X0220300Y0233324D01*
X0220300Y0233922D02*
X0215500Y0233922D01*
X0215500Y0234521D02*
X0220300Y0234521D01*
X0220300Y0235119D02*
X0215500Y0235119D01*
X0215500Y0235718D02*
X0220300Y0235718D01*
X0220300Y0236316D02*
X0215500Y0236316D01*
X0215500Y0236915D02*
X0220300Y0236915D01*
X0220300Y0237513D02*
X0215500Y0237513D01*
X0215500Y0238112D02*
X0220300Y0238112D01*
X0220300Y0238710D02*
X0215500Y0238710D01*
X0215500Y0239309D02*
X0220300Y0239309D01*
X0220300Y0239908D02*
X0215500Y0239908D01*
X0215500Y0240506D02*
X0220300Y0240506D01*
X0220300Y0241105D02*
X0215500Y0241105D01*
X0215500Y0241703D02*
X0220300Y0241703D01*
X0220300Y0242302D02*
X0215500Y0242302D01*
X0215500Y0242900D02*
X0220300Y0242900D01*
X0220300Y0243499D02*
X0215500Y0243499D01*
X0215500Y0244097D02*
X0220300Y0244097D01*
X0220300Y0244696D02*
X0215500Y0244696D01*
X0215500Y0245294D02*
X0220300Y0245294D01*
X0220300Y0245893D02*
X0215500Y0245893D01*
X0215500Y0246491D02*
X0220300Y0246491D01*
X0220300Y0247090D02*
X0215500Y0247090D01*
X0215500Y0247688D02*
X0220300Y0247688D01*
X0220300Y0248287D02*
X0215500Y0248287D01*
X0215500Y0248885D02*
X0220300Y0248885D01*
X0220300Y0249484D02*
X0215500Y0249484D01*
X0215500Y0250082D02*
X0220300Y0250082D01*
X0220300Y0250681D02*
X0215500Y0250681D01*
X0215500Y0251279D02*
X0220300Y0251279D01*
X0220300Y0251878D02*
X0215500Y0251878D01*
X0215500Y0252476D02*
X0220300Y0252476D01*
X0220300Y0253075D02*
X0215500Y0253075D01*
X0215500Y0253673D02*
X0220300Y0253673D01*
X0220300Y0254272D02*
X0215500Y0254272D01*
X0215500Y0254870D02*
X0220300Y0254870D01*
X0220300Y0255469D02*
X0215500Y0255469D01*
X0215500Y0256067D02*
X0220300Y0256067D01*
X0220300Y0256666D02*
X0215500Y0256666D01*
X0215500Y0257264D02*
X0220300Y0257264D01*
X0220300Y0257863D02*
X0215500Y0257863D01*
X0215500Y0258461D02*
X0220300Y0258461D01*
X0220300Y0259060D02*
X0215500Y0259060D01*
X0215500Y0259658D02*
X0220300Y0259658D01*
X0220300Y0260257D02*
X0215500Y0260257D01*
X0215500Y0260855D02*
X0220300Y0260855D01*
X0220300Y0261454D02*
X0215500Y0261454D01*
X0215500Y0262052D02*
X0220300Y0262052D01*
X0220300Y0262651D02*
X0215500Y0262651D01*
X0215500Y0263249D02*
X0220300Y0263249D01*
X0220300Y0263848D02*
X0215500Y0263848D01*
X0215500Y0264446D02*
X0220300Y0264446D01*
X0220300Y0265045D02*
X0215500Y0265045D01*
X0215500Y0265644D02*
X0220300Y0265644D01*
X0220300Y0266242D02*
X0215500Y0266242D01*
X0215500Y0266841D02*
X0220300Y0266841D01*
X0220300Y0267439D02*
X0215500Y0267439D01*
X0215500Y0268038D02*
X0220300Y0268038D01*
X0220300Y0268636D02*
X0215500Y0268636D01*
X0215500Y0269235D02*
X0220300Y0269235D01*
X0220300Y0269833D02*
X0215500Y0269833D01*
X0215500Y0270432D02*
X0220300Y0270432D01*
X0220300Y0271030D02*
X0215500Y0271030D01*
X0215500Y0271629D02*
X0220300Y0271629D01*
X0220300Y0272227D02*
X0215500Y0272227D01*
X0215500Y0272826D02*
X0220300Y0272826D01*
X0220300Y0273424D02*
X0215500Y0273424D01*
X0215500Y0274023D02*
X0220300Y0274023D01*
X0220300Y0274621D02*
X0215500Y0274621D01*
X0215500Y0275220D02*
X0220300Y0275220D01*
X0220300Y0275818D02*
X0215500Y0275818D01*
X0215500Y0276417D02*
X0220300Y0276417D01*
X0220300Y0277015D02*
X0215500Y0277015D01*
X0215500Y0277614D02*
X0220300Y0277614D01*
X0220300Y0278212D02*
X0215500Y0278212D01*
X0215473Y0278811D02*
X0220300Y0278811D01*
X0220300Y0279409D02*
X0214874Y0279409D01*
X0214276Y0280008D02*
X0220300Y0280008D01*
X0219883Y0280606D02*
X0213677Y0280606D01*
X0213079Y0281205D02*
X0219285Y0281205D01*
X0218686Y0281803D02*
X0212480Y0281803D01*
X0211882Y0282402D02*
X0218088Y0282402D01*
X0217489Y0283000D02*
X0211283Y0283000D01*
X0210685Y0283599D02*
X0216891Y0283599D01*
X0216292Y0284197D02*
X0210086Y0284197D01*
X0209488Y0284796D02*
X0215694Y0284796D01*
X0215095Y0285394D02*
X0208889Y0285394D01*
X0208291Y0285993D02*
X0214497Y0285993D01*
X0213898Y0286591D02*
X0207692Y0286591D01*
X0207094Y0287190D02*
X0213300Y0287190D01*
X0212701Y0287788D02*
X0206495Y0287788D01*
X0205897Y0288387D02*
X0212103Y0288387D01*
X0211504Y0288985D02*
X0205298Y0288985D01*
X0204700Y0289584D02*
X0210906Y0289584D01*
X0210307Y0290182D02*
X0204101Y0290182D01*
X0203503Y0290781D02*
X0209709Y0290781D01*
X0209110Y0291379D02*
X0202904Y0291379D01*
X0202306Y0291978D02*
X0208512Y0291978D01*
X0207913Y0292577D02*
X0201707Y0292577D01*
X0201109Y0293175D02*
X0207315Y0293175D01*
X0206716Y0293774D02*
X0200510Y0293774D01*
X0199912Y0294372D02*
X0206118Y0294372D01*
X0205519Y0294971D02*
X0199908Y0294971D01*
X0200987Y0295569D02*
X0204920Y0295569D01*
X0204322Y0296168D02*
X0201559Y0296168D01*
X0201807Y0296766D02*
X0203723Y0296766D01*
X0203125Y0297365D02*
X0201980Y0297365D01*
X0201980Y0297963D02*
X0202526Y0297963D01*
X0201928Y0298562D02*
X0201883Y0298562D01*
X0203526Y0300357D02*
X0207838Y0300357D01*
X0207019Y0299759D02*
X0204125Y0299759D01*
X0204724Y0299160D02*
X0206555Y0299160D01*
X0206307Y0298562D02*
X0205322Y0298562D01*
X0205921Y0297963D02*
X0206211Y0297963D01*
X0209095Y0297756D02*
X0209500Y0298087D01*
X0250900Y0339487D01*
X0250900Y0346087D01*
X0252443Y0347640D02*
X0326728Y0347640D01*
X0326086Y0348238D02*
X0251844Y0348238D01*
X0253041Y0347041D02*
X0327371Y0347041D01*
X0328014Y0346443D02*
X0253089Y0346443D01*
X0253089Y0345844D02*
X0328657Y0345844D01*
X0329300Y0345246D02*
X0253089Y0345246D01*
X0252556Y0344647D02*
X0329943Y0344647D01*
X0330585Y0344048D02*
X0252100Y0344048D01*
X0252100Y0343450D02*
X0331228Y0343450D01*
X0331871Y0342851D02*
X0252100Y0342851D01*
X0252100Y0342253D02*
X0332514Y0342253D01*
X0333157Y0341654D02*
X0252100Y0341654D01*
X0252100Y0341056D02*
X0333800Y0341056D01*
X0334443Y0340457D02*
X0252100Y0340457D01*
X0252100Y0339859D02*
X0335016Y0339859D01*
X0335573Y0339260D02*
X0252100Y0339260D01*
X0251772Y0338662D02*
X0336130Y0338662D01*
X0336687Y0338063D02*
X0251174Y0338063D01*
X0250575Y0337465D02*
X0337244Y0337465D01*
X0337802Y0336866D02*
X0249977Y0336866D01*
X0249378Y0336268D02*
X0338359Y0336268D01*
X0338916Y0335669D02*
X0248780Y0335669D01*
X0248181Y0335071D02*
X0339473Y0335071D01*
X0340031Y0334472D02*
X0247583Y0334472D01*
X0246984Y0333874D02*
X0340588Y0333874D01*
X0341145Y0333275D02*
X0246386Y0333275D01*
X0245787Y0332677D02*
X0341702Y0332677D01*
X0342260Y0332078D02*
X0245189Y0332078D01*
X0244590Y0331480D02*
X0342817Y0331480D01*
X0343374Y0330881D02*
X0243992Y0330881D01*
X0243393Y0330283D02*
X0343931Y0330283D01*
X0344415Y0329684D02*
X0242795Y0329684D01*
X0242196Y0329086D02*
X0344898Y0329086D01*
X0345380Y0328487D02*
X0241598Y0328487D01*
X0240999Y0327889D02*
X0345862Y0327889D01*
X0346345Y0327290D02*
X0240401Y0327290D01*
X0239802Y0326692D02*
X0346827Y0326692D01*
X0347309Y0326093D02*
X0239204Y0326093D01*
X0238605Y0325495D02*
X0347792Y0325495D01*
X0348274Y0324896D02*
X0238007Y0324896D01*
X0237408Y0324298D02*
X0348756Y0324298D01*
X0349238Y0323699D02*
X0236810Y0323699D01*
X0236211Y0323101D02*
X0349721Y0323101D01*
X0350203Y0322502D02*
X0235613Y0322502D01*
X0235014Y0321904D02*
X0350685Y0321904D01*
X0351168Y0321305D02*
X0234415Y0321305D01*
X0233817Y0320707D02*
X0351650Y0320707D01*
X0352132Y0320108D02*
X0233218Y0320108D01*
X0232620Y0319510D02*
X0352611Y0319510D01*
X0353026Y0318911D02*
X0232021Y0318911D01*
X0231423Y0318313D02*
X0353442Y0318313D01*
X0353857Y0317714D02*
X0230824Y0317714D01*
X0230226Y0317115D02*
X0354273Y0317115D01*
X0354688Y0316517D02*
X0229627Y0316517D01*
X0229029Y0315918D02*
X0355104Y0315918D01*
X0355520Y0315320D02*
X0228430Y0315320D01*
X0227832Y0314721D02*
X0355935Y0314721D01*
X0356351Y0314123D02*
X0227233Y0314123D01*
X0226635Y0313524D02*
X0356766Y0313524D01*
X0357182Y0312926D02*
X0226036Y0312926D01*
X0225438Y0312327D02*
X0357597Y0312327D01*
X0358013Y0311729D02*
X0224839Y0311729D01*
X0224241Y0311130D02*
X0358428Y0311130D01*
X0358844Y0310532D02*
X0223642Y0310532D01*
X0223044Y0309933D02*
X0359259Y0309933D01*
X0359675Y0309335D02*
X0222445Y0309335D01*
X0221847Y0308736D02*
X0360091Y0308736D01*
X0360496Y0308138D02*
X0221248Y0308138D01*
X0220650Y0307539D02*
X0360852Y0307539D01*
X0361207Y0306941D02*
X0220051Y0306941D01*
X0219453Y0306342D02*
X0361562Y0306342D01*
X0361917Y0305744D02*
X0218854Y0305744D01*
X0218256Y0305145D02*
X0362272Y0305145D01*
X0362627Y0304547D02*
X0217657Y0304547D01*
X0217059Y0303948D02*
X0362982Y0303948D01*
X0363337Y0303350D02*
X0216460Y0303350D01*
X0215862Y0302751D02*
X0363692Y0302751D01*
X0364048Y0302153D02*
X0215263Y0302153D01*
X0214665Y0301554D02*
X0364403Y0301554D01*
X0364758Y0300956D02*
X0214066Y0300956D01*
X0213468Y0300357D02*
X0365113Y0300357D01*
X0365468Y0299759D02*
X0212869Y0299759D01*
X0212271Y0299160D02*
X0365823Y0299160D01*
X0366178Y0298562D02*
X0211883Y0298562D01*
X0211980Y0297963D02*
X0366533Y0297963D01*
X0366888Y0297365D02*
X0211980Y0297365D01*
X0211918Y0296766D02*
X0367244Y0296766D01*
X0367578Y0296168D02*
X0212516Y0296168D01*
X0213115Y0295569D02*
X0367878Y0295569D01*
X0368177Y0294971D02*
X0213713Y0294971D01*
X0214312Y0294372D02*
X0368477Y0294372D01*
X0368776Y0293774D02*
X0214910Y0293774D01*
X0215509Y0293175D02*
X0369076Y0293175D01*
X0369376Y0292577D02*
X0216107Y0292577D01*
X0216706Y0291978D02*
X0369675Y0291978D01*
X0369975Y0291379D02*
X0217304Y0291379D01*
X0217903Y0290781D02*
X0370274Y0290781D01*
X0370574Y0290182D02*
X0218501Y0290182D01*
X0219100Y0289584D02*
X0370874Y0289584D01*
X0371173Y0288985D02*
X0219698Y0288985D01*
X0220297Y0288387D02*
X0371473Y0288387D01*
X0371772Y0287788D02*
X0220895Y0287788D01*
X0221494Y0287190D02*
X0372072Y0287190D01*
X0372372Y0286591D02*
X0222092Y0286591D01*
X0222691Y0285993D02*
X0372671Y0285993D01*
X0372971Y0285394D02*
X0223289Y0285394D01*
X0223888Y0284796D02*
X0373270Y0284796D01*
X0373570Y0284197D02*
X0224486Y0284197D01*
X0225085Y0283599D02*
X0373828Y0283599D01*
X0374076Y0283000D02*
X0225100Y0283000D01*
X0225100Y0282402D02*
X0374324Y0282402D01*
X0374572Y0281803D02*
X0225100Y0281803D01*
X0225100Y0281205D02*
X0374820Y0281205D01*
X0375068Y0280606D02*
X0225100Y0280606D01*
X0225100Y0280008D02*
X0375316Y0280008D01*
X0375564Y0279409D02*
X0225100Y0279409D01*
X0225100Y0278811D02*
X0375812Y0278811D01*
X0376059Y0278212D02*
X0225100Y0278212D01*
X0225100Y0277614D02*
X0376307Y0277614D01*
X0376555Y0277015D02*
X0225100Y0277015D01*
X0225100Y0276417D02*
X0376803Y0276417D01*
X0377051Y0275818D02*
X0225100Y0275818D01*
X0225100Y0275220D02*
X0377299Y0275220D01*
X0377547Y0274621D02*
X0225100Y0274621D01*
X0225100Y0274023D02*
X0377795Y0274023D01*
X0378043Y0273424D02*
X0225100Y0273424D01*
X0225100Y0272826D02*
X0378291Y0272826D01*
X0378539Y0272227D02*
X0225100Y0272227D01*
X0225100Y0271629D02*
X0378787Y0271629D01*
X0379008Y0271030D02*
X0225100Y0271030D01*
X0225100Y0270432D02*
X0379207Y0270432D01*
X0379407Y0269833D02*
X0225100Y0269833D01*
X0225100Y0269235D02*
X0379606Y0269235D01*
X0379805Y0268636D02*
X0225100Y0268636D01*
X0225100Y0268038D02*
X0380004Y0268038D01*
X0380203Y0267439D02*
X0225100Y0267439D01*
X0225100Y0266841D02*
X0380403Y0266841D01*
X0380602Y0266242D02*
X0225100Y0266242D01*
X0225100Y0265644D02*
X0380801Y0265644D01*
X0381000Y0265045D02*
X0225100Y0265045D01*
X0225100Y0264446D02*
X0381199Y0264446D01*
X0381399Y0263848D02*
X0225100Y0263848D01*
X0225100Y0263249D02*
X0381598Y0263249D01*
X0381797Y0262651D02*
X0225100Y0262651D01*
X0225100Y0262052D02*
X0381996Y0262052D01*
X0382195Y0261454D02*
X0225100Y0261454D01*
X0225100Y0260855D02*
X0382395Y0260855D01*
X0382594Y0260257D02*
X0225100Y0260257D01*
X0225100Y0259658D02*
X0382793Y0259658D01*
X0382992Y0259060D02*
X0225100Y0259060D01*
X0225100Y0258461D02*
X0383191Y0258461D01*
X0383358Y0257863D02*
X0225100Y0257863D01*
X0225100Y0257264D02*
X0383510Y0257264D01*
X0383663Y0256666D02*
X0225100Y0256666D01*
X0225100Y0256067D02*
X0383816Y0256067D01*
X0383969Y0255469D02*
X0225100Y0255469D01*
X0225100Y0254870D02*
X0384121Y0254870D01*
X0384274Y0254272D02*
X0225100Y0254272D01*
X0225100Y0253673D02*
X0384427Y0253673D01*
X0384580Y0253075D02*
X0225100Y0253075D01*
X0225100Y0252476D02*
X0384733Y0252476D01*
X0384885Y0251878D02*
X0225100Y0251878D01*
X0225100Y0251279D02*
X0385038Y0251279D01*
X0385191Y0250681D02*
X0225100Y0250681D01*
X0225100Y0250082D02*
X0385344Y0250082D01*
X0385496Y0249484D02*
X0225100Y0249484D01*
X0225100Y0248885D02*
X0385649Y0248885D01*
X0385802Y0248287D02*
X0225100Y0248287D01*
X0225100Y0247688D02*
X0385955Y0247688D01*
X0386107Y0247090D02*
X0225100Y0247090D01*
X0225100Y0246491D02*
X0386260Y0246491D01*
X0386413Y0245893D02*
X0225100Y0245893D01*
X0225100Y0245294D02*
X0386566Y0245294D01*
X0386700Y0244696D02*
X0225100Y0244696D01*
X0225100Y0244097D02*
X0386808Y0244097D01*
X0386916Y0243499D02*
X0225100Y0243499D01*
X0225100Y0242900D02*
X0387024Y0242900D01*
X0387132Y0242302D02*
X0225100Y0242302D01*
X0225100Y0241703D02*
X0387240Y0241703D01*
X0387348Y0241105D02*
X0225100Y0241105D01*
X0225100Y0240506D02*
X0387456Y0240506D01*
X0387564Y0239908D02*
X0225100Y0239908D01*
X0225100Y0239309D02*
X0387672Y0239309D01*
X0387780Y0238710D02*
X0225100Y0238710D01*
X0225100Y0238112D02*
X0387888Y0238112D01*
X0387996Y0237513D02*
X0225100Y0237513D01*
X0225100Y0236915D02*
X0388104Y0236915D01*
X0388212Y0236316D02*
X0225100Y0236316D01*
X0225100Y0235718D02*
X0388320Y0235718D01*
X0388428Y0235119D02*
X0225100Y0235119D01*
X0225100Y0234521D02*
X0388536Y0234521D01*
X0388644Y0233922D02*
X0225100Y0233922D01*
X0225100Y0233324D02*
X0388752Y0233324D01*
X0388860Y0232725D02*
X0225100Y0232725D01*
X0225100Y0232127D02*
X0388968Y0232127D01*
X0389075Y0231528D02*
X0225100Y0231528D01*
X0225100Y0230930D02*
X0389150Y0230930D01*
X0389214Y0230331D02*
X0225100Y0230331D01*
X0225100Y0229733D02*
X0389279Y0229733D01*
X0389343Y0229134D02*
X0225100Y0229134D01*
X0225100Y0228536D02*
X0389407Y0228536D01*
X0389472Y0227937D02*
X0225100Y0227937D01*
X0225100Y0227339D02*
X0389536Y0227339D01*
X0389600Y0226740D02*
X0225100Y0226740D01*
X0225100Y0226142D02*
X0389665Y0226142D01*
X0389729Y0225543D02*
X0225100Y0225543D01*
X0225100Y0224945D02*
X0389793Y0224945D01*
X0389858Y0224346D02*
X0225100Y0224346D01*
X0225100Y0223748D02*
X0389922Y0223748D01*
X0389986Y0223149D02*
X0225100Y0223149D01*
X0225100Y0222551D02*
X0390051Y0222551D01*
X0390115Y0221952D02*
X0225100Y0221952D01*
X0225100Y0221354D02*
X0390179Y0221354D01*
X0390244Y0220755D02*
X0225100Y0220755D01*
X0225100Y0220157D02*
X0390308Y0220157D01*
X0390372Y0219558D02*
X0225100Y0219558D01*
X0225100Y0218960D02*
X0390437Y0218960D01*
X0390501Y0218361D02*
X0318346Y0218361D01*
X0318420Y0217763D02*
X0390565Y0217763D01*
X0390591Y0217164D02*
X0318420Y0217164D01*
X0318420Y0216566D02*
X0390613Y0216566D01*
X0390634Y0215967D02*
X0318420Y0215967D01*
X0318420Y0215369D02*
X0390655Y0215369D01*
X0374146Y0203997D02*
X0320507Y0203997D01*
X0319909Y0203398D02*
X0373522Y0203398D01*
X0373009Y0202800D02*
X0319310Y0202800D01*
X0318712Y0202201D02*
X0372761Y0202201D01*
X0324295Y0211179D02*
X0318420Y0211179D01*
X0318420Y0210580D02*
X0323697Y0210580D01*
X0323098Y0209982D02*
X0318420Y0209982D01*
X0318420Y0209383D02*
X0322500Y0209383D01*
X0321901Y0208785D02*
X0318420Y0208785D01*
X0318420Y0208186D02*
X0321303Y0208186D01*
X0320704Y0207588D02*
X0318420Y0207588D01*
X0318420Y0206989D02*
X0320106Y0206989D01*
X0319507Y0206391D02*
X0318420Y0206391D01*
X0318420Y0205792D02*
X0318909Y0205792D01*
X0316515Y0203398D02*
X0225100Y0203398D01*
X0225100Y0203997D02*
X0283708Y0203997D01*
X0283550Y0204155D02*
X0284077Y0203628D01*
X0291122Y0203628D01*
X0291649Y0204155D01*
X0291649Y0218286D01*
X0291122Y0218813D01*
X0284077Y0218813D01*
X0283550Y0218286D01*
X0283550Y0204155D01*
X0283550Y0204595D02*
X0225100Y0204595D01*
X0225100Y0205194D02*
X0283550Y0205194D01*
X0283550Y0205792D02*
X0225100Y0205792D01*
X0225100Y0206391D02*
X0283550Y0206391D01*
X0283550Y0206989D02*
X0225100Y0206989D01*
X0225100Y0207588D02*
X0283550Y0207588D01*
X0283550Y0208186D02*
X0225100Y0208186D01*
X0225100Y0208785D02*
X0283550Y0208785D01*
X0283550Y0209383D02*
X0225100Y0209383D01*
X0225100Y0209982D02*
X0283550Y0209982D01*
X0283550Y0210580D02*
X0225100Y0210580D01*
X0225100Y0211179D02*
X0283550Y0211179D01*
X0283550Y0211777D02*
X0225100Y0211777D01*
X0225100Y0212376D02*
X0283550Y0212376D01*
X0283550Y0212975D02*
X0225100Y0212975D01*
X0225100Y0213573D02*
X0283550Y0213573D01*
X0283550Y0214172D02*
X0225100Y0214172D01*
X0225100Y0214770D02*
X0283550Y0214770D01*
X0283550Y0215369D02*
X0225100Y0215369D01*
X0225100Y0215967D02*
X0283550Y0215967D01*
X0283550Y0216566D02*
X0225100Y0216566D01*
X0225100Y0217164D02*
X0283550Y0217164D01*
X0283550Y0217763D02*
X0225100Y0217763D01*
X0225100Y0218361D02*
X0283625Y0218361D01*
X0291574Y0218361D02*
X0310396Y0218361D01*
X0310321Y0217763D02*
X0291649Y0217763D01*
X0291649Y0217164D02*
X0310321Y0217164D01*
X0310321Y0216566D02*
X0291649Y0216566D01*
X0291649Y0215967D02*
X0310321Y0215967D01*
X0310321Y0215369D02*
X0291649Y0215369D01*
X0291649Y0214770D02*
X0310321Y0214770D01*
X0310321Y0214172D02*
X0291649Y0214172D01*
X0291649Y0213573D02*
X0310321Y0213573D01*
X0310321Y0212975D02*
X0291649Y0212975D01*
X0291649Y0212376D02*
X0310321Y0212376D01*
X0310321Y0211777D02*
X0291649Y0211777D01*
X0291649Y0211179D02*
X0310321Y0211179D01*
X0310321Y0210580D02*
X0291649Y0210580D01*
X0291649Y0209982D02*
X0310321Y0209982D01*
X0310321Y0209383D02*
X0291649Y0209383D01*
X0291649Y0208785D02*
X0310321Y0208785D01*
X0310321Y0208186D02*
X0291649Y0208186D01*
X0291649Y0207588D02*
X0310321Y0207588D01*
X0310321Y0206989D02*
X0291649Y0206989D01*
X0291649Y0206391D02*
X0310321Y0206391D01*
X0310321Y0205792D02*
X0291649Y0205792D01*
X0291649Y0205194D02*
X0310321Y0205194D01*
X0310321Y0204595D02*
X0291649Y0204595D01*
X0291491Y0203997D02*
X0310479Y0203997D01*
X0315318Y0202201D02*
X0226089Y0202201D01*
X0226089Y0201603D02*
X0301519Y0201603D01*
X0300921Y0201004D02*
X0226089Y0201004D01*
X0225915Y0200406D02*
X0294409Y0200406D01*
X0294180Y0199807D02*
X0225316Y0199807D01*
X0223900Y0201487D02*
X0223900Y0283087D01*
X0209500Y0297487D01*
X0209095Y0297756D01*
X0210199Y0295091D02*
X0222700Y0282590D01*
X0222700Y0203382D01*
X0222700Y0280190D01*
X0222700Y0281184D01*
X0209012Y0294872D01*
X0209669Y0294872D01*
X0210199Y0295091D01*
X0210319Y0294971D02*
X0209908Y0294971D01*
X0209512Y0294372D02*
X0210918Y0294372D01*
X0211516Y0293774D02*
X0210110Y0293774D01*
X0210709Y0293175D02*
X0212115Y0293175D01*
X0212713Y0292577D02*
X0211307Y0292577D01*
X0211906Y0291978D02*
X0213312Y0291978D01*
X0213910Y0291379D02*
X0212504Y0291379D01*
X0213103Y0290781D02*
X0214509Y0290781D01*
X0215107Y0290182D02*
X0213701Y0290182D01*
X0214300Y0289584D02*
X0215706Y0289584D01*
X0216304Y0288985D02*
X0214898Y0288985D01*
X0215497Y0288387D02*
X0216903Y0288387D01*
X0217501Y0287788D02*
X0216095Y0287788D01*
X0216694Y0287190D02*
X0218100Y0287190D01*
X0218698Y0286591D02*
X0217292Y0286591D01*
X0217891Y0285993D02*
X0219297Y0285993D01*
X0219895Y0285394D02*
X0218489Y0285394D01*
X0219088Y0284796D02*
X0220494Y0284796D01*
X0221092Y0284197D02*
X0219686Y0284197D01*
X0220285Y0283599D02*
X0221691Y0283599D01*
X0222289Y0283000D02*
X0220883Y0283000D01*
X0221482Y0282402D02*
X0222700Y0282402D01*
X0222700Y0281803D02*
X0222080Y0281803D01*
X0222679Y0281205D02*
X0222700Y0281205D01*
X0222700Y0280606D02*
X0222700Y0280606D01*
X0222700Y0280008D02*
X0222700Y0280008D01*
X0222700Y0279409D02*
X0222700Y0279409D01*
X0222700Y0278811D02*
X0222700Y0278811D01*
X0222700Y0278212D02*
X0222700Y0278212D01*
X0222700Y0277614D02*
X0222700Y0277614D01*
X0222700Y0277015D02*
X0222700Y0277015D01*
X0222700Y0276417D02*
X0222700Y0276417D01*
X0222700Y0275818D02*
X0222700Y0275818D01*
X0222700Y0275220D02*
X0222700Y0275220D01*
X0222700Y0274621D02*
X0222700Y0274621D01*
X0222700Y0274023D02*
X0222700Y0274023D01*
X0222700Y0273424D02*
X0222700Y0273424D01*
X0222700Y0272826D02*
X0222700Y0272826D01*
X0222700Y0272227D02*
X0222700Y0272227D01*
X0222700Y0271629D02*
X0222700Y0271629D01*
X0222700Y0271030D02*
X0222700Y0271030D01*
X0222700Y0270432D02*
X0222700Y0270432D01*
X0222700Y0269833D02*
X0222700Y0269833D01*
X0222700Y0269235D02*
X0222700Y0269235D01*
X0222700Y0268636D02*
X0222700Y0268636D01*
X0222700Y0268038D02*
X0222700Y0268038D01*
X0222700Y0267439D02*
X0222700Y0267439D01*
X0222700Y0266841D02*
X0222700Y0266841D01*
X0222700Y0266242D02*
X0222700Y0266242D01*
X0222700Y0265644D02*
X0222700Y0265644D01*
X0222700Y0265045D02*
X0222700Y0265045D01*
X0222700Y0264446D02*
X0222700Y0264446D01*
X0222700Y0263848D02*
X0222700Y0263848D01*
X0222700Y0263249D02*
X0222700Y0263249D01*
X0222700Y0262651D02*
X0222700Y0262651D01*
X0222700Y0262052D02*
X0222700Y0262052D01*
X0222700Y0261454D02*
X0222700Y0261454D01*
X0222700Y0260855D02*
X0222700Y0260855D01*
X0222700Y0260257D02*
X0222700Y0260257D01*
X0222700Y0259658D02*
X0222700Y0259658D01*
X0222700Y0259060D02*
X0222700Y0259060D01*
X0222700Y0258461D02*
X0222700Y0258461D01*
X0222700Y0257863D02*
X0222700Y0257863D01*
X0222700Y0257264D02*
X0222700Y0257264D01*
X0222700Y0256666D02*
X0222700Y0256666D01*
X0222700Y0256067D02*
X0222700Y0256067D01*
X0222700Y0255469D02*
X0222700Y0255469D01*
X0222700Y0254870D02*
X0222700Y0254870D01*
X0222700Y0254272D02*
X0222700Y0254272D01*
X0222700Y0253673D02*
X0222700Y0253673D01*
X0222700Y0253075D02*
X0222700Y0253075D01*
X0222700Y0252476D02*
X0222700Y0252476D01*
X0222700Y0251878D02*
X0222700Y0251878D01*
X0222700Y0251279D02*
X0222700Y0251279D01*
X0222700Y0250681D02*
X0222700Y0250681D01*
X0222700Y0250082D02*
X0222700Y0250082D01*
X0222700Y0249484D02*
X0222700Y0249484D01*
X0222700Y0248885D02*
X0222700Y0248885D01*
X0222700Y0248287D02*
X0222700Y0248287D01*
X0222700Y0247688D02*
X0222700Y0247688D01*
X0222700Y0247090D02*
X0222700Y0247090D01*
X0222700Y0246491D02*
X0222700Y0246491D01*
X0222700Y0245893D02*
X0222700Y0245893D01*
X0222700Y0245294D02*
X0222700Y0245294D01*
X0222700Y0244696D02*
X0222700Y0244696D01*
X0222700Y0244097D02*
X0222700Y0244097D01*
X0222700Y0243499D02*
X0222700Y0243499D01*
X0222700Y0242900D02*
X0222700Y0242900D01*
X0222700Y0242302D02*
X0222700Y0242302D01*
X0222700Y0241703D02*
X0222700Y0241703D01*
X0222700Y0241105D02*
X0222700Y0241105D01*
X0222700Y0240506D02*
X0222700Y0240506D01*
X0222700Y0239908D02*
X0222700Y0239908D01*
X0222700Y0239309D02*
X0222700Y0239309D01*
X0222700Y0238710D02*
X0222700Y0238710D01*
X0222700Y0238112D02*
X0222700Y0238112D01*
X0222700Y0237513D02*
X0222700Y0237513D01*
X0222700Y0236915D02*
X0222700Y0236915D01*
X0222700Y0236316D02*
X0222700Y0236316D01*
X0222700Y0235718D02*
X0222700Y0235718D01*
X0222700Y0235119D02*
X0222700Y0235119D01*
X0222700Y0234521D02*
X0222700Y0234521D01*
X0222700Y0233922D02*
X0222700Y0233922D01*
X0222700Y0233324D02*
X0222700Y0233324D01*
X0222700Y0232725D02*
X0222700Y0232725D01*
X0222700Y0232127D02*
X0222700Y0232127D01*
X0222700Y0231528D02*
X0222700Y0231528D01*
X0222700Y0230930D02*
X0222700Y0230930D01*
X0222700Y0230331D02*
X0222700Y0230331D01*
X0222700Y0229733D02*
X0222700Y0229733D01*
X0222700Y0229134D02*
X0222700Y0229134D01*
X0222700Y0228536D02*
X0222700Y0228536D01*
X0222700Y0227937D02*
X0222700Y0227937D01*
X0222700Y0227339D02*
X0222700Y0227339D01*
X0222700Y0226740D02*
X0222700Y0226740D01*
X0222700Y0226142D02*
X0222700Y0226142D01*
X0222700Y0225543D02*
X0222700Y0225543D01*
X0222700Y0224945D02*
X0222700Y0224945D01*
X0222700Y0224346D02*
X0222700Y0224346D01*
X0222700Y0223748D02*
X0222700Y0223748D01*
X0222700Y0223149D02*
X0222700Y0223149D01*
X0222700Y0222551D02*
X0222700Y0222551D01*
X0222700Y0221952D02*
X0222700Y0221952D01*
X0222700Y0221354D02*
X0222700Y0221354D01*
X0222700Y0220755D02*
X0222700Y0220755D01*
X0222700Y0220157D02*
X0222700Y0220157D01*
X0222700Y0219558D02*
X0222700Y0219558D01*
X0222700Y0218960D02*
X0222700Y0218960D01*
X0222700Y0218361D02*
X0222700Y0218361D01*
X0222700Y0217763D02*
X0222700Y0217763D01*
X0222700Y0217164D02*
X0222700Y0217164D01*
X0222700Y0216566D02*
X0222700Y0216566D01*
X0222700Y0215967D02*
X0222700Y0215967D01*
X0222700Y0215369D02*
X0222700Y0215369D01*
X0222700Y0214770D02*
X0222700Y0214770D01*
X0222700Y0214172D02*
X0222700Y0214172D01*
X0222700Y0213573D02*
X0222700Y0213573D01*
X0222700Y0212975D02*
X0222700Y0212975D01*
X0222700Y0212376D02*
X0222700Y0212376D01*
X0222700Y0211777D02*
X0222700Y0211777D01*
X0222700Y0211179D02*
X0222700Y0211179D01*
X0222700Y0210580D02*
X0222700Y0210580D01*
X0222700Y0209982D02*
X0222700Y0209982D01*
X0222700Y0209383D02*
X0222700Y0209383D01*
X0222700Y0208785D02*
X0222700Y0208785D01*
X0222700Y0208186D02*
X0222700Y0208186D01*
X0222700Y0207588D02*
X0222700Y0207588D01*
X0222700Y0206989D02*
X0222700Y0206989D01*
X0222700Y0206391D02*
X0222700Y0206391D01*
X0222700Y0205792D02*
X0222700Y0205792D01*
X0222700Y0205194D02*
X0222700Y0205194D01*
X0222700Y0204595D02*
X0222700Y0204595D01*
X0222700Y0203997D02*
X0222700Y0203997D01*
X0222700Y0203398D02*
X0222700Y0203398D01*
X0222700Y0203382D02*
X0222700Y0203382D01*
X0225682Y0202800D02*
X0315916Y0202800D01*
X0302054Y0198743D02*
X0302054Y0184737D01*
X0299917Y0182600D01*
X0299917Y0196606D01*
X0302054Y0198743D01*
X0302054Y0198610D02*
X0301921Y0198610D01*
X0302054Y0198012D02*
X0301322Y0198012D01*
X0300724Y0197413D02*
X0302054Y0197413D01*
X0302054Y0196815D02*
X0300125Y0196815D01*
X0299917Y0196216D02*
X0302054Y0196216D01*
X0302054Y0195618D02*
X0299917Y0195618D01*
X0299917Y0195019D02*
X0302054Y0195019D01*
X0302054Y0194421D02*
X0299917Y0194421D01*
X0299917Y0193822D02*
X0302054Y0193822D01*
X0302054Y0193224D02*
X0299917Y0193224D01*
X0299917Y0192625D02*
X0302054Y0192625D01*
X0302054Y0192027D02*
X0299917Y0192027D01*
X0299917Y0191428D02*
X0302054Y0191428D01*
X0302054Y0190830D02*
X0299917Y0190830D01*
X0299917Y0190231D02*
X0302054Y0190231D01*
X0302054Y0189633D02*
X0299917Y0189633D01*
X0299917Y0189034D02*
X0302054Y0189034D01*
X0302054Y0188436D02*
X0299917Y0188436D01*
X0299917Y0187837D02*
X0302054Y0187837D01*
X0302054Y0187239D02*
X0299917Y0187239D01*
X0299917Y0186640D02*
X0302054Y0186640D01*
X0302054Y0186041D02*
X0299917Y0186041D01*
X0299917Y0185443D02*
X0302054Y0185443D01*
X0302054Y0184844D02*
X0299917Y0184844D01*
X0299917Y0184246D02*
X0301562Y0184246D01*
X0300964Y0183647D02*
X0299917Y0183647D01*
X0299917Y0183049D02*
X0300365Y0183049D01*
X0301964Y0181253D02*
X0302120Y0181253D01*
X0301365Y0180655D02*
X0321371Y0180655D01*
X0320773Y0180056D02*
X0300767Y0180056D01*
X0300168Y0179458D02*
X0320174Y0179458D01*
X0319576Y0178859D02*
X0299570Y0178859D01*
X0298971Y0178261D02*
X0318977Y0178261D01*
X0318379Y0177662D02*
X0298373Y0177662D01*
X0297774Y0177064D02*
X0317780Y0177064D01*
X0317182Y0176465D02*
X0297176Y0176465D01*
X0296577Y0175867D02*
X0316583Y0175867D01*
X0315985Y0175268D02*
X0295979Y0175268D01*
X0295380Y0174670D02*
X0315386Y0174670D01*
X0314788Y0174071D02*
X0294782Y0174071D01*
X0294183Y0173473D02*
X0314189Y0173473D01*
X0313591Y0172874D02*
X0293585Y0172874D01*
X0292986Y0172276D02*
X0312992Y0172276D01*
X0312394Y0171677D02*
X0292388Y0171677D01*
X0291789Y0171079D02*
X0311795Y0171079D01*
X0311197Y0170480D02*
X0291191Y0170480D01*
X0290592Y0169882D02*
X0310598Y0169882D01*
X0310000Y0169283D02*
X0289994Y0169283D01*
X0289395Y0168685D02*
X0309401Y0168685D01*
X0308803Y0168086D02*
X0288797Y0168086D01*
X0288198Y0167488D02*
X0308204Y0167488D01*
X0307605Y0166889D02*
X0287600Y0166889D01*
X0287001Y0166291D02*
X0307007Y0166291D01*
X0306408Y0165692D02*
X0286403Y0165692D01*
X0285804Y0165094D02*
X0305810Y0165094D01*
X0305211Y0164495D02*
X0285206Y0164495D01*
X0284607Y0163897D02*
X0304613Y0163897D01*
X0304014Y0163298D02*
X0284008Y0163298D01*
X0283410Y0162700D02*
X0303416Y0162700D01*
X0302817Y0162101D02*
X0282811Y0162101D01*
X0282213Y0161503D02*
X0302219Y0161503D01*
X0301620Y0160904D02*
X0281614Y0160904D01*
X0281016Y0160306D02*
X0301022Y0160306D01*
X0300423Y0159707D02*
X0280417Y0159707D01*
X0279819Y0159108D02*
X0299825Y0159108D01*
X0299226Y0158510D02*
X0279220Y0158510D01*
X0278622Y0157911D02*
X0298628Y0157911D01*
X0298029Y0157313D02*
X0278023Y0157313D01*
X0277425Y0156714D02*
X0297431Y0156714D01*
X0296832Y0156116D02*
X0276826Y0156116D01*
X0276228Y0155517D02*
X0296234Y0155517D01*
X0295635Y0154919D02*
X0275629Y0154919D01*
X0275031Y0154320D02*
X0295037Y0154320D01*
X0294438Y0153722D02*
X0274432Y0153722D01*
X0273834Y0153123D02*
X0293840Y0153123D01*
X0293241Y0152525D02*
X0273235Y0152525D01*
X0272637Y0151926D02*
X0292643Y0151926D01*
X0292044Y0151328D02*
X0272038Y0151328D01*
X0271440Y0150729D02*
X0291446Y0150729D01*
X0290847Y0150131D02*
X0270841Y0150131D01*
X0270243Y0149532D02*
X0290249Y0149532D01*
X0289650Y0148934D02*
X0269644Y0148934D01*
X0269046Y0148335D02*
X0289052Y0148335D01*
X0288453Y0147737D02*
X0268447Y0147737D01*
X0267849Y0147138D02*
X0287855Y0147138D01*
X0287256Y0146540D02*
X0267250Y0146540D01*
X0266652Y0145941D02*
X0286658Y0145941D01*
X0286059Y0145343D02*
X0266053Y0145343D01*
X0265455Y0144744D02*
X0285461Y0144744D01*
X0284862Y0144146D02*
X0264856Y0144146D01*
X0264100Y0143547D02*
X0284264Y0143547D01*
X0283665Y0142949D02*
X0264100Y0142949D01*
X0264100Y0142350D02*
X0283067Y0142350D01*
X0282468Y0141752D02*
X0264100Y0141752D01*
X0264100Y0141153D02*
X0281870Y0141153D01*
X0281271Y0140555D02*
X0264100Y0140555D01*
X0264100Y0139956D02*
X0280672Y0139956D01*
X0280074Y0139358D02*
X0264100Y0139358D01*
X0264100Y0138759D02*
X0279475Y0138759D01*
X0278877Y0138161D02*
X0264100Y0138161D01*
X0264100Y0137562D02*
X0278278Y0137562D01*
X0277680Y0136964D02*
X0264100Y0136964D01*
X0264100Y0136365D02*
X0277081Y0136365D01*
X0276483Y0135767D02*
X0264100Y0135767D01*
X0264514Y0135168D02*
X0275884Y0135168D01*
X0275286Y0134570D02*
X0265089Y0134570D01*
X0265089Y0133971D02*
X0274687Y0133971D01*
X0274089Y0133373D02*
X0265089Y0133373D01*
X0265083Y0132774D02*
X0273490Y0132774D01*
X0265804Y0127687D02*
X0254997Y0127687D01*
X0252489Y0130195D01*
X0252489Y0131593D01*
X0251207Y0132876D01*
X0249393Y0132876D01*
X0248404Y0131887D01*
X0205197Y0131887D01*
X0202586Y0134498D01*
X0203207Y0134498D01*
X0204196Y0135487D01*
X0211197Y0135487D01*
X0215008Y0139298D01*
X0216407Y0139298D01*
X0217689Y0140580D01*
X0217689Y0142393D01*
X0217396Y0142687D01*
X0248603Y0142687D01*
X0262900Y0128390D01*
X0263603Y0127687D01*
X0265804Y0127687D01*
X0265804Y0127687D01*
X0264100Y0128887D02*
X0249100Y0143887D01*
X0214300Y0143887D01*
X0211900Y0141487D01*
X0197500Y0141487D01*
X0159100Y0179887D01*
X0157630Y0178261D02*
X0136971Y0178261D01*
X0136373Y0177662D02*
X0159627Y0177662D01*
X0160226Y0177064D02*
X0135774Y0177064D01*
X0135176Y0176465D02*
X0160824Y0176465D01*
X0161423Y0175867D02*
X0134577Y0175867D01*
X0133979Y0175268D02*
X0162021Y0175268D01*
X0162620Y0174670D02*
X0133380Y0174670D01*
X0132782Y0174071D02*
X0163218Y0174071D01*
X0163817Y0173473D02*
X0132183Y0173473D01*
X0131585Y0172874D02*
X0164415Y0172874D01*
X0165014Y0172276D02*
X0130986Y0172276D01*
X0130388Y0171677D02*
X0165612Y0171677D01*
X0166211Y0171079D02*
X0129789Y0171079D01*
X0129191Y0170480D02*
X0166809Y0170480D01*
X0167408Y0169882D02*
X0128592Y0169882D01*
X0127994Y0169283D02*
X0168006Y0169283D01*
X0168605Y0168685D02*
X0127395Y0168685D01*
X0126797Y0168086D02*
X0169203Y0168086D01*
X0169802Y0167488D02*
X0126198Y0167488D01*
X0125600Y0166889D02*
X0170400Y0166889D01*
X0170999Y0166291D02*
X0125001Y0166291D01*
X0124403Y0165692D02*
X0171597Y0165692D01*
X0172196Y0165094D02*
X0123804Y0165094D01*
X0123206Y0164495D02*
X0172794Y0164495D01*
X0173393Y0163897D02*
X0122607Y0163897D01*
X0122009Y0163298D02*
X0173991Y0163298D01*
X0174590Y0162700D02*
X0121410Y0162700D01*
X0120811Y0162101D02*
X0175189Y0162101D01*
X0175787Y0161503D02*
X0120213Y0161503D01*
X0119614Y0160904D02*
X0176386Y0160904D01*
X0176984Y0160306D02*
X0119016Y0160306D01*
X0118417Y0159707D02*
X0177583Y0159707D01*
X0178181Y0159108D02*
X0117819Y0159108D01*
X0117220Y0158510D02*
X0178780Y0158510D01*
X0179378Y0157911D02*
X0116622Y0157911D01*
X0116023Y0157313D02*
X0179977Y0157313D01*
X0180575Y0156714D02*
X0115425Y0156714D01*
X0114826Y0156116D02*
X0181174Y0156116D01*
X0181772Y0155517D02*
X0114228Y0155517D01*
X0113629Y0154919D02*
X0182371Y0154919D01*
X0182969Y0154320D02*
X0113031Y0154320D01*
X0112432Y0153722D02*
X0183568Y0153722D01*
X0184166Y0153123D02*
X0111834Y0153123D01*
X0111235Y0152525D02*
X0184765Y0152525D01*
X0185363Y0151926D02*
X0110637Y0151926D01*
X0110038Y0151328D02*
X0185962Y0151328D01*
X0186560Y0150729D02*
X0109440Y0150729D01*
X0108841Y0150131D02*
X0187159Y0150131D01*
X0187757Y0149532D02*
X0108243Y0149532D01*
X0107644Y0148934D02*
X0188356Y0148934D01*
X0188954Y0148335D02*
X0107046Y0148335D01*
X0106447Y0147737D02*
X0189553Y0147737D01*
X0190151Y0147138D02*
X0187144Y0147138D01*
X0187743Y0146540D02*
X0190750Y0146540D01*
X0191142Y0145941D02*
X0191348Y0145941D01*
X0191741Y0145343D02*
X0191947Y0145343D01*
X0192339Y0144744D02*
X0192545Y0144744D01*
X0192938Y0144146D02*
X0193144Y0144146D01*
X0193536Y0143547D02*
X0193742Y0143547D01*
X0194135Y0142949D02*
X0194341Y0142949D01*
X0194733Y0142350D02*
X0194939Y0142350D01*
X0195332Y0141752D02*
X0195538Y0141752D01*
X0195930Y0141153D02*
X0196136Y0141153D01*
X0196529Y0140555D02*
X0196735Y0140555D01*
X0197128Y0139956D02*
X0212272Y0139956D01*
X0212665Y0140555D02*
X0212871Y0140555D01*
X0213264Y0141153D02*
X0213311Y0141153D01*
X0215500Y0141487D02*
X0210700Y0136687D01*
X0202300Y0136687D01*
X0203877Y0135168D02*
X0256122Y0135168D01*
X0256720Y0134570D02*
X0203279Y0134570D01*
X0203113Y0133971D02*
X0257319Y0133971D01*
X0257917Y0133373D02*
X0203711Y0133373D01*
X0204310Y0132774D02*
X0249292Y0132774D01*
X0248693Y0132175D02*
X0204908Y0132175D01*
X0204700Y0130687D02*
X0250300Y0130687D01*
X0251907Y0132175D02*
X0259114Y0132175D01*
X0259713Y0131577D02*
X0252489Y0131577D01*
X0252489Y0130978D02*
X0260311Y0130978D01*
X0260910Y0130380D02*
X0252489Y0130380D01*
X0252902Y0129781D02*
X0261508Y0129781D01*
X0262107Y0129183D02*
X0253501Y0129183D01*
X0254099Y0128584D02*
X0262705Y0128584D01*
X0263304Y0127986D02*
X0254698Y0127986D01*
X0251308Y0132774D02*
X0258516Y0132774D01*
X0260114Y0134570D02*
X0260711Y0134570D01*
X0260711Y0134593D02*
X0260711Y0133973D01*
X0250797Y0143887D01*
X0261700Y0143887D01*
X0261700Y0135582D01*
X0260711Y0134593D01*
X0261286Y0135168D02*
X0259516Y0135168D01*
X0258917Y0135767D02*
X0261700Y0135767D01*
X0261700Y0136365D02*
X0258319Y0136365D01*
X0257720Y0136964D02*
X0261700Y0136964D01*
X0261700Y0137562D02*
X0257122Y0137562D01*
X0256523Y0138161D02*
X0261700Y0138161D01*
X0261700Y0138759D02*
X0255925Y0138759D01*
X0255326Y0139358D02*
X0261700Y0139358D01*
X0261700Y0139956D02*
X0254728Y0139956D01*
X0254129Y0140555D02*
X0261700Y0140555D01*
X0261700Y0141153D02*
X0253530Y0141153D01*
X0252932Y0141752D02*
X0261700Y0141752D01*
X0261700Y0142350D02*
X0252333Y0142350D01*
X0251735Y0142949D02*
X0261700Y0142949D01*
X0261700Y0143547D02*
X0251136Y0143547D01*
X0249538Y0141752D02*
X0217689Y0141752D01*
X0217689Y0142350D02*
X0248939Y0142350D01*
X0250136Y0141153D02*
X0217689Y0141153D01*
X0217664Y0140555D02*
X0250735Y0140555D01*
X0251333Y0139956D02*
X0217065Y0139956D01*
X0216467Y0139358D02*
X0251932Y0139358D01*
X0252530Y0138759D02*
X0214470Y0138759D01*
X0213871Y0138161D02*
X0253129Y0138161D01*
X0253727Y0137562D02*
X0213273Y0137562D01*
X0212674Y0136964D02*
X0254326Y0136964D01*
X0254924Y0136365D02*
X0212075Y0136365D01*
X0211477Y0135767D02*
X0255523Y0135767D01*
X0251249Y0146540D02*
X0263856Y0146540D01*
X0264455Y0147138D02*
X0251289Y0147138D01*
X0251289Y0147737D02*
X0265053Y0147737D01*
X0265652Y0148335D02*
X0251289Y0148335D01*
X0250748Y0148934D02*
X0266250Y0148934D01*
X0266849Y0149532D02*
X0250150Y0149532D01*
X0248153Y0150131D02*
X0267447Y0150131D01*
X0268046Y0150729D02*
X0247554Y0150729D01*
X0246956Y0151328D02*
X0268644Y0151328D01*
X0269243Y0151926D02*
X0246357Y0151926D01*
X0245759Y0152525D02*
X0269841Y0152525D01*
X0270440Y0153123D02*
X0245160Y0153123D01*
X0244562Y0153722D02*
X0271038Y0153722D01*
X0271637Y0154320D02*
X0243963Y0154320D01*
X0243365Y0154919D02*
X0272235Y0154919D01*
X0272834Y0155517D02*
X0242766Y0155517D01*
X0242168Y0156116D02*
X0273432Y0156116D01*
X0274031Y0156714D02*
X0241569Y0156714D01*
X0240971Y0157313D02*
X0274629Y0157313D01*
X0275228Y0157911D02*
X0240372Y0157911D01*
X0239774Y0158510D02*
X0275826Y0158510D01*
X0276425Y0159108D02*
X0239175Y0159108D01*
X0238577Y0159707D02*
X0277023Y0159707D01*
X0277622Y0160306D02*
X0237978Y0160306D01*
X0237380Y0160904D02*
X0278220Y0160904D01*
X0278819Y0161503D02*
X0236781Y0161503D01*
X0236183Y0162101D02*
X0279417Y0162101D01*
X0280016Y0162700D02*
X0235584Y0162700D01*
X0234986Y0163298D02*
X0280614Y0163298D01*
X0281213Y0163897D02*
X0234387Y0163897D01*
X0233789Y0164495D02*
X0236196Y0164495D01*
X0237700Y0166087D02*
X0232300Y0166087D01*
X0210700Y0187687D01*
X0210700Y0206887D01*
X0201100Y0216487D01*
X0203289Y0216566D02*
X0213100Y0216566D01*
X0213100Y0217164D02*
X0203289Y0217164D01*
X0202920Y0217763D02*
X0213100Y0217763D01*
X0213100Y0218361D02*
X0202321Y0218361D01*
X0199879Y0218361D02*
X0196321Y0218361D01*
X0196920Y0217763D02*
X0199280Y0217763D01*
X0198911Y0217164D02*
X0197289Y0217164D01*
X0197289Y0216566D02*
X0198911Y0216566D01*
X0198911Y0215967D02*
X0197317Y0215967D01*
X0197915Y0215369D02*
X0199122Y0215369D01*
X0199721Y0214770D02*
X0198514Y0214770D01*
X0199112Y0214172D02*
X0201718Y0214172D01*
X0202317Y0213573D02*
X0199711Y0213573D01*
X0200309Y0212975D02*
X0202915Y0212975D01*
X0203514Y0212376D02*
X0200908Y0212376D01*
X0201506Y0211777D02*
X0204112Y0211777D01*
X0204711Y0211179D02*
X0202105Y0211179D01*
X0202703Y0210580D02*
X0205309Y0210580D01*
X0205908Y0209982D02*
X0203302Y0209982D01*
X0203900Y0209383D02*
X0206506Y0209383D01*
X0207105Y0208785D02*
X0204499Y0208785D01*
X0205097Y0208186D02*
X0207703Y0208186D01*
X0208302Y0207588D02*
X0205696Y0207588D01*
X0206294Y0206989D02*
X0208900Y0206989D01*
X0209499Y0206391D02*
X0206893Y0206391D01*
X0207491Y0205792D02*
X0209500Y0205792D01*
X0209500Y0205194D02*
X0208090Y0205194D01*
X0208688Y0204595D02*
X0209500Y0204595D01*
X0209500Y0203997D02*
X0209287Y0203997D01*
X0209500Y0202087D02*
X0209500Y0187087D01*
X0249100Y0147487D01*
X0246911Y0147737D02*
X0192947Y0147737D01*
X0192348Y0148335D02*
X0246554Y0148335D01*
X0245956Y0148934D02*
X0191750Y0148934D01*
X0191151Y0149532D02*
X0245357Y0149532D01*
X0244759Y0150131D02*
X0190553Y0150131D01*
X0189954Y0150729D02*
X0244160Y0150729D01*
X0243562Y0151328D02*
X0189356Y0151328D01*
X0188757Y0151926D02*
X0242963Y0151926D01*
X0242365Y0152525D02*
X0188159Y0152525D01*
X0187560Y0153123D02*
X0241766Y0153123D01*
X0241168Y0153722D02*
X0186962Y0153722D01*
X0186363Y0154320D02*
X0240569Y0154320D01*
X0239971Y0154919D02*
X0185765Y0154919D01*
X0185166Y0155517D02*
X0239372Y0155517D01*
X0238774Y0156116D02*
X0184568Y0156116D01*
X0183969Y0156714D02*
X0238175Y0156714D01*
X0237577Y0157313D02*
X0183371Y0157313D01*
X0182772Y0157911D02*
X0236978Y0157911D01*
X0236380Y0158510D02*
X0182174Y0158510D01*
X0181575Y0159108D02*
X0235781Y0159108D01*
X0235183Y0159707D02*
X0180977Y0159707D01*
X0180378Y0160306D02*
X0234584Y0160306D01*
X0233986Y0160904D02*
X0179780Y0160904D01*
X0179181Y0161503D02*
X0233387Y0161503D01*
X0232789Y0162101D02*
X0178583Y0162101D01*
X0177984Y0162700D02*
X0232190Y0162700D01*
X0231591Y0163298D02*
X0177386Y0163298D01*
X0176787Y0163897D02*
X0230993Y0163897D01*
X0230394Y0164495D02*
X0176189Y0164495D01*
X0175590Y0165094D02*
X0229796Y0165094D01*
X0229197Y0165692D02*
X0174992Y0165692D01*
X0174393Y0166291D02*
X0228599Y0166291D01*
X0228000Y0166889D02*
X0173795Y0166889D01*
X0173196Y0167488D02*
X0227402Y0167488D01*
X0226803Y0168086D02*
X0172597Y0168086D01*
X0171999Y0168685D02*
X0226205Y0168685D01*
X0225606Y0169283D02*
X0171400Y0169283D01*
X0170802Y0169882D02*
X0225008Y0169882D01*
X0224409Y0170480D02*
X0170203Y0170480D01*
X0169605Y0171079D02*
X0223811Y0171079D01*
X0223212Y0171677D02*
X0169006Y0171677D01*
X0168408Y0172276D02*
X0222614Y0172276D01*
X0222015Y0172874D02*
X0167809Y0172874D01*
X0167211Y0173473D02*
X0221417Y0173473D01*
X0220818Y0174071D02*
X0166612Y0174071D01*
X0166014Y0174670D02*
X0220220Y0174670D01*
X0219621Y0175268D02*
X0165415Y0175268D01*
X0164817Y0175867D02*
X0219023Y0175867D01*
X0218424Y0176465D02*
X0164218Y0176465D01*
X0163620Y0177064D02*
X0217826Y0177064D01*
X0217227Y0177662D02*
X0163021Y0177662D01*
X0162423Y0178261D02*
X0216629Y0178261D01*
X0216030Y0178859D02*
X0161824Y0178859D01*
X0161289Y0179458D02*
X0215432Y0179458D01*
X0214833Y0180056D02*
X0161289Y0180056D01*
X0161289Y0180655D02*
X0214235Y0180655D01*
X0213636Y0181253D02*
X0160829Y0181253D01*
X0160230Y0181852D02*
X0213038Y0181852D01*
X0212439Y0182450D02*
X0141161Y0182450D01*
X0140562Y0181852D02*
X0157970Y0181852D01*
X0157371Y0181253D02*
X0139964Y0181253D01*
X0139365Y0180655D02*
X0156911Y0180655D01*
X0156911Y0180056D02*
X0138767Y0180056D01*
X0138168Y0179458D02*
X0156911Y0179458D01*
X0157032Y0178859D02*
X0137570Y0178859D01*
X0141759Y0183049D02*
X0211841Y0183049D01*
X0211242Y0183647D02*
X0142358Y0183647D01*
X0142956Y0184246D02*
X0210644Y0184246D01*
X0210045Y0184844D02*
X0143555Y0184844D01*
X0144153Y0185443D02*
X0184048Y0185443D01*
X0185500Y0187087D02*
X0144100Y0187087D01*
X0140003Y0195487D02*
X0159604Y0195487D01*
X0160593Y0194498D01*
X0162407Y0194498D01*
X0163689Y0195780D01*
X0163689Y0197593D01*
X0162407Y0198876D01*
X0160593Y0198876D01*
X0159604Y0197887D01*
X0140997Y0197887D01*
X0112089Y0226795D01*
X0112089Y0228193D01*
X0110807Y0229476D01*
X0108993Y0229476D01*
X0107711Y0228193D01*
X0107711Y0226380D01*
X0108993Y0225098D01*
X0110392Y0225098D01*
X0140003Y0195487D01*
X0139872Y0195618D02*
X0005534Y0195618D01*
X0005513Y0196216D02*
X0139273Y0196216D01*
X0138675Y0196815D02*
X0005491Y0196815D01*
X0005470Y0197413D02*
X0138076Y0197413D01*
X0137478Y0198012D02*
X0005449Y0198012D01*
X0005427Y0198610D02*
X0136879Y0198610D01*
X0136281Y0199209D02*
X0005406Y0199209D01*
X0005385Y0199807D02*
X0135682Y0199807D01*
X0135084Y0200406D02*
X0005363Y0200406D01*
X0005342Y0201004D02*
X0134485Y0201004D01*
X0133887Y0201603D02*
X0005320Y0201603D01*
X0005299Y0202201D02*
X0133288Y0202201D01*
X0132690Y0202800D02*
X0005278Y0202800D01*
X0005256Y0203398D02*
X0132091Y0203398D01*
X0131493Y0203997D02*
X0005239Y0203997D01*
X0005261Y0204595D02*
X0130894Y0204595D01*
X0130296Y0205194D02*
X0005282Y0205194D01*
X0005303Y0205792D02*
X0129697Y0205792D01*
X0129099Y0206391D02*
X0005325Y0206391D01*
X0005346Y0206989D02*
X0128500Y0206989D01*
X0127902Y0207588D02*
X0005367Y0207588D01*
X0005389Y0208186D02*
X0127303Y0208186D01*
X0126705Y0208785D02*
X0005410Y0208785D01*
X0005432Y0209383D02*
X0126106Y0209383D01*
X0125508Y0209982D02*
X0005453Y0209982D01*
X0005474Y0210580D02*
X0124909Y0210580D01*
X0124311Y0211179D02*
X0005496Y0211179D01*
X0005517Y0211777D02*
X0123712Y0211777D01*
X0123114Y0212376D02*
X0005538Y0212376D01*
X0005560Y0212975D02*
X0122515Y0212975D01*
X0121917Y0213573D02*
X0005581Y0213573D01*
X0005603Y0214172D02*
X0121318Y0214172D01*
X0120720Y0214770D02*
X0005624Y0214770D01*
X0005645Y0215369D02*
X0120121Y0215369D01*
X0119522Y0215967D02*
X0005667Y0215967D01*
X0005688Y0216566D02*
X0118924Y0216566D01*
X0118325Y0217164D02*
X0005709Y0217164D01*
X0005735Y0217763D02*
X0117727Y0217763D01*
X0117128Y0218361D02*
X0005800Y0218361D01*
X0005864Y0218960D02*
X0116530Y0218960D01*
X0115931Y0219558D02*
X0005928Y0219558D01*
X0005993Y0220157D02*
X0115333Y0220157D01*
X0114734Y0220755D02*
X0006057Y0220755D01*
X0006121Y0221354D02*
X0114136Y0221354D01*
X0113537Y0221952D02*
X0006186Y0221952D01*
X0006250Y0222551D02*
X0112939Y0222551D01*
X0112340Y0223149D02*
X0006314Y0223149D01*
X0006379Y0223748D02*
X0111742Y0223748D01*
X0111143Y0224346D02*
X0006443Y0224346D01*
X0006507Y0224945D02*
X0110545Y0224945D01*
X0108548Y0225543D02*
X0006572Y0225543D01*
X0006636Y0226142D02*
X0107949Y0226142D01*
X0107711Y0226740D02*
X0006701Y0226740D01*
X0006765Y0227339D02*
X0107711Y0227339D01*
X0107711Y0227937D02*
X0006829Y0227937D01*
X0006894Y0228536D02*
X0108054Y0228536D01*
X0108652Y0229134D02*
X0006958Y0229134D01*
X0007022Y0229733D02*
X0213100Y0229733D01*
X0213100Y0230331D02*
X0007087Y0230331D01*
X0007151Y0230930D02*
X0213100Y0230930D01*
X0213100Y0231528D02*
X0007225Y0231528D01*
X0007333Y0232127D02*
X0213100Y0232127D01*
X0213100Y0232725D02*
X0007441Y0232725D01*
X0007549Y0233324D02*
X0213100Y0233324D01*
X0213100Y0233922D02*
X0007657Y0233922D01*
X0007765Y0234521D02*
X0213100Y0234521D01*
X0213100Y0235119D02*
X0007873Y0235119D01*
X0007981Y0235718D02*
X0213100Y0235718D01*
X0213100Y0236316D02*
X0008089Y0236316D01*
X0008197Y0236915D02*
X0213100Y0236915D01*
X0213100Y0237513D02*
X0008305Y0237513D01*
X0008413Y0238112D02*
X0213100Y0238112D01*
X0213100Y0238710D02*
X0008521Y0238710D01*
X0008629Y0239309D02*
X0213100Y0239309D01*
X0213100Y0239908D02*
X0008737Y0239908D01*
X0008845Y0240506D02*
X0213100Y0240506D01*
X0213100Y0241105D02*
X0008953Y0241105D01*
X0009061Y0241703D02*
X0213100Y0241703D01*
X0213100Y0242302D02*
X0009169Y0242302D01*
X0009277Y0242900D02*
X0213100Y0242900D01*
X0213100Y0243499D02*
X0009385Y0243499D01*
X0009493Y0244097D02*
X0213100Y0244097D01*
X0213100Y0244696D02*
X0009601Y0244696D01*
X0009735Y0245294D02*
X0213100Y0245294D01*
X0213100Y0245893D02*
X0009888Y0245893D01*
X0010041Y0246491D02*
X0213100Y0246491D01*
X0213100Y0247090D02*
X0010193Y0247090D01*
X0010346Y0247688D02*
X0213100Y0247688D01*
X0213100Y0248287D02*
X0010499Y0248287D01*
X0010652Y0248885D02*
X0213100Y0248885D01*
X0213100Y0249484D02*
X0010804Y0249484D01*
X0010957Y0250082D02*
X0213100Y0250082D01*
X0213100Y0250681D02*
X0011110Y0250681D01*
X0011263Y0251279D02*
X0213100Y0251279D01*
X0213100Y0251878D02*
X0011415Y0251878D01*
X0011568Y0252476D02*
X0213100Y0252476D01*
X0213100Y0253075D02*
X0011721Y0253075D01*
X0011874Y0253673D02*
X0213100Y0253673D01*
X0213100Y0254272D02*
X0012027Y0254272D01*
X0012179Y0254870D02*
X0213100Y0254870D01*
X0213100Y0255469D02*
X0012332Y0255469D01*
X0012485Y0256067D02*
X0213100Y0256067D01*
X0213100Y0256666D02*
X0012638Y0256666D01*
X0012790Y0257264D02*
X0213100Y0257264D01*
X0213100Y0257863D02*
X0012943Y0257863D01*
X0013109Y0258461D02*
X0213100Y0258461D01*
X0213100Y0259060D02*
X0013309Y0259060D01*
X0013508Y0259658D02*
X0213100Y0259658D01*
X0213100Y0260257D02*
X0013707Y0260257D01*
X0013906Y0260855D02*
X0213100Y0260855D01*
X0213100Y0261454D02*
X0014105Y0261454D01*
X0014305Y0262052D02*
X0213100Y0262052D01*
X0213100Y0262651D02*
X0014504Y0262651D01*
X0014703Y0263249D02*
X0213100Y0263249D01*
X0213100Y0263848D02*
X0014902Y0263848D01*
X0015101Y0264446D02*
X0213100Y0264446D01*
X0213100Y0265045D02*
X0015301Y0265045D01*
X0015500Y0265644D02*
X0213100Y0265644D01*
X0213100Y0266242D02*
X0015699Y0266242D01*
X0015898Y0266841D02*
X0213100Y0266841D01*
X0213100Y0267439D02*
X0016097Y0267439D01*
X0016297Y0268038D02*
X0213100Y0268038D01*
X0213100Y0268636D02*
X0016496Y0268636D01*
X0016695Y0269235D02*
X0213100Y0269235D01*
X0213100Y0269833D02*
X0016894Y0269833D01*
X0017093Y0270432D02*
X0213100Y0270432D01*
X0213100Y0271030D02*
X0017293Y0271030D01*
X0017514Y0271629D02*
X0213100Y0271629D01*
X0213100Y0272227D02*
X0017762Y0272227D01*
X0018010Y0272826D02*
X0213100Y0272826D01*
X0213100Y0273424D02*
X0018258Y0273424D01*
X0018506Y0274023D02*
X0213100Y0274023D01*
X0213100Y0274621D02*
X0018754Y0274621D01*
X0019002Y0275220D02*
X0213100Y0275220D01*
X0213100Y0275818D02*
X0019250Y0275818D01*
X0019498Y0276417D02*
X0213100Y0276417D01*
X0213100Y0277015D02*
X0019745Y0277015D01*
X0019993Y0277614D02*
X0213100Y0277614D01*
X0212677Y0278212D02*
X0020241Y0278212D01*
X0020489Y0278811D02*
X0212079Y0278811D01*
X0211480Y0279409D02*
X0020737Y0279409D01*
X0020985Y0280008D02*
X0210882Y0280008D01*
X0210283Y0280606D02*
X0021233Y0280606D01*
X0021481Y0281205D02*
X0209685Y0281205D01*
X0209086Y0281803D02*
X0021729Y0281803D01*
X0021977Y0282402D02*
X0208488Y0282402D01*
X0207889Y0283000D02*
X0022225Y0283000D01*
X0022473Y0283599D02*
X0207291Y0283599D01*
X0206692Y0284197D02*
X0022731Y0284197D01*
X0023030Y0284796D02*
X0206094Y0284796D01*
X0205495Y0285394D02*
X0023330Y0285394D01*
X0023630Y0285993D02*
X0204897Y0285993D01*
X0204298Y0286591D02*
X0023929Y0286591D01*
X0024229Y0287190D02*
X0203700Y0287190D01*
X0203101Y0287788D02*
X0024528Y0287788D01*
X0024828Y0288387D02*
X0202503Y0288387D01*
X0201904Y0288985D02*
X0025128Y0288985D01*
X0025427Y0289584D02*
X0201306Y0289584D01*
X0200707Y0290182D02*
X0025727Y0290182D01*
X0026026Y0290781D02*
X0200109Y0290781D01*
X0199510Y0291379D02*
X0026326Y0291379D01*
X0026626Y0291978D02*
X0198912Y0291978D01*
X0198313Y0292577D02*
X0026925Y0292577D01*
X0027225Y0293175D02*
X0197715Y0293175D01*
X0197116Y0293774D02*
X0027524Y0293774D01*
X0027824Y0294372D02*
X0196518Y0294372D01*
X0195919Y0294971D02*
X0189908Y0294971D01*
X0189669Y0294872D02*
X0190729Y0295311D01*
X0191540Y0296122D01*
X0191980Y0297182D01*
X0191980Y0298330D01*
X0191540Y0299390D01*
X0190729Y0300201D01*
X0189669Y0300640D01*
X0188522Y0300640D01*
X0187461Y0300201D01*
X0186650Y0299390D01*
X0186211Y0298330D01*
X0186211Y0297182D01*
X0186650Y0296122D01*
X0187461Y0295311D01*
X0188522Y0294872D01*
X0189669Y0294872D01*
X0188283Y0294971D02*
X0028124Y0294971D01*
X0028423Y0295569D02*
X0187203Y0295569D01*
X0186631Y0296168D02*
X0028723Y0296168D01*
X0029057Y0296766D02*
X0186383Y0296766D01*
X0186211Y0297365D02*
X0029412Y0297365D01*
X0029767Y0297963D02*
X0186211Y0297963D01*
X0186307Y0298562D02*
X0030123Y0298562D01*
X0030478Y0299160D02*
X0186555Y0299160D01*
X0187019Y0299759D02*
X0030833Y0299759D01*
X0031188Y0300357D02*
X0187838Y0300357D01*
X0190352Y0300357D02*
X0194500Y0300357D01*
X0194500Y0299759D02*
X0191171Y0299759D01*
X0191636Y0299160D02*
X0194500Y0299160D01*
X0194500Y0298562D02*
X0191883Y0298562D01*
X0191980Y0297963D02*
X0194500Y0297963D01*
X0194500Y0297365D02*
X0191980Y0297365D01*
X0191807Y0296766D02*
X0194500Y0296766D01*
X0194722Y0296168D02*
X0191559Y0296168D01*
X0190987Y0295569D02*
X0195320Y0295569D01*
X0195700Y0296887D02*
X0195700Y0308887D01*
X0197500Y0310687D01*
X0206500Y0310687D01*
X0208900Y0308287D01*
X0209095Y0307756D01*
X0207028Y0305744D02*
X0201162Y0305744D01*
X0201632Y0306342D02*
X0206559Y0306342D01*
X0206311Y0306941D02*
X0201880Y0306941D01*
X0201980Y0307539D02*
X0206211Y0307539D01*
X0206211Y0308138D02*
X0201980Y0308138D01*
X0201811Y0308736D02*
X0206380Y0308736D01*
X0206155Y0309335D02*
X0201563Y0309335D01*
X0199300Y0307687D02*
X0199300Y0302887D01*
X0221500Y0280687D01*
X0221500Y0195487D01*
X0223689Y0195618D02*
X0294180Y0195618D01*
X0294180Y0196216D02*
X0223689Y0196216D01*
X0223268Y0196815D02*
X0294180Y0196815D01*
X0294180Y0197413D02*
X0222700Y0197413D01*
X0222700Y0198012D02*
X0294180Y0198012D01*
X0294180Y0198610D02*
X0222700Y0198610D01*
X0222700Y0199209D02*
X0294180Y0199209D01*
X0294180Y0195019D02*
X0223689Y0195019D01*
X0223530Y0194421D02*
X0294180Y0194421D01*
X0294180Y0193822D02*
X0222931Y0193822D01*
X0215500Y0190231D02*
X0294180Y0190231D01*
X0294180Y0189633D02*
X0215500Y0189633D01*
X0216048Y0189034D02*
X0294180Y0189034D01*
X0294180Y0188436D02*
X0216489Y0188436D01*
X0216489Y0187837D02*
X0294180Y0187837D01*
X0294180Y0187239D02*
X0216489Y0187239D01*
X0216349Y0186640D02*
X0294180Y0186640D01*
X0294180Y0186041D02*
X0215751Y0186041D01*
X0214641Y0185443D02*
X0294180Y0185443D01*
X0294180Y0184844D02*
X0215239Y0184844D01*
X0215838Y0184246D02*
X0294180Y0184246D01*
X0294180Y0183647D02*
X0216436Y0183647D01*
X0217035Y0183049D02*
X0294180Y0183049D01*
X0294180Y0182450D02*
X0217633Y0182450D01*
X0218232Y0181852D02*
X0294180Y0181852D01*
X0294246Y0181253D02*
X0218830Y0181253D01*
X0219429Y0180655D02*
X0297971Y0180655D01*
X0297373Y0180056D02*
X0220027Y0180056D01*
X0220626Y0179458D02*
X0296774Y0179458D01*
X0296176Y0178859D02*
X0221224Y0178859D01*
X0221823Y0178261D02*
X0295577Y0178261D01*
X0294979Y0177662D02*
X0222421Y0177662D01*
X0223020Y0177064D02*
X0294380Y0177064D01*
X0293782Y0176465D02*
X0223618Y0176465D01*
X0224217Y0175867D02*
X0293183Y0175867D01*
X0292585Y0175268D02*
X0224815Y0175268D01*
X0225414Y0174670D02*
X0291986Y0174670D01*
X0291388Y0174071D02*
X0226012Y0174071D01*
X0226611Y0173473D02*
X0290789Y0173473D01*
X0290191Y0172874D02*
X0227209Y0172874D01*
X0227808Y0172276D02*
X0289592Y0172276D01*
X0288994Y0171677D02*
X0228406Y0171677D01*
X0229005Y0171079D02*
X0288395Y0171079D01*
X0287797Y0170480D02*
X0229603Y0170480D01*
X0230202Y0169882D02*
X0287198Y0169882D01*
X0286600Y0169283D02*
X0230800Y0169283D01*
X0231399Y0168685D02*
X0286001Y0168685D01*
X0285403Y0168086D02*
X0238796Y0168086D01*
X0239395Y0167488D02*
X0284804Y0167488D01*
X0284205Y0166889D02*
X0239889Y0166889D01*
X0239889Y0166291D02*
X0283607Y0166291D01*
X0283008Y0165692D02*
X0239889Y0165692D01*
X0239803Y0165094D02*
X0282410Y0165094D01*
X0281811Y0164495D02*
X0239204Y0164495D01*
X0236005Y0167488D02*
X0232596Y0167488D01*
X0231997Y0168086D02*
X0236604Y0168086D01*
X0246911Y0147138D02*
X0193545Y0147138D01*
X0194144Y0146540D02*
X0246951Y0146540D01*
X0262900Y0145087D02*
X0207100Y0145087D01*
X0205900Y0143887D01*
X0201100Y0143887D01*
X0199460Y0145343D02*
X0195341Y0145343D01*
X0194742Y0145941D02*
X0200059Y0145941D01*
X0198911Y0144744D02*
X0195939Y0144744D01*
X0196538Y0144146D02*
X0198911Y0144146D01*
X0198911Y0143547D02*
X0197136Y0143547D01*
X0197735Y0142949D02*
X0198942Y0142949D01*
X0197726Y0139358D02*
X0211674Y0139358D01*
X0211075Y0138759D02*
X0203323Y0138759D01*
X0203922Y0138161D02*
X0210477Y0138161D01*
X0211403Y0142687D02*
X0207796Y0142687D01*
X0208089Y0142980D01*
X0208089Y0143887D01*
X0212603Y0143887D01*
X0211403Y0142687D01*
X0211665Y0142949D02*
X0208058Y0142949D01*
X0208089Y0143547D02*
X0212264Y0143547D01*
X0204859Y0145941D02*
X0202141Y0145941D01*
X0202740Y0145343D02*
X0204260Y0145343D01*
X0204004Y0142687D02*
X0204004Y0142687D01*
X0202996Y0142687D01*
X0202996Y0142687D01*
X0204004Y0142687D01*
X0201277Y0138759D02*
X0198325Y0138759D01*
X0198923Y0138161D02*
X0200678Y0138161D01*
X0200111Y0137562D02*
X0199522Y0137562D01*
X0197923Y0135767D02*
X0103300Y0135767D01*
X0103300Y0136365D02*
X0197324Y0136365D01*
X0196726Y0136964D02*
X0103300Y0136964D01*
X0103300Y0137562D02*
X0196127Y0137562D01*
X0195529Y0138161D02*
X0127070Y0138161D01*
X0127668Y0138759D02*
X0194930Y0138759D01*
X0194332Y0139358D02*
X0182068Y0139358D01*
X0182667Y0139956D02*
X0193733Y0139956D01*
X0193135Y0140555D02*
X0183265Y0140555D01*
X0183864Y0141153D02*
X0192536Y0141153D01*
X0191938Y0141752D02*
X0184462Y0141752D01*
X0185061Y0142350D02*
X0191339Y0142350D01*
X0190741Y0142949D02*
X0187058Y0142949D01*
X0187656Y0143547D02*
X0190142Y0143547D01*
X0190300Y0145087D02*
X0186100Y0145087D01*
X0181300Y0140287D01*
X0126100Y0140287D01*
X0124532Y0138759D02*
X0103300Y0138759D01*
X0103300Y0138161D02*
X0125130Y0138161D01*
X0123933Y0139358D02*
X0103300Y0139358D01*
X0103300Y0139956D02*
X0123911Y0139956D01*
X0123911Y0140555D02*
X0103300Y0140555D01*
X0103300Y0141153D02*
X0123911Y0141153D01*
X0124469Y0141752D02*
X0103300Y0141752D01*
X0103300Y0142350D02*
X0125068Y0142350D01*
X0127132Y0142350D02*
X0181667Y0142350D01*
X0182265Y0142949D02*
X0103300Y0142949D01*
X0103300Y0143547D02*
X0182864Y0143547D01*
X0183462Y0144146D02*
X0103300Y0144146D01*
X0103455Y0144744D02*
X0183911Y0144744D01*
X0183911Y0145343D02*
X0104053Y0145343D01*
X0104652Y0145941D02*
X0183911Y0145941D01*
X0184457Y0146540D02*
X0105250Y0146540D01*
X0105849Y0147138D02*
X0185056Y0147138D01*
X0181068Y0141752D02*
X0127731Y0141752D01*
X0103300Y0135168D02*
X0198522Y0135168D01*
X0199120Y0134570D02*
X0103300Y0134570D01*
X0103300Y0133971D02*
X0199719Y0133971D01*
X0200317Y0133373D02*
X0103300Y0133373D01*
X0103300Y0132774D02*
X0200916Y0132774D01*
X0201514Y0132175D02*
X0103300Y0132175D01*
X0103300Y0131577D02*
X0202113Y0131577D01*
X0202711Y0130978D02*
X0103300Y0130978D01*
X0103300Y0130380D02*
X0203310Y0130380D01*
X0203908Y0129781D02*
X0103300Y0129781D01*
X0114993Y0066876D02*
X0113711Y0065593D01*
X0113711Y0063780D01*
X0114993Y0062498D01*
X0116392Y0062498D01*
X0153311Y0025579D01*
X0153311Y0024180D01*
X0154593Y0022898D01*
X0156407Y0022898D01*
X0157689Y0024180D01*
X0157689Y0025993D01*
X0156407Y0027276D01*
X0155008Y0027276D01*
X0118089Y0064195D01*
X0118089Y0065593D01*
X0116807Y0066876D01*
X0114993Y0066876D01*
X0114457Y0066339D02*
X0063015Y0066339D01*
X0063658Y0065741D02*
X0113858Y0065741D01*
X0113711Y0065142D02*
X0064301Y0065142D01*
X0064944Y0064544D02*
X0113711Y0064544D01*
X0113711Y0063945D02*
X0065587Y0063945D01*
X0066230Y0063347D02*
X0114144Y0063347D01*
X0114743Y0062748D02*
X0066872Y0062748D01*
X0067515Y0062150D02*
X0116740Y0062150D01*
X0117338Y0061551D02*
X0068158Y0061551D01*
X0068801Y0060953D02*
X0117937Y0060953D01*
X0118535Y0060354D02*
X0069444Y0060354D01*
X0070087Y0059756D02*
X0119134Y0059756D01*
X0119732Y0059157D02*
X0070730Y0059157D01*
X0071372Y0058559D02*
X0120331Y0058559D01*
X0120929Y0057960D02*
X0072046Y0057960D01*
X0072788Y0057362D02*
X0121528Y0057362D01*
X0122127Y0056763D02*
X0073531Y0056763D01*
X0074274Y0056165D02*
X0122725Y0056165D01*
X0123324Y0055566D02*
X0075017Y0055566D01*
X0075759Y0054968D02*
X0123922Y0054968D01*
X0124521Y0054369D02*
X0076502Y0054369D01*
X0077245Y0053770D02*
X0125119Y0053770D01*
X0125718Y0053172D02*
X0077987Y0053172D01*
X0078730Y0052573D02*
X0126316Y0052573D01*
X0126915Y0051975D02*
X0079473Y0051975D01*
X0080216Y0051376D02*
X0127513Y0051376D01*
X0128112Y0050778D02*
X0080958Y0050778D01*
X0081701Y0050179D02*
X0128710Y0050179D01*
X0129309Y0049581D02*
X0082444Y0049581D01*
X0083290Y0048982D02*
X0129907Y0048982D01*
X0130506Y0048384D02*
X0084152Y0048384D01*
X0085014Y0047785D02*
X0131104Y0047785D01*
X0131703Y0047187D02*
X0085876Y0047187D01*
X0086738Y0046588D02*
X0132301Y0046588D01*
X0132900Y0045990D02*
X0087600Y0045990D01*
X0088462Y0045391D02*
X0133498Y0045391D01*
X0134097Y0044793D02*
X0089324Y0044793D01*
X0090186Y0044194D02*
X0134695Y0044194D01*
X0135294Y0043596D02*
X0091048Y0043596D01*
X0091910Y0042997D02*
X0135892Y0042997D01*
X0136491Y0042399D02*
X0092772Y0042399D01*
X0093634Y0041800D02*
X0137089Y0041800D01*
X0137688Y0041202D02*
X0094606Y0041202D01*
X0095614Y0040603D02*
X0138286Y0040603D01*
X0138885Y0040005D02*
X0096623Y0040005D01*
X0097632Y0039406D02*
X0139483Y0039406D01*
X0140082Y0038808D02*
X0098641Y0038808D01*
X0099649Y0038209D02*
X0140680Y0038209D01*
X0141279Y0037611D02*
X0100658Y0037611D01*
X0101667Y0037012D02*
X0141877Y0037012D01*
X0142476Y0036414D02*
X0102675Y0036414D01*
X0103684Y0035815D02*
X0143074Y0035815D01*
X0143673Y0035217D02*
X0104693Y0035217D01*
X0105703Y0034618D02*
X0144271Y0034618D01*
X0144870Y0034020D02*
X0106898Y0034020D01*
X0108094Y0033421D02*
X0145468Y0033421D01*
X0146067Y0032823D02*
X0109290Y0032823D01*
X0110485Y0032224D02*
X0146665Y0032224D01*
X0147264Y0031626D02*
X0111681Y0031626D01*
X0112877Y0031027D02*
X0147862Y0031027D01*
X0148461Y0030429D02*
X0114072Y0030429D01*
X0115268Y0029830D02*
X0149060Y0029830D01*
X0149658Y0029232D02*
X0116464Y0029232D01*
X0117659Y0028633D02*
X0150257Y0028633D01*
X0150855Y0028035D02*
X0119031Y0028035D01*
X0120476Y0027436D02*
X0151454Y0027436D01*
X0152052Y0026837D02*
X0121921Y0026837D01*
X0123366Y0026239D02*
X0152651Y0026239D01*
X0153249Y0025640D02*
X0124811Y0025640D01*
X0126255Y0025042D02*
X0153311Y0025042D01*
X0153311Y0024443D02*
X0127700Y0024443D01*
X0129145Y0023845D02*
X0153646Y0023845D01*
X0154245Y0023246D02*
X0130590Y0023246D01*
X0132353Y0022648D02*
X0184294Y0022648D01*
X0183695Y0022049D02*
X0134152Y0022049D01*
X0135950Y0021451D02*
X0183271Y0021451D01*
X0183023Y0020852D02*
X0137748Y0020852D01*
X0139546Y0020254D02*
X0182865Y0020254D01*
X0182865Y0019655D02*
X0141345Y0019655D01*
X0143143Y0019057D02*
X0182865Y0019057D01*
X0182865Y0018458D02*
X0145288Y0018458D01*
X0147633Y0017860D02*
X0182865Y0017860D01*
X0182865Y0017261D02*
X0149978Y0017261D01*
X0152323Y0016663D02*
X0182865Y0016663D01*
X0182865Y0016064D02*
X0154668Y0016064D01*
X0157013Y0015466D02*
X0182865Y0015466D01*
X0182865Y0014867D02*
X0160275Y0014867D01*
X0163593Y0014269D02*
X0182865Y0014269D01*
X0182976Y0013670D02*
X0166910Y0013670D01*
X0170227Y0013072D02*
X0183224Y0013072D01*
X0183582Y0012473D02*
X0175477Y0012473D01*
X0181044Y0011875D02*
X0184180Y0011875D01*
X0188498Y0011875D02*
X0212921Y0011875D01*
X0212322Y0012473D02*
X0189097Y0012473D01*
X0189455Y0013072D02*
X0211964Y0013072D01*
X0211716Y0013670D02*
X0189703Y0013670D01*
X0189814Y0014269D02*
X0211605Y0014269D01*
X0211605Y0014867D02*
X0189814Y0014867D01*
X0189814Y0015466D02*
X0211605Y0015466D01*
X0211605Y0016064D02*
X0189814Y0016064D01*
X0189814Y0016663D02*
X0211605Y0016663D01*
X0211605Y0017261D02*
X0189814Y0017261D01*
X0189814Y0017860D02*
X0211605Y0017860D01*
X0211605Y0018458D02*
X0189814Y0018458D01*
X0189814Y0019057D02*
X0211605Y0019057D01*
X0211605Y0019655D02*
X0189814Y0019655D01*
X0189814Y0020254D02*
X0211605Y0020254D01*
X0211763Y0020852D02*
X0189656Y0020852D01*
X0189408Y0021451D02*
X0212011Y0021451D01*
X0212435Y0022049D02*
X0188984Y0022049D01*
X0188385Y0022648D02*
X0213034Y0022648D01*
X0214369Y0023246D02*
X0187050Y0023246D01*
X0185629Y0023246D02*
X0156755Y0023246D01*
X0157354Y0023845D02*
X0267155Y0023845D01*
X0265711Y0023246D02*
X0215790Y0023246D01*
X0217125Y0022648D02*
X0263947Y0022648D01*
X0262149Y0022049D02*
X0217724Y0022049D01*
X0218148Y0021451D02*
X0260351Y0021451D01*
X0258553Y0020852D02*
X0218396Y0020852D01*
X0218554Y0020254D02*
X0256754Y0020254D01*
X0254956Y0019655D02*
X0218554Y0019655D01*
X0218554Y0019057D02*
X0253158Y0019057D01*
X0251013Y0018458D02*
X0218554Y0018458D01*
X0218554Y0017860D02*
X0248668Y0017860D01*
X0246323Y0017261D02*
X0218554Y0017261D01*
X0218554Y0016663D02*
X0243978Y0016663D01*
X0241633Y0016064D02*
X0218554Y0016064D01*
X0218554Y0015466D02*
X0239288Y0015466D01*
X0236025Y0014867D02*
X0218554Y0014867D01*
X0218554Y0014269D02*
X0232708Y0014269D01*
X0229391Y0013670D02*
X0218443Y0013670D01*
X0218195Y0013072D02*
X0226073Y0013072D01*
X0220824Y0012473D02*
X0217837Y0012473D01*
X0209339Y0027593D02*
X0208210Y0027125D01*
X0206988Y0027125D01*
X0205859Y0027593D01*
X0204995Y0028457D01*
X0204528Y0029586D01*
X0204528Y0030808D01*
X0204995Y0031937D01*
X0205859Y0032801D01*
X0206988Y0033268D01*
X0208210Y0033268D01*
X0209339Y0032801D01*
X0210203Y0031937D01*
X0210671Y0030808D01*
X0210671Y0029586D01*
X0210203Y0028457D01*
X0209339Y0027593D01*
X0208961Y0027436D02*
X0275825Y0027436D01*
X0274380Y0026837D02*
X0156845Y0026837D01*
X0157443Y0026239D02*
X0272935Y0026239D01*
X0271490Y0025640D02*
X0157689Y0025640D01*
X0157689Y0025042D02*
X0270045Y0025042D01*
X0268600Y0024443D02*
X0157689Y0024443D01*
X0155500Y0025087D02*
X0115900Y0064687D01*
X0118089Y0064544D02*
X0132311Y0064544D01*
X0132311Y0065142D02*
X0118089Y0065142D01*
X0117942Y0065741D02*
X0132311Y0065741D01*
X0131750Y0066339D02*
X0117343Y0066339D01*
X0118338Y0063945D02*
X0132746Y0063945D01*
X0133344Y0063347D02*
X0118937Y0063347D01*
X0119535Y0062748D02*
X0246065Y0062748D01*
X0246663Y0063347D02*
X0135656Y0063347D01*
X0136254Y0063945D02*
X0247262Y0063945D01*
X0247860Y0064544D02*
X0136689Y0064544D01*
X0136689Y0065142D02*
X0248459Y0065142D01*
X0249057Y0065741D02*
X0136689Y0065741D01*
X0136543Y0066339D02*
X0249656Y0066339D01*
X0245466Y0062150D02*
X0120134Y0062150D01*
X0120733Y0061551D02*
X0244867Y0061551D01*
X0244269Y0060953D02*
X0121331Y0060953D01*
X0121930Y0060354D02*
X0243670Y0060354D01*
X0243072Y0059756D02*
X0122528Y0059756D01*
X0123127Y0059157D02*
X0242473Y0059157D01*
X0241875Y0058559D02*
X0123725Y0058559D01*
X0124324Y0057960D02*
X0241276Y0057960D01*
X0240678Y0057362D02*
X0124922Y0057362D01*
X0125521Y0056763D02*
X0240079Y0056763D01*
X0239481Y0056165D02*
X0126119Y0056165D01*
X0126718Y0055566D02*
X0238882Y0055566D01*
X0238284Y0054968D02*
X0127316Y0054968D01*
X0127915Y0054369D02*
X0237685Y0054369D01*
X0237087Y0053770D02*
X0128513Y0053770D01*
X0129112Y0053172D02*
X0236488Y0053172D01*
X0235890Y0052573D02*
X0129710Y0052573D01*
X0130309Y0051975D02*
X0235291Y0051975D01*
X0234693Y0051376D02*
X0130907Y0051376D01*
X0131506Y0050778D02*
X0234094Y0050778D01*
X0233496Y0050179D02*
X0132104Y0050179D01*
X0132703Y0049581D02*
X0232897Y0049581D01*
X0232299Y0048982D02*
X0133301Y0048982D01*
X0133900Y0048384D02*
X0231700Y0048384D01*
X0231102Y0047785D02*
X0134498Y0047785D01*
X0135097Y0047187D02*
X0193105Y0047187D01*
X0192506Y0046588D02*
X0135695Y0046588D01*
X0136294Y0045990D02*
X0192311Y0045990D01*
X0192311Y0045391D02*
X0136892Y0045391D01*
X0137491Y0044793D02*
X0192311Y0044793D01*
X0192697Y0044194D02*
X0138089Y0044194D01*
X0138688Y0043596D02*
X0184382Y0043596D01*
X0184371Y0043591D02*
X0183394Y0042614D01*
X0182865Y0041337D01*
X0182865Y0034805D01*
X0183394Y0033528D01*
X0184371Y0032550D01*
X0185648Y0032021D01*
X0187031Y0032021D01*
X0188308Y0032550D01*
X0189285Y0033528D01*
X0189814Y0034805D01*
X0189814Y0041337D01*
X0189285Y0042614D01*
X0188308Y0043591D01*
X0187031Y0044120D01*
X0185648Y0044120D01*
X0184371Y0043591D01*
X0183777Y0042997D02*
X0139286Y0042997D01*
X0139885Y0042399D02*
X0183304Y0042399D01*
X0183057Y0041800D02*
X0140483Y0041800D01*
X0141082Y0041202D02*
X0182865Y0041202D01*
X0182865Y0040603D02*
X0141680Y0040603D01*
X0142279Y0040005D02*
X0182865Y0040005D01*
X0182865Y0039406D02*
X0142877Y0039406D01*
X0143476Y0038808D02*
X0182865Y0038808D01*
X0182865Y0038209D02*
X0144074Y0038209D01*
X0144673Y0037611D02*
X0182865Y0037611D01*
X0182865Y0037012D02*
X0145271Y0037012D01*
X0145870Y0036414D02*
X0182865Y0036414D01*
X0182865Y0035815D02*
X0146468Y0035815D01*
X0147067Y0035217D02*
X0182865Y0035217D01*
X0182942Y0034618D02*
X0147666Y0034618D01*
X0148264Y0034020D02*
X0183190Y0034020D01*
X0183500Y0033421D02*
X0148863Y0033421D01*
X0149461Y0032823D02*
X0184099Y0032823D01*
X0185159Y0032224D02*
X0150060Y0032224D01*
X0150658Y0031626D02*
X0191087Y0031626D01*
X0191216Y0031937D02*
X0190748Y0030808D01*
X0190748Y0029586D01*
X0191216Y0028457D01*
X0192080Y0027593D01*
X0193209Y0027125D01*
X0194431Y0027125D01*
X0195560Y0027593D01*
X0196424Y0028457D01*
X0196891Y0029586D01*
X0196891Y0030808D01*
X0196424Y0031937D01*
X0195560Y0032801D01*
X0194431Y0033268D01*
X0193209Y0033268D01*
X0192080Y0032801D01*
X0191216Y0031937D01*
X0191503Y0032224D02*
X0187520Y0032224D01*
X0188580Y0032823D02*
X0192132Y0032823D01*
X0190839Y0031027D02*
X0151257Y0031027D01*
X0151855Y0030429D02*
X0190748Y0030429D01*
X0190748Y0029830D02*
X0152454Y0029830D01*
X0153052Y0029232D02*
X0190895Y0029232D01*
X0191143Y0028633D02*
X0153651Y0028633D01*
X0154249Y0028035D02*
X0191638Y0028035D01*
X0192458Y0027436D02*
X0154848Y0027436D01*
X0188297Y0043596D02*
X0193295Y0043596D01*
X0194500Y0045487D02*
X0230500Y0045487D01*
X0230503Y0047187D02*
X0195895Y0047187D01*
X0196303Y0044194D02*
X0306115Y0044194D01*
X0305253Y0043596D02*
X0217037Y0043596D01*
X0217048Y0043591D02*
X0215771Y0044120D01*
X0214388Y0044120D01*
X0213111Y0043591D01*
X0212134Y0042614D01*
X0211605Y0041337D01*
X0211605Y0034805D01*
X0212134Y0033528D01*
X0213111Y0032550D01*
X0214388Y0032021D01*
X0215771Y0032021D01*
X0217048Y0032550D01*
X0218025Y0033528D01*
X0218554Y0034805D01*
X0218554Y0041337D01*
X0218025Y0042614D01*
X0217048Y0043591D01*
X0217642Y0042997D02*
X0304391Y0042997D01*
X0303529Y0042399D02*
X0218114Y0042399D01*
X0218362Y0041800D02*
X0302667Y0041800D01*
X0301695Y0041202D02*
X0218554Y0041202D01*
X0218554Y0040603D02*
X0300687Y0040603D01*
X0299678Y0040005D02*
X0218554Y0040005D01*
X0218554Y0039406D02*
X0298669Y0039406D01*
X0297660Y0038808D02*
X0218554Y0038808D01*
X0218554Y0038209D02*
X0296652Y0038209D01*
X0295643Y0037611D02*
X0218554Y0037611D01*
X0218554Y0037012D02*
X0294634Y0037012D01*
X0293625Y0036414D02*
X0218554Y0036414D01*
X0218554Y0035815D02*
X0292617Y0035815D01*
X0291608Y0035217D02*
X0218554Y0035217D01*
X0218477Y0034618D02*
X0290598Y0034618D01*
X0289403Y0034020D02*
X0218229Y0034020D01*
X0217919Y0033421D02*
X0288207Y0033421D01*
X0287011Y0032823D02*
X0217320Y0032823D01*
X0216260Y0032224D02*
X0285816Y0032224D01*
X0284620Y0031626D02*
X0210332Y0031626D01*
X0210580Y0031027D02*
X0283424Y0031027D01*
X0282229Y0030429D02*
X0210671Y0030429D01*
X0210671Y0029830D02*
X0281033Y0029830D01*
X0279837Y0029232D02*
X0210524Y0029232D01*
X0210276Y0028633D02*
X0278642Y0028633D01*
X0277270Y0028035D02*
X0209781Y0028035D01*
X0206238Y0027436D02*
X0195181Y0027436D01*
X0196001Y0028035D02*
X0205418Y0028035D01*
X0204922Y0028633D02*
X0196497Y0028633D01*
X0196745Y0029232D02*
X0204674Y0029232D01*
X0204528Y0029830D02*
X0196891Y0029830D01*
X0196891Y0030429D02*
X0204528Y0030429D01*
X0204618Y0031027D02*
X0196801Y0031027D01*
X0196553Y0031626D02*
X0204866Y0031626D01*
X0205282Y0032224D02*
X0196136Y0032224D01*
X0195507Y0032823D02*
X0205912Y0032823D01*
X0209287Y0032823D02*
X0212839Y0032823D01*
X0212240Y0033421D02*
X0189179Y0033421D01*
X0189489Y0034020D02*
X0211930Y0034020D01*
X0211682Y0034618D02*
X0189737Y0034618D01*
X0189814Y0035217D02*
X0211605Y0035217D01*
X0211605Y0035815D02*
X0189814Y0035815D01*
X0189814Y0036414D02*
X0211605Y0036414D01*
X0211605Y0037012D02*
X0189814Y0037012D01*
X0189814Y0037611D02*
X0211605Y0037611D01*
X0211605Y0038209D02*
X0189814Y0038209D01*
X0189814Y0038808D02*
X0211605Y0038808D01*
X0211605Y0039406D02*
X0189814Y0039406D01*
X0189814Y0040005D02*
X0211605Y0040005D01*
X0211605Y0040603D02*
X0189814Y0040603D01*
X0189814Y0041202D02*
X0211605Y0041202D01*
X0211797Y0041800D02*
X0189622Y0041800D01*
X0189374Y0042399D02*
X0212045Y0042399D01*
X0212517Y0042997D02*
X0188902Y0042997D01*
X0195705Y0043596D02*
X0213122Y0043596D01*
X0213899Y0032224D02*
X0209916Y0032224D01*
X0205222Y0011276D02*
X0191079Y0011276D01*
X0204700Y0130687D02*
X0190300Y0145087D01*
X0186952Y0185443D02*
X0209447Y0185443D01*
X0208848Y0186041D02*
X0187551Y0186041D01*
X0187689Y0186640D02*
X0208300Y0186640D01*
X0208300Y0187239D02*
X0187689Y0187239D01*
X0187689Y0187837D02*
X0208300Y0187837D01*
X0208300Y0188436D02*
X0187247Y0188436D01*
X0186648Y0189034D02*
X0208300Y0189034D01*
X0208300Y0189633D02*
X0005787Y0189633D01*
X0005727Y0190231D02*
X0208300Y0190231D01*
X0208300Y0190830D02*
X0005705Y0190830D01*
X0005684Y0191428D02*
X0208300Y0191428D01*
X0208300Y0192027D02*
X0005662Y0192027D01*
X0005641Y0192625D02*
X0208300Y0192625D01*
X0208300Y0193224D02*
X0005620Y0193224D01*
X0005598Y0193822D02*
X0208300Y0193822D01*
X0208300Y0194421D02*
X0005577Y0194421D01*
X0005556Y0195019D02*
X0160072Y0195019D01*
X0161500Y0196687D02*
X0140500Y0196687D01*
X0109900Y0227287D01*
X0112089Y0227339D02*
X0213100Y0227339D01*
X0213100Y0227937D02*
X0112089Y0227937D01*
X0111746Y0228536D02*
X0213100Y0228536D01*
X0213100Y0229134D02*
X0111148Y0229134D01*
X0112143Y0226740D02*
X0213100Y0226740D01*
X0213100Y0226142D02*
X0112742Y0226142D01*
X0113340Y0225543D02*
X0213100Y0225543D01*
X0213100Y0224945D02*
X0113939Y0224945D01*
X0114537Y0224346D02*
X0213100Y0224346D01*
X0213100Y0223748D02*
X0115136Y0223748D01*
X0115734Y0223149D02*
X0213100Y0223149D01*
X0213100Y0222551D02*
X0116333Y0222551D01*
X0116931Y0221952D02*
X0213100Y0221952D01*
X0213100Y0221354D02*
X0117530Y0221354D01*
X0118128Y0220755D02*
X0213100Y0220755D01*
X0213100Y0220157D02*
X0118727Y0220157D01*
X0119326Y0219558D02*
X0213100Y0219558D01*
X0213100Y0218960D02*
X0119924Y0218960D01*
X0120523Y0218361D02*
X0193879Y0218361D01*
X0193280Y0217763D02*
X0121121Y0217763D01*
X0121720Y0217164D02*
X0192911Y0217164D01*
X0192911Y0216566D02*
X0122318Y0216566D01*
X0122917Y0215967D02*
X0192911Y0215967D01*
X0193122Y0215369D02*
X0123515Y0215369D01*
X0124114Y0214770D02*
X0193721Y0214770D01*
X0195718Y0214172D02*
X0124712Y0214172D01*
X0125311Y0213573D02*
X0196317Y0213573D01*
X0196915Y0212975D02*
X0125909Y0212975D01*
X0126508Y0212376D02*
X0197514Y0212376D01*
X0198112Y0211777D02*
X0127106Y0211777D01*
X0127705Y0211179D02*
X0198711Y0211179D01*
X0199309Y0210580D02*
X0128303Y0210580D01*
X0128902Y0209982D02*
X0199908Y0209982D01*
X0200506Y0209383D02*
X0129500Y0209383D01*
X0130099Y0208785D02*
X0201105Y0208785D01*
X0201703Y0208186D02*
X0130697Y0208186D01*
X0131296Y0207588D02*
X0202302Y0207588D01*
X0202900Y0206989D02*
X0131894Y0206989D01*
X0132493Y0206391D02*
X0203499Y0206391D01*
X0204097Y0205792D02*
X0133091Y0205792D01*
X0133690Y0205194D02*
X0204696Y0205194D01*
X0205294Y0204595D02*
X0134288Y0204595D01*
X0134887Y0203997D02*
X0205893Y0203997D01*
X0206491Y0203398D02*
X0135485Y0203398D01*
X0136084Y0202800D02*
X0205918Y0202800D01*
X0205319Y0202201D02*
X0178881Y0202201D01*
X0179479Y0201603D02*
X0204911Y0201603D01*
X0206500Y0200287D02*
X0207100Y0200887D01*
X0206500Y0200287D02*
X0177700Y0200287D01*
X0175511Y0200406D02*
X0138478Y0200406D01*
X0137879Y0201004D02*
X0175511Y0201004D01*
X0175921Y0201603D02*
X0137281Y0201603D01*
X0136682Y0202201D02*
X0176519Y0202201D01*
X0175511Y0199807D02*
X0139076Y0199807D01*
X0139675Y0199209D02*
X0175682Y0199209D01*
X0176281Y0198610D02*
X0162672Y0198610D01*
X0163271Y0198012D02*
X0208300Y0198012D01*
X0208300Y0198610D02*
X0179119Y0198610D01*
X0184352Y0189034D02*
X0005851Y0189034D01*
X0005916Y0188436D02*
X0183753Y0188436D01*
X0001300Y0203937D02*
X0001359Y0208768D01*
X0001537Y0213596D01*
X0001833Y0218418D01*
X0002248Y0223232D01*
X0002780Y0228034D01*
X0003431Y0232821D01*
X0004198Y0237591D01*
X0005082Y0242341D01*
X0006083Y0247067D01*
X0007199Y0251768D01*
X0008431Y0256439D01*
X0009776Y0261080D01*
X0011235Y0265685D01*
X0012807Y0270254D01*
X0014490Y0274782D01*
X0016284Y0279268D01*
X0018188Y0283709D01*
X0020200Y0288101D01*
X0022319Y0292443D01*
X0024544Y0296731D01*
X0026873Y0300964D01*
X0029306Y0305138D01*
X0031841Y0309251D01*
X0034475Y0313301D01*
X0037208Y0317285D01*
X0040039Y0321200D01*
X0042964Y0325045D01*
X0045983Y0328817D01*
X0049093Y0332514D01*
X0052294Y0336133D01*
X0055582Y0339673D01*
X0058956Y0343131D01*
X0062414Y0346505D01*
X0065954Y0349793D01*
X0069573Y0352994D01*
X0073270Y0356104D01*
X0077042Y0359123D01*
X0080887Y0362048D01*
X0084802Y0364879D01*
X0088786Y0367612D01*
X0092836Y0370246D01*
X0096949Y0372781D01*
X0101123Y0375214D01*
X0105356Y0377543D01*
X0109644Y0379768D01*
X0113986Y0381887D01*
X0118378Y0383899D01*
X0122819Y0385803D01*
X0127305Y0387597D01*
X0131833Y0389280D01*
X0136402Y0390852D01*
X0141007Y0392311D01*
X0145648Y0393656D01*
X0150319Y0394888D01*
X0155020Y0396004D01*
X0159746Y0397005D01*
X0164496Y0397889D01*
X0169266Y0398656D01*
X0174053Y0399307D01*
X0178855Y0399839D01*
X0183669Y0400254D01*
X0188491Y0400550D01*
X0193319Y0400728D01*
X0198150Y0400787D01*
X0202981Y0400728D01*
X0207809Y0400550D01*
X0212631Y0400254D01*
X0217445Y0399839D01*
X0222247Y0399307D01*
X0227034Y0398656D01*
X0231804Y0397889D01*
X0236554Y0397005D01*
X0241280Y0396004D01*
X0245981Y0394888D01*
X0250652Y0393656D01*
X0255293Y0392311D01*
X0259898Y0390852D01*
X0264467Y0389280D01*
X0268995Y0387597D01*
X0273481Y0385803D01*
X0277922Y0383899D01*
X0282314Y0381887D01*
X0286656Y0379768D01*
X0290944Y0377543D01*
X0295177Y0375214D01*
X0299351Y0372781D01*
X0303464Y0370246D01*
X0307514Y0367612D01*
X0311498Y0364879D01*
X0315413Y0362048D01*
X0319258Y0359123D01*
X0323030Y0356104D01*
X0326727Y0352994D01*
X0330346Y0349793D01*
X0333886Y0346505D01*
X0337344Y0343131D01*
X0340718Y0339673D01*
X0344006Y0336133D01*
X0347207Y0332514D01*
X0350317Y0328817D01*
X0353336Y0325045D01*
X0356261Y0321200D01*
X0359092Y0317285D01*
X0361825Y0313301D01*
X0364459Y0309251D01*
X0366994Y0305138D01*
X0369427Y0300964D01*
X0371756Y0296731D01*
X0373981Y0292443D01*
X0376100Y0288101D01*
X0378112Y0283709D01*
X0380016Y0279268D01*
X0381810Y0274782D01*
X0383493Y0270254D01*
X0385065Y0265685D01*
X0386524Y0261080D01*
X0387869Y0256439D01*
X0389101Y0251768D01*
X0390217Y0247067D01*
X0391218Y0242341D01*
X0392102Y0237591D01*
X0392869Y0232821D01*
X0393520Y0228034D01*
X0394052Y0223232D01*
X0394467Y0218418D01*
X0394763Y0213596D01*
X0394941Y0208768D01*
X0395000Y0203937D01*
X0394941Y0199106D01*
X0394763Y0194278D01*
X0394467Y0189456D01*
X0394052Y0184642D01*
X0393520Y0179840D01*
X0392869Y0175053D01*
X0392102Y0170283D01*
X0391218Y0165533D01*
X0390217Y0160807D01*
X0389101Y0156106D01*
X0387869Y0151435D01*
X0386524Y0146794D01*
X0385065Y0142189D01*
X0383493Y0137620D01*
X0381810Y0133092D01*
X0380016Y0128606D01*
X0378112Y0124165D01*
X0376100Y0119773D01*
X0373981Y0115431D01*
X0371756Y0111143D01*
X0369427Y0106910D01*
X0366994Y0102736D01*
X0364459Y0098623D01*
X0361825Y0094573D01*
X0359092Y0090589D01*
X0356261Y0086674D01*
X0353336Y0082829D01*
X0350317Y0079057D01*
X0347207Y0075360D01*
X0344006Y0071741D01*
X0340718Y0068201D01*
X0337344Y0064743D01*
X0333886Y0061369D01*
X0330346Y0058081D01*
X0326727Y0054880D01*
X0323030Y0051770D01*
X0319258Y0048751D01*
X0315413Y0045826D01*
X0311498Y0042995D01*
X0307514Y0040262D01*
X0303464Y0037628D01*
X0299351Y0035093D01*
X0295177Y0032660D01*
X0290944Y0030331D01*
X0286656Y0028106D01*
X0282314Y0025987D01*
X0277922Y0023975D01*
X0273481Y0022071D01*
X0268995Y0020277D01*
X0264467Y0018594D01*
X0259898Y0017022D01*
X0255293Y0015563D01*
X0250652Y0014218D01*
X0245981Y0012986D01*
X0241280Y0011870D01*
X0236554Y0010869D01*
X0231804Y0009985D01*
X0227034Y0009218D01*
X0222247Y0008567D01*
X0217445Y0008035D01*
X0212631Y0007620D01*
X0207809Y0007324D01*
X0202981Y0007146D01*
X0198150Y0007087D01*
X0193319Y0007146D01*
X0188491Y0007324D01*
X0183669Y0007620D01*
X0178855Y0008035D01*
X0174053Y0008567D01*
X0169266Y0009218D01*
X0164496Y0009985D01*
X0159746Y0010869D01*
X0155020Y0011870D01*
X0150319Y0012986D01*
X0145648Y0014218D01*
X0141007Y0015563D01*
X0136402Y0017022D01*
X0131833Y0018594D01*
X0127305Y0020277D01*
X0122819Y0022071D01*
X0118378Y0023975D01*
X0113986Y0025987D01*
X0109644Y0028106D01*
X0105356Y0030331D01*
X0101123Y0032660D01*
X0096949Y0035093D01*
X0092836Y0037628D01*
X0088786Y0040262D01*
X0084802Y0042995D01*
X0080887Y0045826D01*
X0077042Y0048751D01*
X0073270Y0051770D01*
X0069573Y0054880D01*
X0065954Y0058081D01*
X0062414Y0061369D01*
X0058956Y0064743D01*
X0055582Y0068201D01*
X0052294Y0071741D01*
X0049093Y0075360D01*
X0045983Y0079057D01*
X0042964Y0082829D01*
X0040039Y0086674D01*
X0037208Y0090589D01*
X0034475Y0094573D01*
X0031841Y0098623D01*
X0029306Y0102736D01*
X0026873Y0106910D01*
X0024544Y0111143D01*
X0022319Y0115431D01*
X0020200Y0119773D01*
X0018188Y0124165D01*
X0016284Y0128606D01*
X0014490Y0133092D01*
X0012807Y0137620D01*
X0011235Y0142189D01*
X0009776Y0146794D01*
X0008431Y0151435D01*
X0007199Y0156106D01*
X0006083Y0160807D01*
X0005082Y0165533D01*
X0004198Y0170283D01*
X0003431Y0175053D01*
X0002780Y0179840D01*
X0002248Y0184642D01*
X0001833Y0189456D01*
X0001537Y0194278D01*
X0001359Y0199106D01*
X0001300Y0203937D01*
X0031543Y0300956D02*
X0194500Y0300956D01*
X0194500Y0301554D02*
X0031898Y0301554D01*
X0032253Y0302153D02*
X0194500Y0302153D01*
X0194500Y0302751D02*
X0032608Y0302751D01*
X0032963Y0303350D02*
X0194500Y0303350D01*
X0194500Y0303948D02*
X0033319Y0303948D01*
X0033674Y0304547D02*
X0194500Y0304547D01*
X0194500Y0305145D02*
X0190330Y0305145D01*
X0190729Y0305311D02*
X0191540Y0306122D01*
X0191980Y0307182D01*
X0191980Y0308330D01*
X0191540Y0309390D01*
X0190729Y0310201D01*
X0189669Y0310640D01*
X0188522Y0310640D01*
X0187461Y0310201D01*
X0186650Y0309390D01*
X0186211Y0308330D01*
X0186211Y0307182D01*
X0186650Y0306122D01*
X0187461Y0305311D01*
X0188522Y0304872D01*
X0189669Y0304872D01*
X0190729Y0305311D01*
X0191162Y0305744D02*
X0194500Y0305744D01*
X0194500Y0306342D02*
X0191632Y0306342D01*
X0191880Y0306941D02*
X0194500Y0306941D01*
X0194500Y0307539D02*
X0191980Y0307539D01*
X0191980Y0308138D02*
X0194500Y0308138D01*
X0194500Y0308736D02*
X0191811Y0308736D01*
X0191563Y0309335D02*
X0194500Y0309335D01*
X0195050Y0309933D02*
X0190997Y0309933D01*
X0189930Y0310532D02*
X0195648Y0310532D01*
X0196247Y0311130D02*
X0037872Y0311130D01*
X0037457Y0310532D02*
X0188260Y0310532D01*
X0187194Y0309933D02*
X0037041Y0309933D01*
X0036626Y0309335D02*
X0186627Y0309335D01*
X0186379Y0308736D02*
X0036210Y0308736D01*
X0035804Y0308138D02*
X0186211Y0308138D01*
X0186211Y0307539D02*
X0035449Y0307539D01*
X0035094Y0306941D02*
X0186311Y0306941D01*
X0186559Y0306342D02*
X0034739Y0306342D01*
X0034384Y0305744D02*
X0187028Y0305744D01*
X0187861Y0305145D02*
X0034029Y0305145D01*
X0038288Y0311729D02*
X0196845Y0311729D01*
X0199095Y0307756D02*
X0199300Y0307687D01*
X0200500Y0305145D02*
X0207861Y0305145D01*
X0210330Y0305145D02*
X0214862Y0305145D01*
X0215460Y0305744D02*
X0211162Y0305744D01*
X0211632Y0306342D02*
X0216059Y0306342D01*
X0216657Y0306941D02*
X0211880Y0306941D01*
X0211980Y0307539D02*
X0217256Y0307539D01*
X0217854Y0308138D02*
X0211980Y0308138D01*
X0211811Y0308736D02*
X0218453Y0308736D01*
X0219051Y0309335D02*
X0211563Y0309335D01*
X0210997Y0309933D02*
X0219650Y0309933D01*
X0220248Y0310532D02*
X0209930Y0310532D01*
X0207753Y0311130D02*
X0220847Y0311130D01*
X0221445Y0311729D02*
X0207155Y0311729D01*
X0200500Y0304547D02*
X0214263Y0304547D01*
X0213665Y0303948D02*
X0200500Y0303948D01*
X0200534Y0303350D02*
X0213066Y0303350D01*
X0212468Y0302751D02*
X0201132Y0302751D01*
X0201731Y0302153D02*
X0211869Y0302153D01*
X0211271Y0301554D02*
X0202329Y0301554D01*
X0202928Y0300956D02*
X0210672Y0300956D01*
X0199977Y0300513D02*
X0198803Y0301687D01*
X0198100Y0302390D01*
X0198100Y0305046D01*
X0197461Y0305311D01*
X0196900Y0305872D01*
X0196900Y0299640D01*
X0197461Y0300201D01*
X0198522Y0300640D01*
X0199669Y0300640D01*
X0199977Y0300513D01*
X0199534Y0300956D02*
X0196900Y0300956D01*
X0196900Y0301554D02*
X0198935Y0301554D01*
X0198337Y0302153D02*
X0196900Y0302153D01*
X0196900Y0302751D02*
X0198100Y0302751D01*
X0198100Y0303350D02*
X0196900Y0303350D01*
X0196900Y0303948D02*
X0198100Y0303948D01*
X0198100Y0304547D02*
X0196900Y0304547D01*
X0196900Y0305145D02*
X0197861Y0305145D01*
X0197028Y0305744D02*
X0196900Y0305744D01*
X0196900Y0300357D02*
X0197838Y0300357D01*
X0197019Y0299759D02*
X0196900Y0299759D01*
X0195700Y0296887D02*
X0214300Y0278287D01*
X0214300Y0187687D01*
X0212552Y0189034D02*
X0211900Y0189034D01*
X0211900Y0188436D02*
X0212111Y0188436D01*
X0211900Y0189633D02*
X0213100Y0189633D01*
X0213100Y0190231D02*
X0211900Y0190231D01*
X0211900Y0190830D02*
X0213100Y0190830D01*
X0213100Y0191428D02*
X0211900Y0191428D01*
X0211900Y0192027D02*
X0213100Y0192027D01*
X0213100Y0192625D02*
X0211900Y0192625D01*
X0211900Y0193224D02*
X0213100Y0193224D01*
X0213100Y0193822D02*
X0211900Y0193822D01*
X0211900Y0194421D02*
X0213100Y0194421D01*
X0213100Y0195019D02*
X0211900Y0195019D01*
X0211900Y0195618D02*
X0213100Y0195618D01*
X0213100Y0196216D02*
X0211900Y0196216D01*
X0211900Y0196815D02*
X0213100Y0196815D01*
X0213100Y0197413D02*
X0211900Y0197413D01*
X0211900Y0198012D02*
X0213100Y0198012D01*
X0213100Y0198610D02*
X0211900Y0198610D01*
X0211900Y0199209D02*
X0213100Y0199209D01*
X0213100Y0199807D02*
X0211900Y0199807D01*
X0211900Y0200406D02*
X0213100Y0200406D01*
X0213100Y0201004D02*
X0211900Y0201004D01*
X0211900Y0201603D02*
X0213100Y0201603D01*
X0213100Y0202201D02*
X0211900Y0202201D01*
X0211900Y0202800D02*
X0213100Y0202800D01*
X0213100Y0203398D02*
X0211900Y0203398D01*
X0211900Y0203997D02*
X0213100Y0203997D01*
X0213100Y0204595D02*
X0211900Y0204595D01*
X0211900Y0205194D02*
X0213100Y0205194D01*
X0213100Y0205792D02*
X0211900Y0205792D01*
X0211900Y0206391D02*
X0213100Y0206391D01*
X0213100Y0206989D02*
X0211900Y0206989D01*
X0211696Y0207588D02*
X0213100Y0207588D01*
X0213100Y0208186D02*
X0211097Y0208186D01*
X0210499Y0208785D02*
X0213100Y0208785D01*
X0213100Y0209383D02*
X0209900Y0209383D01*
X0209302Y0209982D02*
X0213100Y0209982D01*
X0213100Y0210580D02*
X0208703Y0210580D01*
X0208105Y0211179D02*
X0213100Y0211179D01*
X0213100Y0211777D02*
X0207506Y0211777D01*
X0206908Y0212376D02*
X0213100Y0212376D01*
X0213100Y0212975D02*
X0206309Y0212975D01*
X0205711Y0213573D02*
X0213100Y0213573D01*
X0213100Y0214172D02*
X0205112Y0214172D01*
X0204514Y0214770D02*
X0213100Y0214770D01*
X0213100Y0215369D02*
X0203915Y0215369D01*
X0203317Y0215967D02*
X0213100Y0215967D01*
X0209500Y0202087D02*
X0195100Y0216487D01*
X0208300Y0197413D02*
X0163689Y0197413D01*
X0163689Y0196815D02*
X0208300Y0196815D01*
X0208300Y0196216D02*
X0163689Y0196216D01*
X0163527Y0195618D02*
X0208300Y0195618D01*
X0208300Y0195019D02*
X0162928Y0195019D01*
X0159729Y0198012D02*
X0140872Y0198012D01*
X0140273Y0198610D02*
X0160328Y0198610D01*
X0222044Y0312327D02*
X0038704Y0312327D01*
X0039119Y0312926D02*
X0222642Y0312926D01*
X0223241Y0313524D02*
X0039535Y0313524D01*
X0039950Y0314123D02*
X0223839Y0314123D01*
X0224438Y0314721D02*
X0040366Y0314721D01*
X0040781Y0315320D02*
X0225036Y0315320D01*
X0225635Y0315918D02*
X0041197Y0315918D01*
X0041612Y0316517D02*
X0226233Y0316517D01*
X0226832Y0317115D02*
X0042028Y0317115D01*
X0042443Y0317714D02*
X0227430Y0317714D01*
X0228029Y0318313D02*
X0042859Y0318313D01*
X0043275Y0318911D02*
X0228627Y0318911D01*
X0229226Y0319510D02*
X0043690Y0319510D01*
X0044168Y0320108D02*
X0229824Y0320108D01*
X0230423Y0320707D02*
X0044651Y0320707D01*
X0045133Y0321305D02*
X0231021Y0321305D01*
X0231620Y0321904D02*
X0045615Y0321904D01*
X0046098Y0322502D02*
X0232218Y0322502D01*
X0232817Y0323101D02*
X0046580Y0323101D01*
X0047062Y0323699D02*
X0233415Y0323699D01*
X0234014Y0324298D02*
X0047545Y0324298D01*
X0048027Y0324896D02*
X0234612Y0324896D01*
X0235211Y0325495D02*
X0048509Y0325495D01*
X0048992Y0326093D02*
X0235809Y0326093D01*
X0236408Y0326692D02*
X0049474Y0326692D01*
X0049956Y0327290D02*
X0237007Y0327290D01*
X0237605Y0327889D02*
X0050438Y0327889D01*
X0050921Y0328487D02*
X0238204Y0328487D01*
X0238802Y0329086D02*
X0051403Y0329086D01*
X0051885Y0329684D02*
X0239401Y0329684D01*
X0239999Y0330283D02*
X0052370Y0330283D01*
X0052927Y0330881D02*
X0240598Y0330881D01*
X0241196Y0331480D02*
X0053484Y0331480D01*
X0054041Y0332078D02*
X0241795Y0332078D01*
X0242393Y0332677D02*
X0054598Y0332677D01*
X0055156Y0333275D02*
X0242992Y0333275D01*
X0243590Y0333874D02*
X0055713Y0333874D01*
X0056270Y0334472D02*
X0244189Y0334472D01*
X0244787Y0335071D02*
X0056827Y0335071D01*
X0057385Y0335669D02*
X0245386Y0335669D01*
X0245984Y0336268D02*
X0057942Y0336268D01*
X0058499Y0336866D02*
X0246583Y0336866D01*
X0247181Y0337465D02*
X0059056Y0337465D01*
X0059614Y0338063D02*
X0247780Y0338063D01*
X0248378Y0338662D02*
X0060171Y0338662D01*
X0060728Y0339260D02*
X0248977Y0339260D01*
X0249575Y0339859D02*
X0061285Y0339859D01*
X0061858Y0340457D02*
X0249700Y0340457D01*
X0249700Y0341056D02*
X0062501Y0341056D01*
X0063144Y0341654D02*
X0249700Y0341654D01*
X0249700Y0342253D02*
X0063787Y0342253D01*
X0064430Y0342851D02*
X0249700Y0342851D01*
X0249700Y0343450D02*
X0065072Y0343450D01*
X0065715Y0344048D02*
X0249700Y0344048D01*
X0249244Y0344647D02*
X0066358Y0344647D01*
X0067001Y0345246D02*
X0248711Y0345246D01*
X0248711Y0345844D02*
X0067644Y0345844D01*
X0068287Y0346443D02*
X0248711Y0346443D01*
X0248759Y0347041D02*
X0068930Y0347041D01*
X0069572Y0347640D02*
X0249357Y0347640D01*
X0249956Y0348238D02*
X0070215Y0348238D01*
X0070858Y0348837D02*
X0325443Y0348837D01*
X0324800Y0349435D02*
X0071501Y0349435D01*
X0072194Y0350034D02*
X0324107Y0350034D01*
X0323364Y0350632D02*
X0072937Y0350632D01*
X0073680Y0351231D02*
X0322621Y0351231D01*
X0321878Y0351829D02*
X0074422Y0351829D01*
X0075165Y0352428D02*
X0321136Y0352428D01*
X0320393Y0353026D02*
X0075908Y0353026D01*
X0076650Y0353625D02*
X0319650Y0353625D01*
X0318908Y0354223D02*
X0077393Y0354223D01*
X0078136Y0354822D02*
X0318165Y0354822D01*
X0317422Y0355420D02*
X0078879Y0355420D01*
X0079621Y0356019D02*
X0316679Y0356019D01*
X0315937Y0356617D02*
X0080364Y0356617D01*
X0081107Y0357216D02*
X0315194Y0357216D01*
X0314451Y0357814D02*
X0081849Y0357814D01*
X0082600Y0358413D02*
X0313701Y0358413D01*
X0312839Y0359011D02*
X0083462Y0359011D01*
X0084324Y0359610D02*
X0311977Y0359610D01*
X0311114Y0360208D02*
X0201208Y0360208D01*
X0201443Y0360228D02*
X0197043Y0359863D01*
X0192763Y0360947D01*
X0192763Y0360947D01*
X0189067Y0363362D01*
X0189067Y0363362D01*
X0186356Y0366845D01*
X0186356Y0366845D01*
X0184922Y0371021D01*
X0184922Y0375436D01*
X0186356Y0379611D01*
X0186356Y0379611D01*
X0189067Y0383095D01*
X0189067Y0383095D01*
X0189067Y0383095D01*
X0192763Y0385510D01*
X0192763Y0385510D01*
X0197043Y0386594D01*
X0197043Y0386594D01*
X0201443Y0386229D01*
X0201443Y0386229D01*
X0205486Y0384456D01*
X0205486Y0384456D01*
X0208734Y0381466D01*
X0208734Y0381466D01*
X0210835Y0377583D01*
X0210835Y0377583D01*
X0211561Y0373228D01*
X0210835Y0368874D01*
X0208734Y0364991D01*
X0208734Y0364991D01*
X0205486Y0362001D01*
X0205486Y0362001D01*
X0201443Y0360228D01*
X0202763Y0360807D02*
X0310252Y0360807D01*
X0309390Y0361405D02*
X0204127Y0361405D01*
X0205488Y0362004D02*
X0308528Y0362004D01*
X0307666Y0362602D02*
X0206139Y0362602D01*
X0206789Y0363201D02*
X0306804Y0363201D01*
X0305942Y0363799D02*
X0207439Y0363799D01*
X0208089Y0364398D02*
X0305080Y0364398D01*
X0304218Y0364996D02*
X0208736Y0364996D01*
X0209060Y0365595D02*
X0303356Y0365595D01*
X0302494Y0366193D02*
X0209384Y0366193D01*
X0209708Y0366792D02*
X0301494Y0366792D01*
X0300485Y0367390D02*
X0210032Y0367390D01*
X0210356Y0367989D02*
X0299476Y0367989D01*
X0298467Y0368587D02*
X0210680Y0368587D01*
X0210835Y0368874D02*
X0210835Y0368874D01*
X0210887Y0369186D02*
X0297459Y0369186D01*
X0296450Y0369784D02*
X0210987Y0369784D01*
X0211087Y0370383D02*
X0295441Y0370383D01*
X0294432Y0370981D02*
X0211186Y0370981D01*
X0211286Y0371580D02*
X0293424Y0371580D01*
X0292415Y0372179D02*
X0211386Y0372179D01*
X0211486Y0372777D02*
X0291406Y0372777D01*
X0290359Y0373376D02*
X0211537Y0373376D01*
X0211437Y0373974D02*
X0289164Y0373974D01*
X0287968Y0374573D02*
X0211337Y0374573D01*
X0211237Y0375171D02*
X0286772Y0375171D01*
X0285577Y0375770D02*
X0211137Y0375770D01*
X0211037Y0376368D02*
X0284381Y0376368D01*
X0283185Y0376967D02*
X0210938Y0376967D01*
X0210838Y0377565D02*
X0281989Y0377565D01*
X0280794Y0378164D02*
X0210520Y0378164D01*
X0210197Y0378762D02*
X0279598Y0378762D01*
X0278402Y0379361D02*
X0209873Y0379361D01*
X0209549Y0379959D02*
X0276981Y0379959D01*
X0275536Y0380558D02*
X0209225Y0380558D01*
X0208901Y0381156D02*
X0274091Y0381156D01*
X0272646Y0381755D02*
X0208419Y0381755D01*
X0207769Y0382353D02*
X0271201Y0382353D01*
X0269756Y0382952D02*
X0207119Y0382952D01*
X0206469Y0383550D02*
X0268311Y0383550D01*
X0266867Y0384149D02*
X0205819Y0384149D01*
X0204821Y0384747D02*
X0265386Y0384747D01*
X0263588Y0385346D02*
X0203456Y0385346D01*
X0202092Y0385944D02*
X0261790Y0385944D01*
X0259991Y0386543D02*
X0197656Y0386543D01*
X0196842Y0386543D02*
X0136309Y0386543D01*
X0134511Y0385944D02*
X0194479Y0385944D01*
X0192512Y0385346D02*
X0132713Y0385346D01*
X0130915Y0384747D02*
X0191596Y0384747D01*
X0190680Y0384149D02*
X0129434Y0384149D01*
X0127989Y0383550D02*
X0189764Y0383550D01*
X0188956Y0382952D02*
X0126544Y0382952D01*
X0125099Y0382353D02*
X0188490Y0382353D01*
X0188024Y0381755D02*
X0123655Y0381755D01*
X0122210Y0381156D02*
X0187558Y0381156D01*
X0187092Y0380558D02*
X0120765Y0380558D01*
X0119320Y0379959D02*
X0186627Y0379959D01*
X0186270Y0379361D02*
X0117898Y0379361D01*
X0116703Y0378762D02*
X0186064Y0378762D01*
X0185859Y0378164D02*
X0115507Y0378164D01*
X0114311Y0377565D02*
X0185653Y0377565D01*
X0185448Y0376967D02*
X0113116Y0376967D01*
X0111920Y0376368D02*
X0185242Y0376368D01*
X0185037Y0375770D02*
X0110724Y0375770D01*
X0109529Y0375171D02*
X0184922Y0375171D01*
X0184922Y0374573D02*
X0108333Y0374573D01*
X0107137Y0373974D02*
X0184922Y0373974D01*
X0184922Y0373376D02*
X0105942Y0373376D01*
X0104895Y0372777D02*
X0184922Y0372777D01*
X0184922Y0372179D02*
X0103886Y0372179D01*
X0102877Y0371580D02*
X0184922Y0371580D01*
X0184936Y0370981D02*
X0101868Y0370981D01*
X0100860Y0370383D02*
X0185141Y0370383D01*
X0185347Y0369784D02*
X0099851Y0369784D01*
X0098842Y0369186D02*
X0185552Y0369186D01*
X0185758Y0368587D02*
X0097833Y0368587D01*
X0096825Y0367989D02*
X0185963Y0367989D01*
X0186169Y0367390D02*
X0095816Y0367390D01*
X0094807Y0366792D02*
X0186397Y0366792D01*
X0186863Y0366193D02*
X0093806Y0366193D01*
X0092944Y0365595D02*
X0187329Y0365595D01*
X0187795Y0364996D02*
X0092082Y0364996D01*
X0091220Y0364398D02*
X0188261Y0364398D01*
X0188727Y0363799D02*
X0090358Y0363799D01*
X0089496Y0363201D02*
X0189313Y0363201D01*
X0190229Y0362602D02*
X0088634Y0362602D01*
X0087772Y0362004D02*
X0191145Y0362004D01*
X0192062Y0361405D02*
X0086910Y0361405D01*
X0086048Y0360807D02*
X0193316Y0360807D01*
X0195680Y0360208D02*
X0085186Y0360208D01*
X0138108Y0387141D02*
X0258193Y0387141D01*
X0256395Y0387740D02*
X0139906Y0387740D01*
X0141704Y0388338D02*
X0254597Y0388338D01*
X0252798Y0388937D02*
X0143502Y0388937D01*
X0145757Y0389535D02*
X0250544Y0389535D01*
X0248199Y0390134D02*
X0148102Y0390134D01*
X0150447Y0390732D02*
X0245854Y0390732D01*
X0243509Y0391331D02*
X0152791Y0391331D01*
X0155136Y0391929D02*
X0241164Y0391929D01*
X0238679Y0392528D02*
X0157621Y0392528D01*
X0160939Y0393126D02*
X0235362Y0393126D01*
X0232045Y0393725D02*
X0164256Y0393725D01*
X0167573Y0394323D02*
X0228727Y0394323D01*
X0225278Y0394922D02*
X0171023Y0394922D01*
X0176590Y0395520D02*
X0219711Y0395520D01*
X0214144Y0396119D02*
X0182157Y0396119D01*
X0194429Y0396717D02*
X0201872Y0396717D01*
X0200657Y0383127D02*
X0203735Y0381777D01*
X0206208Y0379500D01*
X0207808Y0376544D01*
X0208361Y0373228D01*
X0207808Y0369913D01*
X0206208Y0366957D01*
X0203735Y0364680D01*
X0200657Y0363330D01*
X0197307Y0363052D01*
X0194049Y0363877D01*
X0191235Y0365716D01*
X0189170Y0368368D01*
X0188079Y0371548D01*
X0188079Y0374909D01*
X0189170Y0378088D01*
X0191235Y0380741D01*
X0194049Y0382579D01*
X0197307Y0383404D01*
X0200657Y0383127D01*
X0201056Y0382952D02*
X0195519Y0382952D01*
X0193703Y0382353D02*
X0202421Y0382353D01*
X0203759Y0381755D02*
X0192786Y0381755D01*
X0191870Y0381156D02*
X0204409Y0381156D01*
X0205059Y0380558D02*
X0191092Y0380558D01*
X0190626Y0379959D02*
X0205710Y0379959D01*
X0206284Y0379361D02*
X0190160Y0379361D01*
X0189695Y0378762D02*
X0206608Y0378762D01*
X0206932Y0378164D02*
X0189229Y0378164D01*
X0188990Y0377565D02*
X0207255Y0377565D01*
X0207579Y0376967D02*
X0188785Y0376967D01*
X0188580Y0376368D02*
X0207837Y0376368D01*
X0207937Y0375770D02*
X0188374Y0375770D01*
X0188169Y0375171D02*
X0208037Y0375171D01*
X0208137Y0374573D02*
X0188079Y0374573D01*
X0188079Y0373974D02*
X0208237Y0373974D01*
X0208337Y0373376D02*
X0188079Y0373376D01*
X0188079Y0372777D02*
X0208286Y0372777D01*
X0208186Y0372179D02*
X0188079Y0372179D01*
X0188079Y0371580D02*
X0208086Y0371580D01*
X0207986Y0370981D02*
X0188273Y0370981D01*
X0188478Y0370383D02*
X0207887Y0370383D01*
X0207739Y0369784D02*
X0188684Y0369784D01*
X0188889Y0369186D02*
X0207415Y0369186D01*
X0207091Y0368587D02*
X0189095Y0368587D01*
X0189465Y0367989D02*
X0206767Y0367989D01*
X0206443Y0367390D02*
X0189931Y0367390D01*
X0190397Y0366792D02*
X0206029Y0366792D01*
X0205379Y0366193D02*
X0190863Y0366193D01*
X0191420Y0365595D02*
X0204729Y0365595D01*
X0204079Y0364996D02*
X0192336Y0364996D01*
X0193252Y0364398D02*
X0203092Y0364398D01*
X0201728Y0363799D02*
X0194357Y0363799D01*
X0196720Y0363201D02*
X0199101Y0363201D01*
X0186339Y0373228D02*
X0186343Y0373518D01*
X0186353Y0373808D01*
X0186371Y0374097D01*
X0186396Y0374386D01*
X0186428Y0374674D01*
X0186467Y0374961D01*
X0186513Y0375247D01*
X0186566Y0375532D01*
X0186626Y0375816D01*
X0186693Y0376098D01*
X0186767Y0376378D01*
X0186848Y0376657D01*
X0186935Y0376933D01*
X0187029Y0377207D01*
X0187130Y0377479D01*
X0187238Y0377748D01*
X0187352Y0378014D01*
X0187473Y0378278D01*
X0187600Y0378538D01*
X0187734Y0378796D01*
X0187873Y0379050D01*
X0188019Y0379300D01*
X0188171Y0379547D01*
X0188330Y0379790D01*
X0188494Y0380029D01*
X0188663Y0380264D01*
X0188839Y0380495D01*
X0189020Y0380721D01*
X0189207Y0380943D01*
X0189399Y0381160D01*
X0189596Y0381372D01*
X0189798Y0381580D01*
X0190006Y0381782D01*
X0190218Y0381979D01*
X0190435Y0382171D01*
X0190657Y0382358D01*
X0190883Y0382539D01*
X0191114Y0382715D01*
X0191349Y0382884D01*
X0191588Y0383048D01*
X0191831Y0383207D01*
X0192078Y0383359D01*
X0192328Y0383505D01*
X0192582Y0383644D01*
X0192840Y0383778D01*
X0193100Y0383905D01*
X0193364Y0384026D01*
X0193630Y0384140D01*
X0193899Y0384248D01*
X0194171Y0384349D01*
X0194445Y0384443D01*
X0194721Y0384530D01*
X0195000Y0384611D01*
X0195280Y0384685D01*
X0195562Y0384752D01*
X0195846Y0384812D01*
X0196131Y0384865D01*
X0196417Y0384911D01*
X0196704Y0384950D01*
X0196992Y0384982D01*
X0197281Y0385007D01*
X0197570Y0385025D01*
X0197860Y0385035D01*
X0198150Y0385039D01*
X0198440Y0385035D01*
X0198730Y0385025D01*
X0199019Y0385007D01*
X0199308Y0384982D01*
X0199596Y0384950D01*
X0199883Y0384911D01*
X0200169Y0384865D01*
X0200454Y0384812D01*
X0200738Y0384752D01*
X0201020Y0384685D01*
X0201300Y0384611D01*
X0201579Y0384530D01*
X0201855Y0384443D01*
X0202129Y0384349D01*
X0202401Y0384248D01*
X0202670Y0384140D01*
X0202936Y0384026D01*
X0203200Y0383905D01*
X0203460Y0383778D01*
X0203718Y0383644D01*
X0203972Y0383505D01*
X0204222Y0383359D01*
X0204469Y0383207D01*
X0204712Y0383048D01*
X0204951Y0382884D01*
X0205186Y0382715D01*
X0205417Y0382539D01*
X0205643Y0382358D01*
X0205865Y0382171D01*
X0206082Y0381979D01*
X0206294Y0381782D01*
X0206502Y0381580D01*
X0206704Y0381372D01*
X0206901Y0381160D01*
X0207093Y0380943D01*
X0207280Y0380721D01*
X0207461Y0380495D01*
X0207637Y0380264D01*
X0207806Y0380029D01*
X0207970Y0379790D01*
X0208129Y0379547D01*
X0208281Y0379300D01*
X0208427Y0379050D01*
X0208566Y0378796D01*
X0208700Y0378538D01*
X0208827Y0378278D01*
X0208948Y0378014D01*
X0209062Y0377748D01*
X0209170Y0377479D01*
X0209271Y0377207D01*
X0209365Y0376933D01*
X0209452Y0376657D01*
X0209533Y0376378D01*
X0209607Y0376098D01*
X0209674Y0375816D01*
X0209734Y0375532D01*
X0209787Y0375247D01*
X0209833Y0374961D01*
X0209872Y0374674D01*
X0209904Y0374386D01*
X0209929Y0374097D01*
X0209947Y0373808D01*
X0209957Y0373518D01*
X0209961Y0373228D01*
X0209957Y0372938D01*
X0209947Y0372648D01*
X0209929Y0372359D01*
X0209904Y0372070D01*
X0209872Y0371782D01*
X0209833Y0371495D01*
X0209787Y0371209D01*
X0209734Y0370924D01*
X0209674Y0370640D01*
X0209607Y0370358D01*
X0209533Y0370078D01*
X0209452Y0369799D01*
X0209365Y0369523D01*
X0209271Y0369249D01*
X0209170Y0368977D01*
X0209062Y0368708D01*
X0208948Y0368442D01*
X0208827Y0368178D01*
X0208700Y0367918D01*
X0208566Y0367660D01*
X0208427Y0367406D01*
X0208281Y0367156D01*
X0208129Y0366909D01*
X0207970Y0366666D01*
X0207806Y0366427D01*
X0207637Y0366192D01*
X0207461Y0365961D01*
X0207280Y0365735D01*
X0207093Y0365513D01*
X0206901Y0365296D01*
X0206704Y0365084D01*
X0206502Y0364876D01*
X0206294Y0364674D01*
X0206082Y0364477D01*
X0205865Y0364285D01*
X0205643Y0364098D01*
X0205417Y0363917D01*
X0205186Y0363741D01*
X0204951Y0363572D01*
X0204712Y0363408D01*
X0204469Y0363249D01*
X0204222Y0363097D01*
X0203972Y0362951D01*
X0203718Y0362812D01*
X0203460Y0362678D01*
X0203200Y0362551D01*
X0202936Y0362430D01*
X0202670Y0362316D01*
X0202401Y0362208D01*
X0202129Y0362107D01*
X0201855Y0362013D01*
X0201579Y0361926D01*
X0201300Y0361845D01*
X0201020Y0361771D01*
X0200738Y0361704D01*
X0200454Y0361644D01*
X0200169Y0361591D01*
X0199883Y0361545D01*
X0199596Y0361506D01*
X0199308Y0361474D01*
X0199019Y0361449D01*
X0198730Y0361431D01*
X0198440Y0361421D01*
X0198150Y0361417D01*
X0197860Y0361421D01*
X0197570Y0361431D01*
X0197281Y0361449D01*
X0196992Y0361474D01*
X0196704Y0361506D01*
X0196417Y0361545D01*
X0196131Y0361591D01*
X0195846Y0361644D01*
X0195562Y0361704D01*
X0195280Y0361771D01*
X0195000Y0361845D01*
X0194721Y0361926D01*
X0194445Y0362013D01*
X0194171Y0362107D01*
X0193899Y0362208D01*
X0193630Y0362316D01*
X0193364Y0362430D01*
X0193100Y0362551D01*
X0192840Y0362678D01*
X0192582Y0362812D01*
X0192328Y0362951D01*
X0192078Y0363097D01*
X0191831Y0363249D01*
X0191588Y0363408D01*
X0191349Y0363572D01*
X0191114Y0363741D01*
X0190883Y0363917D01*
X0190657Y0364098D01*
X0190435Y0364285D01*
X0190218Y0364477D01*
X0190006Y0364674D01*
X0189798Y0364876D01*
X0189596Y0365084D01*
X0189399Y0365296D01*
X0189207Y0365513D01*
X0189020Y0365735D01*
X0188839Y0365961D01*
X0188663Y0366192D01*
X0188494Y0366427D01*
X0188330Y0366666D01*
X0188171Y0366909D01*
X0188019Y0367156D01*
X0187873Y0367406D01*
X0187734Y0367660D01*
X0187600Y0367918D01*
X0187473Y0368178D01*
X0187352Y0368442D01*
X0187238Y0368708D01*
X0187130Y0368977D01*
X0187029Y0369249D01*
X0186935Y0369523D01*
X0186848Y0369799D01*
X0186767Y0370078D01*
X0186693Y0370358D01*
X0186626Y0370640D01*
X0186566Y0370924D01*
X0186513Y0371209D01*
X0186467Y0371495D01*
X0186428Y0371782D01*
X0186396Y0372070D01*
X0186371Y0372359D01*
X0186353Y0372648D01*
X0186343Y0372938D01*
X0186339Y0373228D01*
X0299687Y0200406D02*
X0300322Y0200406D01*
X0304922Y0190748D02*
X0304900Y0190687D01*
X0304900Y0185887D01*
D11*
X0304922Y0190748D03*
X0297048Y0190748D03*
D12*
X0287599Y0211220D03*
X0314371Y0211220D03*
D13*
X0376182Y0210709D03*
X0376182Y0200866D03*
X0376182Y0191024D03*
X0389174Y0191024D03*
X0389174Y0200866D03*
X0389174Y0210709D03*
D14*
X0209095Y0297756D03*
X0199095Y0297756D03*
X0199095Y0307756D03*
X0209095Y0307756D03*
X0189095Y0307756D03*
X0189095Y0297756D03*
D15*
X0186339Y0040646D02*
X0186339Y0035496D01*
X0186339Y0019780D02*
X0186339Y0014630D01*
X0215080Y0014630D02*
X0215080Y0019780D01*
X0215080Y0035496D02*
X0215080Y0040646D01*
D16*
X0205827Y0030197D02*
X0205829Y0030281D01*
X0205835Y0030364D01*
X0205845Y0030447D01*
X0205859Y0030530D01*
X0205876Y0030612D01*
X0205898Y0030693D01*
X0205923Y0030772D01*
X0205952Y0030851D01*
X0205985Y0030928D01*
X0206021Y0031003D01*
X0206061Y0031077D01*
X0206104Y0031149D01*
X0206151Y0031218D01*
X0206201Y0031285D01*
X0206254Y0031350D01*
X0206310Y0031412D01*
X0206368Y0031472D01*
X0206430Y0031529D01*
X0206494Y0031582D01*
X0206561Y0031633D01*
X0206630Y0031680D01*
X0206701Y0031725D01*
X0206774Y0031765D01*
X0206849Y0031802D01*
X0206926Y0031836D01*
X0207004Y0031866D01*
X0207083Y0031892D01*
X0207164Y0031915D01*
X0207246Y0031933D01*
X0207328Y0031948D01*
X0207411Y0031959D01*
X0207494Y0031966D01*
X0207578Y0031969D01*
X0207662Y0031968D01*
X0207745Y0031963D01*
X0207829Y0031954D01*
X0207911Y0031941D01*
X0207993Y0031925D01*
X0208074Y0031904D01*
X0208155Y0031880D01*
X0208233Y0031852D01*
X0208311Y0031820D01*
X0208387Y0031784D01*
X0208461Y0031745D01*
X0208533Y0031703D01*
X0208603Y0031657D01*
X0208671Y0031608D01*
X0208736Y0031556D01*
X0208799Y0031501D01*
X0208859Y0031443D01*
X0208917Y0031382D01*
X0208971Y0031318D01*
X0209023Y0031252D01*
X0209071Y0031184D01*
X0209116Y0031113D01*
X0209157Y0031040D01*
X0209196Y0030966D01*
X0209230Y0030890D01*
X0209261Y0030812D01*
X0209288Y0030733D01*
X0209312Y0030652D01*
X0209331Y0030571D01*
X0209347Y0030489D01*
X0209359Y0030406D01*
X0209367Y0030322D01*
X0209371Y0030239D01*
X0209371Y0030155D01*
X0209367Y0030072D01*
X0209359Y0029988D01*
X0209347Y0029905D01*
X0209331Y0029823D01*
X0209312Y0029742D01*
X0209288Y0029661D01*
X0209261Y0029582D01*
X0209230Y0029504D01*
X0209196Y0029428D01*
X0209157Y0029354D01*
X0209116Y0029281D01*
X0209071Y0029210D01*
X0209023Y0029142D01*
X0208971Y0029076D01*
X0208917Y0029012D01*
X0208859Y0028951D01*
X0208799Y0028893D01*
X0208736Y0028838D01*
X0208671Y0028786D01*
X0208603Y0028737D01*
X0208533Y0028691D01*
X0208461Y0028649D01*
X0208387Y0028610D01*
X0208311Y0028574D01*
X0208233Y0028542D01*
X0208155Y0028514D01*
X0208074Y0028490D01*
X0207993Y0028469D01*
X0207911Y0028453D01*
X0207829Y0028440D01*
X0207745Y0028431D01*
X0207662Y0028426D01*
X0207578Y0028425D01*
X0207494Y0028428D01*
X0207411Y0028435D01*
X0207328Y0028446D01*
X0207246Y0028461D01*
X0207164Y0028479D01*
X0207083Y0028502D01*
X0207004Y0028528D01*
X0206926Y0028558D01*
X0206849Y0028592D01*
X0206774Y0028629D01*
X0206701Y0028669D01*
X0206630Y0028714D01*
X0206561Y0028761D01*
X0206494Y0028812D01*
X0206430Y0028865D01*
X0206368Y0028922D01*
X0206310Y0028982D01*
X0206254Y0029044D01*
X0206201Y0029109D01*
X0206151Y0029176D01*
X0206104Y0029245D01*
X0206061Y0029317D01*
X0206021Y0029391D01*
X0205985Y0029466D01*
X0205952Y0029543D01*
X0205923Y0029622D01*
X0205898Y0029701D01*
X0205876Y0029782D01*
X0205859Y0029864D01*
X0205845Y0029947D01*
X0205835Y0030030D01*
X0205829Y0030113D01*
X0205827Y0030197D01*
X0192048Y0030197D02*
X0192050Y0030281D01*
X0192056Y0030364D01*
X0192066Y0030447D01*
X0192080Y0030530D01*
X0192097Y0030612D01*
X0192119Y0030693D01*
X0192144Y0030772D01*
X0192173Y0030851D01*
X0192206Y0030928D01*
X0192242Y0031003D01*
X0192282Y0031077D01*
X0192325Y0031149D01*
X0192372Y0031218D01*
X0192422Y0031285D01*
X0192475Y0031350D01*
X0192531Y0031412D01*
X0192589Y0031472D01*
X0192651Y0031529D01*
X0192715Y0031582D01*
X0192782Y0031633D01*
X0192851Y0031680D01*
X0192922Y0031725D01*
X0192995Y0031765D01*
X0193070Y0031802D01*
X0193147Y0031836D01*
X0193225Y0031866D01*
X0193304Y0031892D01*
X0193385Y0031915D01*
X0193467Y0031933D01*
X0193549Y0031948D01*
X0193632Y0031959D01*
X0193715Y0031966D01*
X0193799Y0031969D01*
X0193883Y0031968D01*
X0193966Y0031963D01*
X0194050Y0031954D01*
X0194132Y0031941D01*
X0194214Y0031925D01*
X0194295Y0031904D01*
X0194376Y0031880D01*
X0194454Y0031852D01*
X0194532Y0031820D01*
X0194608Y0031784D01*
X0194682Y0031745D01*
X0194754Y0031703D01*
X0194824Y0031657D01*
X0194892Y0031608D01*
X0194957Y0031556D01*
X0195020Y0031501D01*
X0195080Y0031443D01*
X0195138Y0031382D01*
X0195192Y0031318D01*
X0195244Y0031252D01*
X0195292Y0031184D01*
X0195337Y0031113D01*
X0195378Y0031040D01*
X0195417Y0030966D01*
X0195451Y0030890D01*
X0195482Y0030812D01*
X0195509Y0030733D01*
X0195533Y0030652D01*
X0195552Y0030571D01*
X0195568Y0030489D01*
X0195580Y0030406D01*
X0195588Y0030322D01*
X0195592Y0030239D01*
X0195592Y0030155D01*
X0195588Y0030072D01*
X0195580Y0029988D01*
X0195568Y0029905D01*
X0195552Y0029823D01*
X0195533Y0029742D01*
X0195509Y0029661D01*
X0195482Y0029582D01*
X0195451Y0029504D01*
X0195417Y0029428D01*
X0195378Y0029354D01*
X0195337Y0029281D01*
X0195292Y0029210D01*
X0195244Y0029142D01*
X0195192Y0029076D01*
X0195138Y0029012D01*
X0195080Y0028951D01*
X0195020Y0028893D01*
X0194957Y0028838D01*
X0194892Y0028786D01*
X0194824Y0028737D01*
X0194754Y0028691D01*
X0194682Y0028649D01*
X0194608Y0028610D01*
X0194532Y0028574D01*
X0194454Y0028542D01*
X0194376Y0028514D01*
X0194295Y0028490D01*
X0194214Y0028469D01*
X0194132Y0028453D01*
X0194050Y0028440D01*
X0193966Y0028431D01*
X0193883Y0028426D01*
X0193799Y0028425D01*
X0193715Y0028428D01*
X0193632Y0028435D01*
X0193549Y0028446D01*
X0193467Y0028461D01*
X0193385Y0028479D01*
X0193304Y0028502D01*
X0193225Y0028528D01*
X0193147Y0028558D01*
X0193070Y0028592D01*
X0192995Y0028629D01*
X0192922Y0028669D01*
X0192851Y0028714D01*
X0192782Y0028761D01*
X0192715Y0028812D01*
X0192651Y0028865D01*
X0192589Y0028922D01*
X0192531Y0028982D01*
X0192475Y0029044D01*
X0192422Y0029109D01*
X0192372Y0029176D01*
X0192325Y0029245D01*
X0192282Y0029317D01*
X0192242Y0029391D01*
X0192206Y0029466D01*
X0192173Y0029543D01*
X0192144Y0029622D01*
X0192119Y0029701D01*
X0192097Y0029782D01*
X0192080Y0029864D01*
X0192066Y0029947D01*
X0192056Y0030030D01*
X0192050Y0030113D01*
X0192048Y0030197D01*
D17*
X0194500Y0045487D03*
X0155500Y0025087D03*
X0134500Y0065287D03*
X0115900Y0064687D03*
X0126100Y0140287D03*
X0159100Y0179887D03*
X0161500Y0196687D03*
X0177700Y0200287D03*
X0185500Y0187087D03*
X0207100Y0200887D03*
X0214300Y0187687D03*
X0221500Y0195487D03*
X0223900Y0201487D03*
X0201100Y0216487D03*
X0195100Y0216487D03*
X0237700Y0166087D03*
X0249100Y0147487D03*
X0250300Y0130687D03*
X0262900Y0133687D03*
X0267700Y0128887D03*
X0215500Y0141487D03*
X0205900Y0143887D03*
X0201100Y0143887D03*
X0202300Y0136687D03*
X0186100Y0145087D03*
X0109900Y0227287D03*
X0250900Y0346087D03*
M02*
