%
M48
M72
T01C0.01378
T02C0.01969
T03C0.03150
T04C0.03543
%
T01
X115900Y64687
X134500Y65287
X155500Y25087
X194500Y45487
X250300Y130687
X262900Y133687
X267700Y128887
X249100Y147487
X237700Y166087
X214300Y187687
X221500Y195487
X223900Y201487
X207100Y200887
X109900Y227287
X159100Y179887
X161500Y196687
X177700Y200287
X185500Y187087
X195100Y216487
X201100Y216487
X186100Y145087
X201100Y143887
X205900Y143887
X202300Y136687
X215500Y141487
X126100Y140287
X250900Y346087
T02
X189095Y307756
X189095Y297756
X199095Y297756
X199095Y307756
X209095Y307756
X209095Y297756
T03
X215080Y38071
X215080Y17205
X186339Y38071
X186339Y17205
T04
X193820Y30197
X207599Y30197
X376182Y191024
X376182Y200866
X376182Y210709
X389174Y210709
X389174Y200866
X389174Y191024
M30
